<?xml version="1.0" encoding="utf-8"?>
<!-- Generator: Adobe Illustrator 24.0.1, SVG Export Plug-In . SVG Version: 6.00 Build 0)  -->
<svg version="1.1" id="Layer_1" xmlns="http://www.w3.org/2000/svg" xmlns:xlink="http://www.w3.org/1999/xlink" x="0px" y="0px"
	 viewBox="0 0 24 24" style="enable-background:new 0 0 24 24;" xml:space="preserve">
<style type="text/css">
	.st0{fill:#242528;}
	.st1{fill:#262324;}
	.st2{fill:#FFFFFF;}
	.st3{fill:#FCFDFF;}
	.st4{fill:#252525;}
	.st5{fill:#231F20;}
	.st6{fill:none;stroke:#242528;stroke-miterlimit:10;}
	.st7{fill:#242528;stroke:#242528;stroke-miterlimit:10;}
	.st8{fill:none;}
	.st9{fill:none;stroke:#231F20;stroke-linecap:round;stroke-linejoin:round;stroke-miterlimit:10;}
	.st10{fill:none;stroke:#000000;stroke-width:0.6494;stroke-miterlimit:10;}
	.st11{fill:none;stroke:#000000;stroke-width:0.5538;stroke-miterlimit:10;}
	.st12{fill:none;stroke:#000000;stroke-miterlimit:10;}
	.st13{stroke:#000000;stroke-miterlimit:10;}
	.st14{fill:none;stroke:#FFFFFF;stroke-width:0.75;stroke-linecap:round;stroke-linejoin:round;stroke-miterlimit:10;}
	.st15{fill:#FFFFFF;stroke:#242528;stroke-width:0.75;stroke-miterlimit:10;}
	.st16{fill:none;stroke:#242528;stroke-width:0.75;stroke-miterlimit:10;}
</style>
<g>
	<path class="st0" d="M228.6,67.2c0,0,6.1,5.8,12.2,11.5l1.4-2.2l1.8,1.3l-2.9,2.5l3.7,4.6l-1,1l-3.7-4.3l-2.8,2.5l-1.3-1l2-1.6
		C237.9,81.4,230.8,72.7,228.6,67.2z"/>
	<path class="st0" d="M239.6,75.5C239.6,75.6,239.4,75.5,239.6,75.5c2-2.7,4.3-5.8,5.3-8.4c0,0-3.8,2.4-7.8,6.1
		C237.6,73.8,238.9,75,239.6,75.5z"/>
	<path class="st0" d="M233.1,78.2c-0.2-0.2-1.5-1.6-1.5-1.6l-1.6,1l2.4,2.6l-3.7,4.6l1,1l3.7-4.3l1.1,0.9c0.4-0.5,0.8-0.9,1.2-1.4
		c0.1-0.1,0.1-0.1,0.2-0.2C234.8,80,233.9,79.1,233.1,78.2z"/>
</g>
<g>
	<path class="st0" d="M1.6-439.5c0,0,6.1,5.8,12.2,11.5l1.4-2.2l1.8,1.3l-2.9,2.5l3.7,4.6l-1,1l-3.7-4.3l-2.8,2.5l-1.3-1l2-1.6
		C11-425.3,3.9-434,1.6-439.5z"/>
	<path class="st0" d="M12.6-431.2C12.6-431.1,12.5-431.2,12.6-431.2c2-2.7,4.3-5.8,5.3-8.4c0,0-3.8,2.4-7.8,6.1
		C10.6-432.9,12-431.7,12.6-431.2z"/>
	<path class="st0" d="M6.1-428.5c-0.2-0.2-1.5-1.6-1.5-1.6l-1.6,1l2.4,2.6l-3.7,4.6l1,1l3.7-4.3l1.1,1c0.4-0.5,0.8-0.9,1.2-1.4
		c0.1-0.1,0.1-0.1,0.2-0.2C7.9-426.7,7-427.6,6.1-428.5z"/>
</g>
<g>
	<g>
		<path class="st0" d="M12-357.7l-8.8-8.6c0,0,0.8,7.3,5.8,10.5L12-357.7z"/>
		<polygon class="st0" points="12.9,-356.8 17.3,-351.6 15.6,-350.8 11.6,-355.8 		"/>
	</g>
	<g>
		<path class="st0" d="M17.9-357.6c0,0-1.1-3.9-4.3-8c0,0-1.2,3.3,2.1,8.4L17.9-357.6z"/>
		<path class="st0" d="M18.4-356.7c0.2,0.2,1.4,4.1,1.4,4.1l-1.2,0.9l-1.5-4.6L18.4-356.7z"/>
	</g>
	<polygon class="st0" points="17,-348.5 12.3,-351.5 11.2,-350.3 15.9,-347.4 	"/>
	<path class="st0" d="M11.2-351.9l-9.6-3.4c0,0,3.1,5.1,7.7,5.7L11.2-351.9z"/>
</g>
<g>
	<polygon class="st1" points="9.8,-312.6 2.2,-311.6 7.4,-315 1.9,-318.6 7.5,-318.6 1.6,-328.6 9.3,-323.7 8,-327.5 11,-325.6 
		13,-328.2 15.4,-324.8 17.8,-327.9 16.4,-314.1 	"/>
	<g>
		<path class="st1" d="M14.8-312.1c-1.6,0-3.2-0.6-3.6-1.4c-0.2-0.2-1.8-0.7-2.5-0.7c-0.1,0-0.2,0-0.3,0c-0.4,0-0.8-0.3-0.8-0.7
			c-0.1-0.4,0.1-1,0.7-1.3c0.3-0.1,0.8-0.2,1.4-0.2c0.8,0,1.6,0.1,2,0.2c0.1,0,0.2,0,0.2,0s0,0,0.1,0v-0.1c-0.1-0.3-0.5-1.1-1-1.9
			c-1.9-3.4-2.2-4.2-1.8-4.6c0.1-0.2,0.4-0.3,0.6-0.3c0.9,0,2.1,1.3,2.6,2.2c0.2,0.4,0.5,0.7,0.7,0.9c-0.2-0.8-0.6-1.9-0.8-2.5
			c-0.1-0.4-0.3-0.7-0.3-0.9c-0.1-0.5-0.1-0.9,0.2-1.2c0.3-0.3,0.7-0.5,1.1-0.5c0.7,0,1,0.9,1.6,3.4c0-0.1,0-0.3,0-0.5
			c0-1.3,0.5-2,1.2-2c0.2,0,0.4,0.1,0.6,0.3c0.6,0.7,0.3,3.4,0.3,3.5s0,0.1,0,0.2c0.6-0.9,1.5-1.8,2.2-1.8c0.3,0,0.6,0.2,0.7,0.5
			c0.2,0.4,0,1.1-1.6,3.7c-0.1,0.1-0.1,0.2-0.2,0.3c0,0.1,0,0.8,0,1.3c0,0.8,0,1.7-0.1,2.3C17.4-312.5,15.1-312.2,14.8-312.1
			L14.8-312.1L14.8-312.1z"/>
		<path class="st2" d="M13.1-324.6c0.6,0,1.4,5,1.7,5l0,0c0.3,0,0.4-1.9,0.4-2.5s0.1-1.5,0.7-1.5l0,0c0.6,0,0.4,2.7,0.3,3.1
			c0,0.3,0,1.3,0.3,1.3c0.1,0,0.2-0.1,0.4-0.4c0.5-1,1.5-1.9,2-1.9c0.1,0,0.2,0,0.2,0.1c0.2,0.5-1.6,3.3-1.8,3.6s0,2.7-0.2,3.8
			c-0.2,1.1-2.4,1.4-2.4,1.4c-1.5,0-2.8-0.6-3.1-1.1s-2.2-1-3-1c-0.1,0-0.1,0-0.2,0h0c-0.4,0-0.6-0.7,0.1-1c0.3-0.1,0.7-0.2,1.1-0.2
			c0.7,0,1.5,0.1,1.8,0.2c0.1,0,0.3,0.1,0.4,0.1c0.4,0,0.7-0.2,0.5-0.8c-0.3-0.8-3.2-5.6-2.9-6c0.1-0.1,0.1-0.1,0.2-0.1
			c0.5,0,1.6,0.9,2.1,1.9c0.6,1,1.3,1.7,1.6,1.7c0.1,0,0.1,0,0.1-0.1c0.2-0.3-1.1-3.9-1.3-4.5C12-324.2,12.4-324.6,13.1-324.6
			 M13.1-325.6c-0.6,0-1.2,0.3-1.5,0.7c-0.3,0.5-0.4,1.1-0.3,1.7c0,0.1,0.1,0.4,0.2,0.7c-0.6-0.6-1.2-1-1.9-1c-0.4,0-0.8,0.2-1,0.5
			c-0.5,0.7-0.2,1.6,1.8,5.2c0.2,0.4,0.4,0.8,0.6,1.1c-0.4-0.1-1-0.1-1.4-0.1c-0.7,0-1.2,0.1-1.6,0.2c-0.8,0.3-1.2,1.1-1,1.8
			c0.1,0.6,0.7,1.1,1.3,1.1c0.1,0,0.2,0,0.3,0c0.5,0,1.8,0.3,2.1,0.5c0.6,0.9,2.2,1.6,3.9,1.6h0.1h0.1c0.5-0.1,2.9-0.4,3.3-2.2
			c0.1-0.7,0.1-1.6,0.1-2.4c0-0.4,0-0.9,0-1.1c0,0,0.1-0.1,0.1-0.2c1.7-2.8,1.9-3.5,1.7-4.2c-0.2-0.5-0.6-0.8-1.2-0.8
			c-0.5,0-1.1,0.3-1.6,0.8c0-0.9,0-2-0.5-2.5c-0.2-0.3-0.6-0.4-0.9-0.4l0,0l0,0c-0.4,0-0.9,0.1-1.3,0.7
			C14.2-325,13.8-325.6,13.1-325.6L13.1-325.6z"/>
	</g>
</g>
<g>
	<path class="st0" d="M11.7-537.8c0,0,1.5,1.4,4.2,0.9c0,0-0.5-2.7-4.2-2.6c0,0,1.4-2.4-1.2-4.9c-2.7-2.5-7.6-2.9-7.6-2.9
		s6.7,3.5,5.9,5.9c0,0-3.2,1.2-3.5,3s-0.7,2.7-3.3,4.3c0,0-1.1,1-0.9,1.5c0.1,0.5,2.7,3.5,3.9,3.4s4-0.9,6.1-0.5
		c2.1,0.5,3.8-3.3,2.4-5.4S11.7-537.8,11.7-537.8z M6.5-535.7c1.3-2.4,3.6-2.7,3.6-2.7C9.6-534.7,6.5-535.7,6.5-535.7z"/>
	<path class="st0" d="M13-542.4c0.3,0.8,0.3,1.5,0.1,2.1c2.6,0.4,3.6,2.2,3.8,3.2l0.2,0.8l-0.8,0.2c-0.5,0.1-0.9,0.1-1.4,0.1l0,0
		c-0.3,0-0.7,0-1-0.1c0.1,0.2,0.3,0.4,0.4,0.6c0.9,1.3,0.9,3.1,0.1,4.7c-0.1,0.3-0.3,0.5-0.5,0.8c2.3,0.9,1.5,2.4,3.6,2.4
		s3.6-12.7,0-14.4C16.7-542.4,14.2-542.5,13-542.4z"/>
	<path class="st0" d="M5.4-540.8l1.8-1.5c-1.8-0.2-5.9-4.2-5.8-4C2-543.2,5.4-540.8,5.4-540.8z"/>
</g>
<g>
	<polygon class="st1" points="7.6,17 2.2,17.9 5.9,14.8 1.9,11.4 6,11.4 1.9,2.1 7.3,6.6 6.4,3.1 8.5,4.9 10,2.5 11.7,5.6 13.4,2.7 
		12.4,15.6 	"/>
	<g>
		<polygon class="st0" points="6.9,21.3 10.4,15.4 9.9,15.1 10.5,14 9,13.1 8.5,14 5.9,12.5 9.7,6 12.2,7.5 11.7,8.3 13.2,9.2 
			15.3,6.8 18,9.5 16.7,11.2 18.3,12.1 18.8,11.3 21.4,12.8 17.6,19.2 15.1,17.8 15.6,16.9 13.9,16 13.3,17 12.8,16.7 10.1,21.3 		
			"/>
		<path class="st3" d="M9.9,6.7l1.7,1l-3.2,5.6l-1.7-1L9.9,6.7 M15.3,7.5l2,2l-1.1,1.3l-2.6-1.5L15.3,7.5 M11.5,8.8l6.5,3.8
			l-2.3,3.9l-6.5-3.8L11.5,8.8 M19,12l1.7,1l-3.2,5.6l-1.7-1L19,12L19,12 M10.9,14.3L10.9,14.3L10.9,14.3 M10.9,14.3l2.6,1.5
			l-0.3,0.6l-2.6-1.5L10.9,14.3 M10.8,15.7l1.5,0.9l-2.5,4.3h-2L10.8,15.7L10.8,15.7 M9.5,5.3L9,6.2l-3.2,5.6l-0.5,0.9l0.9,0.5
			l1.7,1l0.9,0.5l0.5-0.9l0.6,0.4l-0.1,0.2l-0.5,0.9l0.5,0.3L7,20.4l-0.9,1.5h1.7h2h0.6l0.3-0.5l2.3-3.9l0.5,0.3l0.5-0.9l0.1-0.2
			l0.8,0.5l-0.5,0.9l0.9,0.5l1.7,1l0.9,0.5l0.5-0.9l3.2-5.6l0.5-0.9l-0.9-0.5l-1.7-1l-0.9-0.5l-0.5,0.8l-0.7-0.4l0.7-0.8l0.6-0.7
			L18.1,9l-2-2l-0.8-0.8L14.6,7l-1.4,1.6l-0.7-0.4L13,7.4l-0.9-0.5l-1.7-1L9.5,5.3L9.5,5.3z"/>
	</g>
</g>
<g id="YHMZe9.tif">
	<g>
		<path class="st4" d="M9.4-124.8c-0.3-0.1-0.5-0.4-0.4-0.7c0-0.2,0-0.4,0-0.6c-0.2,0.2-0.4,0.4-0.6,0.6c-0.1,0.1-0.2,0.2-0.3,0.3
			c-0.2,0.2-0.5,0.2-0.7,0s-0.2-0.5,0-0.7c0.1-0.1,0.2-0.3,0.4-0.4c0.4-0.4,0.8-0.8,1.2-1.2c0,0,0.1-0.1,0.1-0.2c0-0.9,0-1.8,0-2.7
			c0-0.1-0.1-0.2-0.1-0.2c-0.5-0.2-1-0.4-1.4-0.9c-0.7,0.4-1.5,0.8-2.2,1.2c0,0-0.1,0.1-0.1,0.2c-0.2,0.6-0.3,1.3-0.5,1.9
			c-0.1,0.2-0.2,0.4-0.4,0.5c-0.4,0.1-0.7-0.2-0.6-0.6c0.1-0.4,0.2-0.7,0.3-1.1c0,0,0-0.1,0-0.2c-0.2,0.1-0.4,0.2-0.6,0.3
			c-0.2,0.1-0.3,0.2-0.5,0.3c-0.3,0.1-0.6,0-0.7-0.2c-0.1-0.3-0.1-0.5,0.2-0.7s0.6-0.3,1-0.5c-0.4-0.1-0.7-0.2-1.1-0.3
			s-0.5-0.3-0.5-0.7c0.1-0.3,0.4-0.4,0.7-0.4c0.6,0.1,1.2,0.3,1.8,0.4c0.3,0.1,0.5,0,0.7-0.1c0.6-0.4,1.3-0.7,1.9-1
			c-0.1-0.5-0.2-1,0-1.5c-0.6-0.3-1.1-0.6-1.7-0.9c-0.3-0.2-0.5-0.3-0.9-0.1c-0.6,0.2-1.3,0.3-1.9,0.5c-0.3,0.1-0.6-0.1-0.7-0.4
			c-0.1-0.3,0.1-0.6,0.4-0.6c0.3-0.1,0.7-0.2,1-0.2c0.1,0,0.1,0,0.2-0.1c-0.4-0.2-0.7-0.4-1.1-0.6C2.1-136.5,2-136.8,2-137
			c0.1-0.2,0.2-0.4,0.5-0.4c0.1,0,0.2,0,0.3,0.1c0.3,0.2,0.6,0.3,1,0.5c-0.1-0.4-0.2-0.7-0.2-1c0-0.1,0-0.1,0-0.2
			c0-0.3,0.1-0.6,0.4-0.6c0.3-0.1,0.5,0.1,0.6,0.4c0.2,0.6,0.3,1.3,0.5,1.9c0,0.1,0.1,0.2,0.2,0.2c0.7,0.4,1.4,0.8,2.2,1.2l0.1-0.1
			c0.3-0.4,0.7-0.6,1.2-0.8c0.1,0,0.2-0.1,0.2-0.2c0-0.9,0-1.8,0-2.7c0-0.1,0-0.1-0.1-0.2c-0.5-0.5-1-1-1.5-1.5
			c-0.2-0.2-0.3-0.6,0-0.8c0.2-0.2,0.5-0.2,0.8,0c0.3,0.3,0.5,0.5,0.8,0.8c0-0.2,0-0.4,0-0.7c0-0.4,0.2-0.6,0.5-0.6s0.5,0.3,0.5,0.6
			c0,0.2,0,0.4,0,0.6c0,0,0,0,0,0.1c0.3-0.3,0.5-0.5,0.8-0.8c0.2-0.2,0.3-0.2,0.6-0.2c0.2,0.1,0.3,0.2,0.3,0.4s0,0.3-0.1,0.5
			c-0.5,0.5-1,1-1.5,1.5c0,0-0.1,0.1-0.1,0.2c0,1,0,1.9,0,2.9c0.6,0.1,1.1,0.4,1.5,0.9c0.7-0.4,1.5-0.8,2.2-1.2
			c0.1,0,0.1-0.1,0.1-0.2c0.2-0.6,0.3-1.2,0.4-1.9c0.1-0.4,0.3-0.5,0.7-0.5c0.3,0.1,0.4,0.4,0.4,0.7c-0.1,0.4-0.2,0.7-0.3,1.1
			c0.3-0.2,0.6-0.3,0.9-0.5c0.1,0,0.2-0.1,0.3-0.1c0.3-0.1,0.5,0,0.7,0.2c0.1,0.2,0.1,0.5-0.2,0.7c-0.3,0.2-0.6,0.3-0.9,0.5
			c-0.1,0-0.1,0.1-0.3,0.1c0.4,0.1,0.7,0.2,1,0.2c0.3,0.1,0.5,0.2,0.6,0.4c0,0.1,0,0.2,0,0.2c-0.2,0.4-0.4,0.5-0.8,0.4
			c-0.1,0-0.1,0-0.2,0c-0.6-0.2-1.3-0.3-1.9-0.5h-0.1c-0.7,0.4-1.3,0.7-2,1.1c-0.1,0-0.1,0.1-0.1,0.2c0.1,0.4,0.1,0.8,0,1.2
			c0,0.1,0,0.2,0.1,0.2c0.7,0.4,1.3,0.7,2,1.1c0.1,0,0.1,0.1,0.2,0c0.7-0.2,1.3-0.3,2-0.5c0.5-0.1,0.6,0,0.8,0.4c0,0.1,0,0.2,0,0.2
			c-0.1,0.3-0.3,0.4-0.6,0.4c-0.3,0.1-0.6,0.1-0.9,0.2c0.3,0.2,0.7,0.3,0.9,0.5c0.3,0.2,0.4,0.4,0.3,0.7s-0.4,0.4-0.7,0.2
			c-0.1,0-0.1-0.1-0.2-0.1c-0.3-0.2-0.6-0.3-0.9-0.5c0.1,0.4,0.2,0.8,0.3,1.2c0.1,0.3-0.1,0.6-0.4,0.7c-0.3,0.1-0.6-0.1-0.6-0.4
			c-0.2-0.7-0.3-1.4-0.5-2c0-0.1,0-0.1-0.1-0.1c-0.7-0.4-1.5-0.8-2.2-1.2c-0.4,0.5-0.9,0.8-1.5,0.9c0,1,0,1.9,0,2.9
			c0,0.1,0.1,0.1,0.1,0.2c0.5,0.5,1,1,1.5,1.5c0.1,0.1,0.1,0.3,0.1,0.5s-0.2,0.3-0.3,0.4c-0.2,0.1-0.4,0-0.6-0.2
			c-0.3-0.3-0.5-0.5-0.8-0.8c0,0,0,0-0.1,0c0,0.2,0,0.4,0,0.6c0,0.4-0.1,0.6-0.5,0.7C9.5-124.8,9.4-124.8,9.4-124.8z M11-133.2
			c0-0.9-0.7-1.6-1.5-1.6S8-134.1,8-133.3s0.7,1.6,1.5,1.6C10.3-131.6,11-132.3,11-133.2z"/>
	</g>
</g>
<path class="st5" d="M8.8-87.5c-3.1,0-7-2.5-7-6.3c0,0,1,1.8,3,1.8c0,0-2.8-3.8,2-7.2c4.8-3.4,2-7.2,2-7.2s3.1,1.8,2,4.5
	s-0.9,6.7,0,7.5c0,0-0.4-5.6,3-6.6c0,0-1.9,2.9,0,4.5C15.7-95,15.5-87.5,8.8-87.5z"/>
<g>
	<line class="st6" x1="20.8" y1="-66.4" x2="17.8" y2="-62.4"/>
	<line class="st6" x1="16.8" y1="-70.4" x2="8.8" y2="-64.4"/>
	<g>
		<path class="st7" d="M1.9-55.4c-0.3,1.2,0.1,2.4,1,3.2c1,0.8,2.4,0.8,3.5,0.2l0.3,0.7l6-1c0,0-2.7,0-3,0s4-3,4-3
			c-1.3,0.3-3.5,0.7-4.5,0.9l11.5-15.9l-15,10.8v-3.8l-1.7,5L3.7-58l-0.9-4.4L1.9-55.4C1.8-55.4,1.9-55.4,1.9-55.4z M4.8-57.4
			c1.9-0.4,4.2-1.2,5.7-2.7c0.2-0.2,0.3-0.3,0.3-0.3c-0.1,0.1-0.2,0.2-0.3,0.3c-0.7,0.7-2.1,2.6-1.7,4.7c0.5,2.7-3.5,1.8-5,3
			C4.4-54.2,2.9-56.9,4.8-57.4z"/>
		<path class="st7" d="M10.8-60.4c-0.1,0.1-0.2,0.2-0.3,0.3C10.6-60.2,10.8-60.4,10.8-60.4z"/>
	</g>
</g>
<g id="Icons_new_Arranged_Names">
	<g id="_x38_7_Lightning">
		<path id="Rectangle_297_copy" class="st0" d="M5.4-32.7h5.7L7.8-26h4.6l-9.3,9.3L5-23.4H1.8L5.4-32.7z"/>
	</g>
</g>
<g>
	<path class="st0" d="M8.3-165.3c0.6-0.3,1.5-0.8,2.9-1.3c0.1,0,0.2-0.1,0.5-0.2c0.5-0.5,0.9-0.9,1.2-1.1c0.3-0.3,0.6-0.4,0.7-0.4
		c0.2,0,0.3,0.1,0.4,0.2c0.1,0.1,0.1,0.3,0.1,0.5s0,0.5-0.1,0.8c0.4,0.5,0.6,0.8,0.6,1s-0.1,0.3-0.2,0.4c-0.1,0.1-0.3,0.1-0.5,0.1
		c-0.1,0-0.3-0.1-0.5-0.2c-0.2-0.1-0.5-0.3-0.8-0.5c-0.8,0.1-1.9,0.6-3.4,1.3c0.2,0.1,0.3,0.2,0.4,0.2c0.5,0.3,1.1,0.7,1.9,1.2
		c0.1,0.1,0.3,0.2,0.6,0.4c1.6,0.2,2.3,0.6,2.3,1.2c0,0.4-0.4,0.7-1.3,0.8c-0.4,0.5-0.7,0.7-1,0.7s-0.6-0.4-0.9-1.2
		c0-0.1-0.1-0.2-0.1-0.4c-1.2-1-2.3-1.7-3.2-2.2c-1.2,0.7-2.3,1.4-3.3,2.4c-0.1,1-0.4,1.5-0.9,1.5c-0.3,0-0.6-0.3-1-0.8
		c-0.9,0-1.3-0.2-1.3-0.7c0-0.4,0.2-0.6,0.5-0.8s1-0.3,2.1-0.5c0.8-0.6,1.7-1.1,2.8-1.7c-1.4-0.7-2.6-1.2-3.5-1.3
		c-0.2,0.2-0.4,0.3-0.6,0.4c-0.2,0.1-0.3,0.1-0.5,0.1s-0.4,0-0.5-0.1s-0.2-0.2-0.2-0.4s0.2-0.5,0.6-1C2-167.3,2-167.5,2-167.7
		c0-0.3,0.1-0.4,0.2-0.6c0.1-0.1,0.3-0.2,0.4-0.2c0.2,0,0.5,0.1,0.8,0.4c0.3,0.3,0.7,0.6,1.1,1.2C5.7-166.5,6.9-166,8.3-165.3z"/>
	<path class="st0" d="M10.7-169.2l-0.3,1.3l-0.8,0.7c-0.1,0.3-0.3,0.5-0.5,0.6s-0.5,0.2-0.8,0.2c-0.6,0-1.1-0.3-1.3-0.8l-0.8-0.7
		l-0.3-1.3l0.5-0.1c0.1,0.1,0.1,0.2,0.1,0.3c0.2,0.5,0.4,0.8,0.6,0.9c0.2,0.1,0.6,0.2,1.2,0.2s1-0.1,1.3-0.2
		c0.2-0.1,0.5-0.4,0.6-0.9c0-0.1,0.1-0.2,0.1-0.3L10.7-169.2z"/>
	<path class="st0" d="M11.4-177.5c-0.8-0.7-1.9-1.1-3.2-1.1s-2.4,0.4-3.2,1.1c-0.8,0.7-1.2,1.6-1.2,2.8c0,1,0.1,1.7,0.4,2.1
		c0.3,0.6,0.5,1,0.6,1.2l0.2,1.1l1.8,0.9l0.3,0.7c0.2,0.1,0.4,0.1,0.6,0.1s0.5,0,0.7,0c0.6,0,1-0.1,1.3-0.2l0.3-0.7l1.8-0.9l0.2-1.1
		c0-0.2,0.1-0.4,0.1-0.5c0.5-0.9,0.8-1.9,0.8-2.9C12.7-175.8,12.3-176.8,11.4-177.5z M6.3-171.4c-0.7,0-1.1-0.4-1.1-1.2
		c0-0.4,0.1-0.7,0.3-0.9c0.2-0.2,0.5-0.3,0.8-0.3c0.7,0,1,0.4,1,1.1C7.4-171.8,7-171.4,6.3-171.4z M8.6-169.6c-0.1,0-0.2,0-0.3-0.1
		c-0.1,0.1-0.2,0.1-0.3,0.1c-0.2,0-0.3,0-0.4-0.1s-0.1-0.2-0.1-0.3s0.1-0.3,0.3-0.5c0.2-0.2,0.3-0.4,0.5-0.7
		c0.1,0.2,0.3,0.5,0.5,0.7s0.3,0.4,0.3,0.5C9-169.8,8.9-169.6,8.6-169.6z M10.1-171.4c-0.7,0-1.1-0.4-1.1-1.2s0.4-1.2,1.1-1.2
		c0.4,0,0.6,0.1,0.8,0.3s0.3,0.5,0.3,0.8C11.2-171.8,10.8-171.4,10.1-171.4z"/>
</g>
<g>
	<polygon class="st1" points="10.7,47.6 13.1,41.9 7.8,44.6 10,39.6 6.3,43.3 6.3,38.1 1.9,47.6 6.3,57.1 6.3,51.9 10,55.6 
		7.8,50.6 13.1,53.3 	"/>
	<g>
		<path class="st1" d="M13.3,50.8c-2.6,0-8.5-0.7-11.1-2.5l-0.9-0.6l0.9-0.6c2.6-1.8,8.5-2.5,11.1-2.5h7.1v6.3h-7.1
			C13.3,50.9,13.3,50.8,13.3,50.8z"/>
		<path class="st2" d="M19.7,45.2v2.4V50c0,0-3.8,0-6.4,0S5,49.2,2.6,47.6c2.4-1.7,8.1-2.4,10.7-2.4S19.7,45.2,19.7,45.2 M21.2,43.7
			h-1.5h-6.4c-2.7,0-8.8,0.8-11.5,2.7L0,47.6l1.8,1.2c2.7,1.9,8.9,2.7,11.5,2.7h6.4h1.5V50v-2.4v-2.4V43.7L21.2,43.7z"/>
	</g>
</g>
<g>
	<polygon class="st1" points="10.9,127.8 2.5,128.9 8.2,125.2 2,121.1 8.4,121.1 1.9,109.9 10.3,115.4 8.9,111.2 12.2,113.2 
		14.5,110.4 17.2,114.2 19.9,110.7 18.3,126.1 	"/>
	<g>
		<path class="st4" d="M8.6,130.4l-0.1-0.2c-0.3-0.3-0.6-0.7-0.8-1l-0.4-0.5l0.8-0.3c0.2-0.1,0.3-0.1,0.5-0.2
			c1.3-0.3,2.5-0.8,3.9-1.4l0.1-0.1c0-0.1,0.1-0.3,0.1-0.4c-0.4-0.6-0.7-1.4-0.9-2.3c-0.1-0.1-0.1-0.1-0.2-0.1
			c-0.1-0.1-0.2-0.2-0.3-0.4c-0.3-0.6-0.4-1.2-0.5-1.8c0-0.1,0-0.2,0-0.3c0-0.5,0.1-0.8,0.5-1c0-0.2-0.1-0.5-0.1-0.7
			c-0.1-1.2,0.3-2.3,1.2-3.3c0.6-0.7,1.5-1.6,2.9-1.9c0.4-0.1,0.7-0.1,1-0.1c1.1,0,2.1,0.4,3,1.2c0.3,0.3,0.4,0.4,0.7,0.6
			c0.7,0.4,1,1.1,1.1,1.7c0.2,0.9,0.1,1.8,0,2.5c0,0.1,0,0.2-0.1,0.3l0,0c0.2,0.2,0.2,0.5,0.3,0.6c0,0.8-0.2,1.7-0.7,2.5
			c-0.2,0.3-0.4,0.4-0.5,0.5l0,0c-0.1,0.3-0.2,0.6-0.3,0.9c-0.1,0.2-0.2,0.4-0.3,0.6c-0.1,0.1-0.1,0.2-0.2,0.3c0,0,0,0,0,0.1v0.1
			c0.1,0.4,0.2,0.5,0.6,0.7c0.7,0.3,1.4,0.5,2.1,0.7l0.3,0.1v2.5L8.6,130.4L8.6,130.4z"/>
		<path class="st2" d="M16.2,114.9c1,0,1.9,0.3,2.6,1.1c0.3,0.3,0.5,0.5,0.8,0.7c0.5,0.3,0.7,0.8,0.8,1.3c0.2,0.8,0.1,1.6,0,2.4
			c0,0.1,0,0.2,0,0.3c0,0.2-0.1,0.3,0.1,0.5c0.1,0.1,0.1,0.2,0.1,0.3c0,0.8-0.2,1.6-0.6,2.3c-0.1,0.1-0.2,0.3-0.3,0.3h-0.1
			c-0.1,0.4-0.3,0.8-0.4,1.3c-0.1,0.3-0.3,0.5-0.4,0.8c0,0.1-0.1,0.2-0.1,0.3s0,0.2,0,0.2c0.1,0.5,0.4,0.8,0.9,1
			c0.7,0.3,1.4,0.5,2.2,0.7v1.6H8.9c-0.3-0.3-0.5-0.6-0.8-1c0.2-0.1,0.4-0.2,0.6-0.2c1.4-0.3,2.7-0.8,4-1.4c0.1-0.1,0.3-0.2,0.3-0.3
			c0.1-0.2,0.1-0.5,0.2-0.7c0-0.1,0-0.2-0.1-0.2c-0.4-0.6-0.7-1.4-0.8-2.1c0-0.1-0.1-0.2-0.2-0.2c-0.1-0.1-0.3-0.3-0.3-0.4
			c-0.3-0.5-0.4-1.1-0.5-1.7c0-0.1,0-0.1,0-0.2c0-0.4,0.1-0.6,0.5-0.7c-0.1-0.4-0.1-0.7-0.2-1.1c0-1.1,0.3-2.1,1-2.9
			s1.5-1.5,2.6-1.7C15.6,114.9,15.9,114.9,16.2,114.9 M16.2,113.9v1V113.9c-0.4,0-0.8,0-1.1,0.1c-1.5,0.3-2.6,1.3-3.2,2
			c-0.9,1-1.3,2.3-1.3,3.6c0,0.2,0,0.3,0.1,0.5c-0.3,0.3-0.4,0.7-0.4,1.2c0,0.1,0,0.2,0,0.3c0.1,0.7,0.3,1.4,0.6,2
			c0.1,0.2,0.3,0.4,0.4,0.5l0.1,0.1l0,0c0.2,0.8,0.4,1.5,0.8,2.1v0.1c-1.3,0.6-2.5,1-3.6,1.3c-0.2,0-0.4,0.1-0.5,0.2
			c-0.1,0-0.1,0-0.2,0.1l-1.3,0.5l0.8,1.1c0.3,0.4,0.6,0.7,0.9,1.1l0.3,0.3H9h13h1v-1v-1.6v-0.7l-0.7-0.2c-0.7-0.2-1.4-0.5-2.1-0.7
			c-0.2-0.1-0.2-0.1-0.2-0.3l0,0l0.1-0.1c0.1-0.2,0.2-0.4,0.3-0.6c0.1-0.3,0.2-0.5,0.3-0.8c0.2-0.1,0.4-0.3,0.6-0.6
			c0.5-0.9,0.8-1.9,0.7-2.8c0-0.2,0-0.5-0.2-0.8v-0.1c0.1-0.8,0.2-1.8,0-2.8c-0.1-0.6-0.4-1.5-1.4-2c-0.2-0.1-0.3-0.2-0.5-0.4l0,0
			C18.6,114.4,17.5,113.9,16.2,113.9L16.2,113.9z"/>
	</g>
</g>
<g>
	<path class="st2" d="M149.9,54.6c-0.9-0.3-4.1-1.4-5-1.7c-0.7-0.2-1-0.7-1.1-1.3c0-0.1-0.1-0.2-0.1-0.3s0-0.3,0.1-0.4
		c0.2-0.3,0.4-0.7,0.5-1c0.2-0.5,0.3-1.1,0.5-1.6c0.3,0.1,0.5-0.1,0.6-0.3c0.5-0.9,0.8-1.8,0.8-2.9c0-0.1-0.1-0.3-0.2-0.4
		c-0.2-0.2-0.2-0.4-0.1-0.6c0-0.1,0-0.2,0.1-0.4c0.2-1,0.2-2,0-3c-0.1-0.7-0.4-1.4-1.1-1.7c-0.4-0.2-0.7-0.5-1-0.8
		c-1.3-1.3-2.8-1.6-4.5-1.3c-1.4,0.3-2.4,1.1-3.3,2.2c-0.9,1.1-1.4,2.3-1.3,3.7c0,0.4,0.1,0.9,0.2,1.3c-0.5,0.1-0.6,0.3-0.7,0.8
		c0,0.1,0,0.2,0,0.2c0.1,0.7,0.3,1.5,0.6,2.1c0.1,0.2,0.3,0.4,0.4,0.6c0.1,0.1,0.2,0.2,0.2,0.3c0.2,1,0.5,1.9,1.1,2.7
		c0.1,0.3,0.1,0.4,0.1,0.5c-0.1,0.3-0.2,0.6-0.3,0.9c-0.1,0.2-0.2,0.3-0.4,0.4c-1.6,0.7-3.3,1.3-5,1.8c-0.3,0.1-0.5,0.2-0.8,0.3
		c0.3,0.4,0.7,1.4,1,1.7h17.4L149.9,54.6z"/>
	<path class="st4" d="M140.6,36.9c-0.4,0-0.8,0-1.1,0.1c0,0,0,0-0.1,0l0,0l0,0l0,0l0,0l0,0l0,0l0,0l0,0l0,0c-0.1,0-0.3,0.1-0.4,0.1
		l0,0l0,0l0,0l0,0l0,0l0,0l0,0l0,0l0,0l0,0l0,0l0,0l0,0l0,0l0,0l0,0l0,0l0,0l0,0l0,0l0,0l0,0l0,0l0,0l0,0l0,0l0,0l0,0l0,0l0,0l0,0
		l0,0l0,0l0,0l0,0l0,0l0,0l0,0l0,0l0,0l0,0l0,0l0,0l0,0l0,0l0,0l0,0l0,0l0,0l0,0c0,0-0.1,0-0.1,0.1c-0.3,0.1-0.4,0.4-0.3,0.6
		c0.1,0.2,0.3,0.3,0.5,0.3c0.1,0,0.1,0,0.2,0c0.2-0.1,0.4-0.1,0.6-0.2c0.3-0.1,0.7-0.1,1-0.1s0.5-0.2,0.5-0.5
		C141.1,37.1,140.9,36.9,140.6,36.9L140.6,36.9L140.6,36.9z M136.6,38.8c-0.1,0-0.3,0.1-0.4,0.2l0,0l0,0l0,0l0,0l0,0l0,0l0,0l0,0
		l0,0l0,0l0,0l0,0l0,0l0,0l0,0l0,0l0,0l0,0l0,0l-0.1,0.1l0,0l0,0l0,0l0,0l0,0l0,0l0,0l0,0l0,0l0,0l0,0l0,0l0,0l0,0l0,0l0,0l0,0l0,0
		l0,0l0,0l0,0l0,0l0,0l0,0l0,0l0,0l0,0l0,0l0,0l0,0l0,0l0,0l0,0l0,0l0,0l0,0l0,0l0,0l0,0l0,0l0,0l0,0l0,0l0,0l0,0l0,0l0,0l0,0l0,0
		l0,0l0,0l0,0l0,0l0,0l0,0l0,0l0,0l0,0l0,0l0,0l0,0l0,0l0,0l0,0l0,0l0,0l0,0l0,0l0,0l0,0l0,0l0,0l0,0l0,0l0,0l0,0l0,0l0,0l0,0l0,0
		l0,0l0,0l0,0l0,0l0,0l0,0l0,0l0,0l0,0l0,0l0,0l0,0l0,0l0,0l0,0l0,0l0,0l0,0l0,0l0,0l0,0l0,0l0,0l0,0l0,0l0,0l0,0l0,0l0,0l0,0l0,0
		l0,0l0,0l0,0l0,0l0,0l0,0l0,0l0,0l0,0l0,0l0,0l0,0l0,0l0,0l0,0l0,0l0,0l0,0l0,0l0,0l0,0l0,0l0,0l0,0l0,0l0,0l0,0l0,0l0,0l0,0l0,0
		l0,0l0,0l0,0l0,0l0,0l0,0l0,0l0,0l0,0l0,0l0,0l0,0l0,0l0,0l0,0l0,0l0,0l0,0l0,0l0,0l0,0l0,0l0,0l0,0l0,0l0,0l0,0l0,0l0,0l0,0l0,0
		l0,0l0,0l0,0l0,0l0,0l0,0l0,0l0,0l0,0l0,0l0,0l0,0l0,0l0,0l0,0l0,0l0,0l0,0l0,0l0,0l0,0l0,0l0,0l0,0l0,0l0,0l0,0l0,0l0,0l0,0l0,0
		l0,0l0,0l0,0l0,0l0,0l0,0l0,0l0,0l0,0l0,0l0,0l0,0l0,0l0,0l0,0l0,0l0,0l0,0l0,0l0,0l0,0l0,0l0,0l0,0l0,0l0,0l0,0l0,0l0,0l0,0l0,0
		l0,0l0,0l0,0c-0.2,0.3-0.3,0.5-0.4,0.8c-0.1,0.3,0,0.5,0.3,0.7c0.1,0,0.1,0,0.2,0c0.2,0,0.4-0.1,0.5-0.3c0.2-0.4,0.4-0.8,0.8-1.2
		c0.1-0.1,0.1-0.1,0.2-0.2c0.2-0.2,0.2-0.5,0-0.7C136.9,38.8,136.8,38.8,136.6,38.8L136.6,38.8z M135.3,43L135.3,43
		c-0.4,0.1-0.5,0.3-0.5,0.6l0,0l0,0l0,0c0,0.1,0,0.2,0.1,0.3l0,0l0,0l0,0l0,0l0,0l0,0l0,0l0,0V44l0,0l0,0l0,0l0,0l0,0l0,0l0,0l0,0
		l0,0l0,0l0,0l0,0l0,0l0,0l0,0l0,0l0,0l0,0l0,0l0,0l0,0l0,0l0,0l0,0l0,0l0,0l0,0l0,0l0,0l0,0l0,0l0,0l0,0l0,0l0,0l0,0l0,0l0,0l0,0
		l0,0l0,0l0,0l0,0l0,0l0,0l0,0l0,0l0,0l0,0l0,0l0,0l0,0l0,0l0,0c-0.1,0-0.2,0-0.2,0.1l0,0l0,0l0,0l0,0l0,0l0,0l0,0l0,0l0,0l0,0l0,0
		l0,0c-0.1,0.1-0.2,0.1-0.3,0.2l0,0l0,0l0,0l0,0l0,0l0,0l0,0l0,0l0,0l0,0l0,0l0,0l0,0l0,0l0,0l0,0l0,0l0,0l0,0l0,0l0,0l0,0l0,0l0,0
		l0,0l0,0l0,0l0,0l0,0l0,0l0,0l0,0l0,0l0,0l0,0l0,0l0,0l0,0l0,0l0,0l0,0l0,0l0,0l0,0l0,0l0,0l0,0l0,0l0,0l0,0l0,0l0,0l0,0l0,0l0,0
		l0,0l0,0l0,0l0,0l0,0l0,0l0,0l0,0l0,0l0,0l0,0l0,0l0,0l0,0l0,0l0,0l0,0l0,0l0,0l0,0l0,0l0,0l0,0l0,0l0,0l0,0l0,0l0,0l0,0l0,0l0,0
		l0,0l0,0l0,0l0,0l0,0l0,0l0,0l0,0l0,0l0,0l0,0l0,0l0,0l0,0l0,0l0,0l0,0l0,0l0,0l0,0l0,0l0,0c0,0.1,0,0.1,0,0.2l0,0l0,0l0,0l0,0l0,0
		l0,0l0,0l0,0l0,0l0,0l0,0l0,0l0,0l0,0l0,0l0,0l0,0l0,0l0,0l0,0l0,0l0,0l0,0l0,0v0.1l0,0l0,0l0,0l0,0l0,0l0,0l0,0l0,0l0,0l0,0
		c0,0.1,0,0.1,0,0.2c0,0.3,0.2,0.5,0.5,0.5l0,0c0.3,0,0.5-0.3,0.5-0.5l0,0c0.4-0.2,0.7-0.6,0.6-1.1c0-0.2-0.1-0.3-0.1-0.5V43
		C135.8,43.1,135.6,43,135.3,43L135.3,43z M135.8,47.2c-0.1,0-0.2,0-0.3,0.1c-0.2,0.2-0.3,0.5-0.1,0.7l0,0l0.1,0.1
		c0,0.1,0.1,0.1,0.1,0.2l0,0l0,0l0,0l0,0l0,0l0,0l0,0l0,0l0,0l0,0l0,0l0,0l0,0l0,0l0,0l0,0l0,0l0,0l0,0l0,0l0,0l0,0l0,0l0,0l0,0l0,0
		l0,0l0,0l0,0l0,0l0,0l0,0l0,0l0,0l0,0l0,0l0,0l0,0l0,0l0,0l0,0l0,0l0,0l0,0l0,0l0,0l0,0l0,0l0,0l0,0l0,0l0,0l0,0
		c0.2,0.4,0.2,0.7,0.3,0.9l0,0l0,0l0,0l0,0l0,0l0,0l0,0l0,0l0,0l0,0l0,0l0,0l0,0l0,0l0,0l0,0l0,0l0,0l0,0l0,0l0,0l0,0l0,0l0,0l0,0
		l0,0l0,0l0,0l0,0l0,0l0,0l0,0l0,0l0,0l0,0l0,0l0,0l0,0l0,0l0,0l0,0l0,0l0,0l0,0l0,0l0,0l0,0l0,0l0,0l0,0l0,0l0,0l0,0l0,0l0,0l0,0
		l0,0l0,0l0,0l0,0l0,0l0,0l0,0l0,0l0,0l0,0l0,0l0,0l0,0l0,0l0,0l0,0l0,0l0,0l0,0l0,0l0,0l0,0l0,0l0,0l0,0l0,0l0,0l0,0l0,0l0,0l0,0
		l0,0l0,0l0,0l0,0l0,0l0,0l0,0l0,0l0,0l0,0l0,0l0,0l0,0l0,0l0,0l0,0l0,0l0,0l0,0l0,0l0,0l0,0l0,0l0,0l0,0l0,0l0,0l0,0l0,0l0,0l0,0
		l0,0l0,0l0,0l0,0l0,0l0,0l0,0l0,0l0,0l0,0l0,0l0,0l0,0l0,0l0,0l0,0l0,0l0,0l0,0l0,0l0,0l0,0l0,0l0,0l0,0l0,0l0,0l0,0l0,0l0,0l0,0
		l0,0l0,0l0,0l0,0l0,0l0,0c0.1,0.2,0.3,0.3,0.5,0.3c0.1,0,0.1,0,0.2,0c0.3-0.1,0.4-0.4,0.3-0.7c-0.2-0.4-0.3-0.8-0.4-1.3
		c-0.1-0.3-0.2-0.6-0.4-0.7l0,0C136.1,47.2,135.9,47.2,135.8,47.2L135.8,47.2z M136.4,52.4c-0.1,0-0.2,0-0.3,0.1l0,0l0,0l0,0l0,0
		l0,0l0,0l0,0l0,0l0,0l0,0l0,0l0,0l0,0l0,0l0,0l0,0l0,0l0,0l0,0l0,0l0,0l0,0l0,0l0,0l0,0l0,0l0,0l0,0l0,0l0,0l0,0l0,0l0,0l0,0l0,0
		l0,0l0,0l0,0l0,0l0,0l0,0l0,0l0,0l0,0l0,0l0,0l0,0l0,0l0,0l0,0l0,0l0,0l0,0l0,0l0,0l0,0l0,0l0,0l0,0l0,0l0,0l0,0l0,0l0,0l0,0l0,0
		l0,0l0,0l0,0l0,0l0,0l0,0l0,0l0,0l0,0l0,0l0,0l0,0l0,0l0,0l0,0l0,0l0,0l0,0l0,0l0,0l0,0l0,0l0,0l0,0l0,0l0,0l0,0l0,0l0,0l0,0l0,0
		l0,0l0,0l0,0c-0.5,0.2-0.9,0.4-1.4,0.6c-0.3,0.1-0.4,0.4-0.3,0.6c0.1,0.2,0.3,0.3,0.5,0.3c0.1,0,0.1,0,0.2,0
		c0.6-0.2,1.2-0.5,1.8-0.7c0.1,0,0.1-0.1,0.2-0.1c0.2-0.1,0.3-0.4,0.2-0.7C136.8,52.5,136.6,52.4,136.4,52.4L136.4,52.4z
		 M131.6,54.2L131.6,54.2c-0.2,0-0.3,0-0.4,0.1l0,0c-0.1,0-0.1,0-0.2,0c-0.3,0.1-0.5,0.2-0.8,0.3l0,0c0.2,0.2,0.3,0.6,0.5,0.9h0.1
		c0.1,0,0.1,0,0.2,0c0.1,0,0.2,0,0.2-0.1c0.1,0,0.2-0.1,0.2-0.2c0.1,0,0.2,0,0.3-0.1c0.3-0.1,0.4-0.3,0.4-0.6
		C132.1,54.3,131.8,54.2,131.6,54.2L131.6,54.2z M135.1,55.4h-2c-0.3,0-0.5,0.2-0.5,0.5s0.2,0.5,0.5,0.5l0,0c0,0,0.7,0,1.2,0h0.8
		c0.3,0,0.5-0.2,0.5-0.5S135.3,55.4,135.1,55.4L135.1,55.4z M140.1,55.4h-2c-0.3,0-0.5,0.2-0.5,0.5s0.2,0.5,0.5,0.5h2
		c0.3,0,0.5-0.2,0.5-0.5S140.3,55.4,140.1,55.4L140.1,55.4z M145.1,55.4h-2c-0.3,0-0.5,0.2-0.5,0.5s0.2,0.5,0.5,0.5h0.3
		c0.5,0,1.7,0,1.7,0c0.3,0,0.5-0.2,0.5-0.5S145.3,55.4,145.1,55.4L145.1,55.4z M149,54.5c-0.2,0-0.3,0.1-0.4,0.2l-0.5,0.7h-0.2
		c-0.3,0-0.5,0.2-0.5,0.5s0.2,0.5,0.5,0.5h0.7l0,0l0,0l0,0l0,0l0,0l0,0l0,0l0,0l0,0l0,0l0,0l0,0l0,0l0,0l0,0l0,0l0,0l0,0l0,0l0,0
		l0,0l0,0l0,0l0,0l0,0l0.7-1c0.2-0.2,0.1-0.5-0.1-0.7C149.3,54.5,149.1,54.5,149,54.5L149,54.5z M145.8,53.2c-0.2,0-0.4,0.1-0.5,0.3
		c-0.1,0.3,0,0.5,0.3,0.6c0.6,0.2,1.2,0.4,1.9,0.7c0.1,0,0.1,0,0.2,0c0.2,0,0.4-0.1,0.5-0.3c0.1-0.3,0-0.5-0.3-0.6
		c-0.6-0.2-1.3-0.5-1.9-0.7C145.9,53.2,145.9,53.2,145.8,53.2L145.8,53.2z M143.8,51.5l-1,0.2L143.8,51.5L143.8,51.5L143.8,51.5z
		 M143.8,51.5L143.8,51.5L143.8,51.5L143.8,51.5L143.8,51.5z M143.8,51.5L143.8,51.5L143.8,51.5L143.8,51.5z M143.8,51.5L143.8,51.5
		L143.8,51.5L143.8,51.5z M143.8,51.5L143.8,51.5L143.8,51.5L143.8,51.5z M143.8,51.5L143.8,51.5L143.8,51.5L143.8,51.5z
		 M143.8,51.5L143.8,51.5L143.8,51.5L143.8,51.5z M143.8,51.5L143.8,51.5L143.8,51.5L143.8,51.5z M143.8,51.5L143.8,51.5L143.8,51.5
		L143.8,51.5z M143.8,51.5L143.8,51.5L143.8,51.5L143.8,51.5z M143.8,51.5L143.8,51.5L143.8,51.5L143.8,51.5z M143.8,51.5
		L143.8,51.5L143.8,51.5L143.8,51.5z M143.8,51.5L143.8,51.5L143.8,51.5L143.8,51.5z M143.8,51.5L143.8,51.5L143.8,51.5L143.8,51.5z
		 M143.8,51.5L143.8,51.5L143.8,51.5L143.8,51.5z M143.8,51.5L143.8,51.5L143.8,51.5L143.8,51.5z M143.6,51.5L143.6,51.5L143.6,51.5
		L143.6,51.5z M143.6,51.5L143.6,51.5L143.6,51.5L143.6,51.5z M143.6,51.6L143.6,51.6L143.6,51.6L143.6,51.6z M143.6,51.6
		L143.6,51.6L143.6,51.6L143.6,51.6z M143.6,51.6L143.6,51.6L143.6,51.6L143.6,51.6z M143.6,51.6L143.6,51.6L143.6,51.6L143.6,51.6z
		 M143.6,51.6L143.6,51.6L143.6,51.6L143.6,51.6z M143.6,51.6L143.6,51.6L143.6,51.6L143.6,51.6z M143.6,51.6L143.6,51.6L143.6,51.6
		L143.6,51.6z M143.6,51.6L143.6,51.6L143.6,51.6L143.6,51.6z M143.6,51.6L143.6,51.6L143.6,51.6L143.6,51.6z M143.6,51.6
		L143.6,51.6L143.6,51.6L143.6,51.6z M143.6,51.6L143.6,51.6L143.6,51.6L143.6,51.6z M143.6,51.6L143.6,51.6L143.6,51.6L143.6,51.6z
		 M143.6,51.6L143.6,51.6L143.6,51.6L143.6,51.6z M143.6,51.6L143.6,51.6L143.6,51.6L143.6,51.6z M143.6,51.6L143.6,51.6L143.6,51.6
		L143.6,51.6z M143.6,51.6L143.6,51.6L143.6,51.6L143.6,51.6z M143.6,51.6L143.6,51.6L143.6,51.6L143.6,51.6z M143.6,51.6
		L143.6,51.6L143.6,51.6L143.6,51.6z M143.6,51.6L143.6,51.6L143.6,51.6L143.6,51.6z M143.6,51.6L143.6,51.6L143.6,51.6L143.6,51.6z
		 M143.6,51.6L143.6,51.6L143.6,51.6L143.6,51.6z M143.6,51.6L143.6,51.6L143.6,51.6L143.6,51.6z M143.6,51.6L143.6,51.6L143.6,51.6
		L143.6,51.6z M143.6,51.6L143.6,51.6L143.6,51.6L143.6,51.6z M143.6,51.6L143.6,51.6L143.6,51.6L143.6,51.6z M143.6,51.6
		L143.6,51.6L143.6,51.6L143.6,51.6z M143.4,51.6L143.4,51.6L143.4,51.6L143.4,51.6z M143.4,51.6L143.4,51.6L143.4,51.6L143.4,51.6z
		 M143.4,51.6L143.4,51.6L143.4,51.6L143.4,51.6z M143.4,51.6L143.4,51.6L143.4,51.6L143.4,51.6z M143.4,51.6L143.4,51.6L143.4,51.6
		L143.4,51.6z M143.4,51.6L143.4,51.6L143.4,51.6L143.4,51.6z M143.4,51.6L143.4,51.6L143.4,51.6L143.4,51.6z M143.4,51.6
		L143.4,51.6L143.4,51.6L143.4,51.6z M143.4,51.6L143.4,51.6L143.4,51.6L143.4,51.6z M143.4,51.6C143.3,51.6,143.3,51.6,143.4,51.6
		L143.4,51.6L143.4,51.6z M143.3,51.6c-0.2,0-0.4,0.1-0.5,0.1L143.3,51.6L143.3,51.6z M142.8,51.8c-0.1,0-0.2,0.1-0.2,0.1
		L142.8,51.8L142.8,51.8L142.8,51.8z M144.1,49c-0.2,0-0.4,0.1-0.5,0.3c0,0.1,0,0.1-0.1,0.2c-0.1,0.1-0.2,0.3-0.3,0.5
		c-0.1,0.1-0.2,0.3-0.2,0.4c-0.1,0.2-0.2,0.5-0.2,0.8c0,0.2,0,0.4,0.1,0.5l1-0.3v-0.1l0,0l0,0l0,0l0,0l0,0l0,0l0,0l0,0l0,0l0,0l0,0
		l0,0l0,0l0,0l0,0l0,0l0,0l0,0l0,0l0,0l0,0l0,0l0,0l0,0l0,0l0,0l0,0l0,0l0,0l0,0l0,0l0,0l0,0l0,0l0,0l0,0l0,0l0,0l0,0l0,0l0,0l0,0
		l0,0l0,0l0,0l0,0l0,0l0,0l0,0l0,0l0,0l0,0l0,0l0,0l0,0l0,0l0,0l0,0l0,0l0,0l0,0l0,0c0-0.1,0-0.3,0.1-0.4l0,0l0,0l0,0l0,0l0,0l0,0
		l0,0l0,0l0,0l0,0l0,0l0,0l0,0l0,0l0,0l0,0l0,0l0,0l0,0l0,0l0,0l0,0l0,0l0,0l0,0l0,0l0,0l0,0l0,0l0,0l0,0l0,0l0,0l0,0l0,0l0,0l0,0
		l0,0l0,0l0,0l0,0l0,0l0,0l0,0l0,0l0,0l0,0l0,0l0,0l0,0l0,0l0,0l0,0l0,0l0,0l0,0l0,0l0,0l0,0l0,0l0,0l0,0l0,0l0,0l0,0l0,0l0,0l0,0
		l0,0l0,0l0,0l0,0l0,0l0,0l0,0l0,0l0,0l0,0l0,0l0,0l0,0l0,0l0,0l0,0l0,0l0,0l0,0l0,0l0,0l0,0l0,0l0,0l0,0l0,0l0,0l0,0l0,0l0,0l0,0
		l0,0l0,0l0,0l0,0l0,0l0,0l0,0l0,0l0,0l0,0l0,0l0,0l0,0l0,0l0,0l0,0l0,0l0,0l0,0l0,0l0,0l0,0l0,0l0,0l0,0l0,0l0,0l0,0l0,0
		c0,0,0,0,0-0.1s0.1-0.2,0.1-0.2l0,0l0,0l0,0l0,0l0,0l0,0l0,0l0,0l0,0l0,0l0,0l0,0l0,0l0,0l0,0l0,0l0,0l0,0l0,0l0,0l0,0l0,0l0,0l0,0
		l0,0l0,0l0,0l0,0l0,0l0,0l0,0l0,0l0,0l0,0l0,0l0,0l0,0l0,0l0,0l0,0l0,0l0,0l0,0l0,0c0-0.1,0.1-0.2,0.1-0.2l0,0l0,0l0,0l0,0l0,0l0,0
		l0,0l0,0l0,0l0,0l0,0v-0.1l0,0l0,0l0,0l0,0l0,0l0,0v-0.1c0.1-0.3,0-0.5-0.3-0.6C144.1,49,144.1,49,144.1,49L144.1,49z M145.8,44.8
		c-0.3,0-0.5,0.2-0.5,0.5c0,0.5-0.1,1-0.3,1.6c-0.1,0.3,0,0.5,0.3,0.7c0.1,0,0.1,0,0.2,0c0.2,0,0.4-0.1,0.5-0.3
		c0.1-0.3,0.3-0.7,0.3-1.1l0,0l0,0l0,0l0,0l0,0l0,0l0,0l0,0l0,0l0,0l0,0l0,0l0,0l0,0l0,0l0,0l0,0l0,0l0,0l0,0l0,0l0,0l0,0l0,0l0,0
		l0,0l0,0l0,0l0,0l0,0l0,0l0,0l0,0l0,0l0,0l0,0l0,0l0,0l0,0l0,0l0,0l0,0l0,0l0,0l0,0l0,0l0,0l0,0l0,0l0,0l0,0l0,0l0,0l0,0l0,0l0,0
		l0,0l0,0l0,0l0,0l0,0l0,0l0,0l0,0l0,0l0,0l0,0l0,0l0,0l0,0l0,0l0,0l0,0l0,0l0,0l0,0l0,0l0,0l0,0l0,0l0,0l0,0l0,0l0,0l0,0l0,0l0,0
		l0,0l0,0l0,0l0,0l0,0l0,0l0,0l0,0l0,0l0,0l0,0l0,0l0,0l0,0l0,0l0,0l0,0l0,0l0,0l0,0l0,0l0,0l0,0l0,0l0,0l0,0l0,0l0,0l0,0l0,0l0,0
		l0,0l0,0l0,0l0,0l0,0l0,0l0,0l0,0l0,0l0,0l0,0l0,0l0,0l0,0l0,0l0,0l0,0l0,0l0,0l0,0l0,0l0,0l0,0l0,0l0,0l0,0l0,0l0,0l0,0l0,0l0,0
		l0,0l0,0l0,0l0,0l0,0l0,0l0,0l0,0l0,0l0,0l0,0l0,0l0,0l0,0l0,0l0,0l0,0l0,0l0,0l0,0l0,0l0,0l0,0l0,0l0,0l0,0l0,0l0,0l0,0l0,0l0,0
		l0,0l0,0l0,0l0,0l0,0l0,0l0,0l0,0l0,0l0,0l0,0l0,0l0,0l0,0l0,0l0,0l0,0l0,0l0,0l0,0l0,0l0,0l0,0l0,0l0,0l0,0l0,0l0,0l0,0l0,0l0,0
		l0,0l0,0l0,0l0,0l0,0l0,0l0,0l0,0l0,0l0,0l0,0l0,0l0,0l0,0l0,0l0,0l0,0l0,0l0,0l0,0l0,0l0,0l0,0l0,0l0,0l0,0l0,0l0,0l0,0l0,0l0,0
		l0,0l0,0l0,0l0,0l0,0l0,0l0,0l0,0l0,0l0,0l0,0l0,0l0,0l0,0l0,0l0,0l0,0l0,0l0,0l0,0l0,0l0,0l0,0l0,0l0,0l0,0l0,0l0,0l0,0
		C146.3,45,146.1,44.8,145.8,44.8L145.8,44.8L145.8,44.8z M145.6,40.1h-0.1c-0.3,0.1-0.4,0.3-0.4,0.6c0,0.1,0,0.2,0.1,0.2
		c0.1,0.4,0.1,0.9,0.1,1.4c0,0.3,0.2,0.5,0.5,0.5l0,0c0.3,0,0.5-0.2,0.5-0.5c0-0.2,0-0.3,0-0.5l0,0l0,0l0,0l0,0l0,0l0,0l0,0l0,0l0,0
		l0,0l0,0l0,0l0,0l0,0l0,0l0,0l0,0l0,0l0,0l0,0l0,0l0,0l0,0l0,0l0,0l0,0l0,0c0-0.2,0-0.5-0.1-0.7l0,0l0,0l0,0l0,0l0,0l0,0l0,0l0,0
		l0,0l0,0l0,0l0,0l0,0l0,0l0,0l0,0l0,0l0,0l0,0l0,0l0,0l0,0l0,0l0,0l0,0l0,0l0,0l0,0l0,0l0,0l0,0l0,0l0,0l0,0l0,0l0,0l0,0l0,0l0,0
		l0,0l0,0l0,0l0,0l0,0l0,0l0,0l0,0l0,0l0,0l0,0l0,0l0,0l0,0l0,0l0,0l0,0l0,0l0,0l0,0l0,0l0,0l0,0l0,0l0,0l0,0l0,0l0,0l0,0l0,0l0,0
		l0,0l0,0l0,0l0,0l0,0l0,0l0,0l0,0c0-0.1,0-0.1-0.1-0.2C145.9,40.2,145.8,40.1,145.6,40.1L145.6,40.1z M142.3,37.2
		c-0.2,0-0.4,0.1-0.5,0.3c-0.1,0.3,0,0.5,0.3,0.7c0.4,0.2,0.9,0.5,1.2,0.8l0,0l0,0c0.1,0.1,0.2,0.1,0.4,0.1c0.1,0,0.3,0,0.3-0.1
		c0.2-0.2,0.2-0.5,0-0.7l0,0l0,0l0,0l0,0l0,0l0,0l0,0l0,0l0,0l0,0l0,0l0,0l0,0l0,0l0,0l0,0l0,0c-0.5-0.5-1-0.8-1.5-1
		C142.3,37.2,142.3,37.2,142.3,37.2L142.3,37.2z"/>
</g>
<g>
	<path class="st0" d="M11.1,165.2l0.3-1.7c1.7-0.1,3.3-0.7,4.6-1.8l4.8,3.8l-3.9-4.7c1.1-1.4,1.7-3,1.7-4.7l1.9-0.3l-1.9-0.3
		c-0.1-1.6-0.7-3.1-1.8-4.4l4-4.7l-4.8,3.8c-1.3-1.1-2.9-1.7-4.5-1.8l-0.3-2l-0.3,2h-0.1h0.1l-0.7,4.4c-0.3,0.1-0.5,0.2-0.8,0.4
		l-3.6-2.9l2.8,3.6c-0.2,0.2-0.3,0.5-0.4,0.8l-6.5,1l1.8,0.3c0,1.7,0.6,3.4,1.8,4.8l-3.6,4.6l1-1l3.4-2.8c1.3,1.2,3,1.7,4.7,1.8
		L11.1,165.2L11.1,165.2z M10.4,162.2c-1.7,0-3.5-0.7-4.8-2c-1.1-1.1-1.8-2.6-2-4.1l4.6,0.7c0.1,0.3,0.2,0.5,0.4,0.8l-1,1.8l1.7-1
		c0.3,0.2,0.5,0.3,0.8,0.4l0.5,3.4C10.6,162.2,10.5,162.2,10.4,162.2L10.4,162.2z M11.6,162.1l0.5-3.3c0.3-0.1,0.5-0.2,0.8-0.4
		l1.7,1l-1-1.7c0.2-0.2,0.3-0.5,0.4-0.8l3.2-0.5c-0.2,1.4-0.8,2.8-1.9,3.8C14.2,161.3,12.9,161.9,11.6,162.1L11.6,162.1z
		 M17.2,155.4l-3.2-0.5c-0.1-0.3-0.2-0.5-0.4-0.8l1-1.8l-1.8,1c-0.2-0.2-0.5-0.3-0.7-0.4l-0.7-4.4c1.4,0.2,2.7,0.9,3.8,1.9
		C16.6,151.9,17.2,153.7,17.2,155.4L17.2,155.4z"/>
</g>
<g>
	<path class="st0" d="M1.9,189.7c0,0,7.6,3.3,14.2,5.9l1-2.3l1.1,0.4l-1.6,2.9l4.3,2.4l-0.5,1.1l-4.2-2.2l-1.4,2.8l-1.3-0.4l1-1.9
		C14.4,198.4,5.2,193.3,1.9,189.7z"/>
	<path class="st0" d="M4.8,188.7c0,0,4-5,11-5c0,0-6.4,0.9-9,6L4.8,188.7z"/>
	<path class="st0" d="M8.8,190.2c0,0,2.2-2.7,6-2.7c0,0-3.5,0.5-4.9,3.3L8.8,190.2z"/>
	<path class="st0" d="M11.8,191.6c0,0,1.5-1.9,4.2-1.9c0,0-2.4,0.4-3.4,2.3L11.8,191.6z"/>
</g>
<g>
	<g>
		<path class="st4" d="M18.8,226.5c0,0.2,0,0.4,0,0.6c0,0.1,0,0.2-0.1,0.3c-0.3,1.5-1.8,2.5-3.3,2.2c-0.3,0-0.6-0.1-0.9-0.2
			c-0.9,1.6-3.1,1.8-4.4,0.6l0,0c0,0,0,0-0.1,0.1c-0.5,0.4-1,0.8-1.6,0.9c-0.3,0.1-0.5,0.1-0.8,0.1c-0.1,0-0.2,0-0.3,0H7.2
			c-1.1-0.1-2-0.6-2.7-1.4c0,0-0.1-0.1-0.2-0.1c-1.1,0.2-2.1-0.5-2.5-1.6c0-0.1-0.1-0.2-0.1-0.4s0-0.4,0-0.6c0,0,0,0,0-0.1
			c0.1-0.9,0.8-1.6,1.7-1.8c0.2,0,0.3-0.1,0.5-0.1c0.1-0.9,0.6-1.6,1.4-2c0.8-0.5,1.6-0.5,2.4-0.2c0.7-2.1,2.7-3.4,4.9-3.1
			c2,0.3,3.6,1.9,3.7,4.1h0.1c1.1,0.3,1.7,1,2,2.1C18.8,226.3,18.8,226.4,18.8,226.5z"/>
	</g>
	<polygon class="st4" points="3.4,231.2 1.9,235.9 4.4,232.1 	"/>
	<polygon class="st4" points="7.2,232.5 6.8,236.8 8.9,232.5 	"/>
	<polygon class="st4" points="12.6,232.3 13.4,236.6 13.9,232.1 	"/>
	<polygon class="st4" points="16.3,231.4 19.8,236.8 17.6,230.8 	"/>
</g>
<g>
	<path class="st1" d="M145.8-213.7l3.5-3.5l-1.4-1.4l-3.9,3.9c-1.2-0.5-2.6-0.8-4.1-0.8c-4.4,0-7.9,2.6-9.6,6.4
		c0.8,1.8,2,3.4,3.6,4.5l-3.1,3.1l1.4,1.4l3.5-3.5c1.3,0.6,2.7,0.9,4.2,0.9c4.4,0,7.9-2.6,9.6-6.4
		C148.6-211,147.3-212.6,145.8-213.7z M132.1-209.1c1.4-2.9,4.4-4.9,7.8-4.9c1,0,2,0.2,2.9,0.5l-7.7,7.8
		C133.8-206.6,132.6-207.7,132.1-209.1z M139.8-204.2c-1.1,0-2.1-0.2-3-0.5l1.7-1.7c0.4,0.2,0.9,0.3,1.4,0.3c1.9,0,3.4-1.5,3.4-3.4
		c0-0.5-0.1-1-0.3-1.5l1.6-1.6c1.3,0.9,2.4,2.1,3.1,3.5C146.3-206.2,143.3-204.2,139.8-204.2z"/>
</g>
<g>
	<path class="st8" d="M141.6-101.1c-0.6-1.1-2.2-1.3-3-0.4c-0.6,0.6-0.7,1.4-0.2,2c0.2,0.3,0.5,0.6,0.8,0.9L141.6-101.1L141.6-101.1
		z"/>
	<path class="st8" d="M137.9-88.9c1.2,0.3,2.2-0.1,2.8-1.1c0.3-0.5,0.5-1.1,0.7-1.6c0.5-1.6,1.3-3.1,2.3-4.4
		c0.7-0.9,1.3-1.9,1.5-3.1l-9,9C136.6-89.5,137.1-89,137.9-88.9z"/>
	<path class="st4" d="M144.8-104.6c-0.8-0.8-1.7-1.3-2.9-1.6c-0.5-0.1-0.9-0.2-1.4-0.3h-0.7c-0.6,0.1-1.2,0.2-1.8,0.3
		c-2,0.5-3.7,2.4-3.8,4.1c0,0.4,0,0.7,0.4,0.7s0.5-0.2,0.6-0.6c0.4-1.7,1.3-2.9,3-3.2c0.8-0.2,1.7-0.2,2.5-0.2
		c1.2,0.1,2.2,0.6,3,1.3C144.3-104.2,144.6-104.4,144.8-104.6z"/>
	<path class="st4" d="M145.6-99.1c-0.1,0.1-0.2,0.2-0.3,0.3c-0.3,1-0.8,2-1.4,2.8c-1,1.4-1.8,2.8-2.3,4.4c-0.2,0.6-0.4,1.1-0.7,1.6
		c-0.6,1-1.6,1.4-2.8,1.1c-0.6-0.1-1-0.4-1.3-0.8c-0.3,0.2-0.6,0.5-0.9,0.7c0.4,0.5,1,0.9,1.7,1.1c1.5,0.4,2.9,0.2,3.8-1.1
		c0.5-0.6,0.9-1.4,1.1-2.2c0.6-1.6,1.3-3,2.3-4.3c0.4-0.6,0.8-1.2,1.1-1.8c0.4-0.8,0.6-1.7,0.7-2.5
		C146.3-99.5,145.9-99.3,145.6-99.1z"/>
	<path class="st4" d="M138.6-101.5c0.7-0.7,1.9-0.7,2.6-0.1c0.3-0.2,0.6-0.4,0.9-0.6c-0.2-0.2-0.5-0.4-0.8-0.6
		c-1.2-0.6-2.7-0.3-3.7,0.7c-0.8,0.9-1.1,2.8-0.1,3.7c0,0,0,0,0.1,0.1c0.3-0.3,0.7-0.6,1-0.9c-0.1-0.1-0.1-0.2-0.2-0.2
		C137.9-100.1,138.1-101,138.6-101.5z"/>
	<path class="st4" d="M142.8-100.8c0.1,0.3,0.1,0.7,0,1.1c-0.1,0.6-0.3,1.3-0.6,1.8c-0.1,0.3-0.5,0.5-0.8,0.7
		c-0.1,0-0.1-0.1-0.2-0.1c0.1-0.4,0.2-0.8,0.4-1.2c0.3-0.5,0.4-1,0.3-1.5l-2.1,2.1c0.4,0.5,0.5,1.1,0.3,1.8
		c-0.1,0.4-0.2,0.7-0.4,1.1l5.7-5.6c-0.1-0.8-0.3-1.5-0.6-2.2L142.8-100.8z"/>
	<path class="st4" d="M150.6-105.8l-1.4-1.4l-3.6,3.6c0.4,0.6,0.7,1.3,0.8,2L150.6-105.8z"/>
	<path class="st4" d="M137.1-93.5c-0.4-0.4-0.5-0.9-0.3-1.4l-6.5,6.5l1.4,1.4l3.4-3.4c0-0.1-0.1-0.3-0.1-0.4c0-0.2-0.1-0.4,0-0.5
		c0.1-0.2,0.4-0.4,0.6-0.4c0.1,0,0.3,0.2,0.5,0.4l1.9-1.9C137.6-93.2,137.3-93.2,137.1-93.5z"/>
	<path class="st4" d="M135.6-91.7c-0.2,0-0.4,0.2-0.6,0.4c-0.1,0.1,0,0.3,0,0.5c0,0.1,0,0.3,0.1,0.4l0.9-0.9
		C135.9-91.5,135.8-91.7,135.6-91.7z"/>
	<path class="st4" d="M145.4-100.7l1-1c-0.2-0.7-0.4-1.4-0.8-2l-0.8,0.8C145.3-102.2,145.4-101.5,145.4-100.7z"/>
	<path class="st4" d="M137.1-93.5c0.3,0.2,0.6,0.3,0.9,0.3l1.9-1.9c0.1-0.3,0.3-0.7,0.4-1.1c0.2-0.7,0-1.3-0.3-1.8l-3.2,3.2
		C136.6-94.4,136.6-93.9,137.1-93.5z"/>
	<path class="st4" d="M141.6-98.5c-0.2,0.4-0.3,0.8-0.4,1.2c0.1,0,0.1,0.1,0.2,0.1c0.3-0.2,0.6-0.4,0.8-0.7c0.3-0.6,0.5-1.2,0.6-1.8
		c0.1-0.4,0-0.7,0-1.1l-0.9,0.9C142.1-99.5,141.9-99,141.6-98.5z"/>
	<path class="st2" d="M144.8-102.9l0.8-0.8c-0.2-0.3-0.4-0.6-0.6-0.8l-0.8,0.8C144.4-103.4,144.6-103.1,144.8-102.9z"/>
</g>
<text transform="matrix(1 0 0 1 227.7574 14.9168)" class="st0" style="font-family:'Roboto-Regular'; font-size:12px;">Upvote/Downvote</text>
<g>
	<g>
		<path class="st0" d="M16.8,89.9l-0.4,1.8l-1.1,0.9c-0.2,0.4-0.4,0.6-0.8,0.8c-0.3,0.2-0.7,0.3-1.1,0.3c-0.9,0-1.5-0.4-1.9-1.1
			l-1.1-0.9L10,89.9l0.6-0.2c0.1,0.2,0.1,0.3,0.2,0.4c0.3,0.6,0.6,1,0.9,1.3c0.3,0.2,0.9,0.3,1.6,0.3c0.9,0,1.4-0.1,1.8-0.3
			c0.3-0.2,0.6-0.6,0.9-1.3c0-0.1,0.1-0.2,0.2-0.4L16.8,89.9z"/>
		<path class="st0" d="M17.9,76.9c-1.2-1-2.7-1.5-4.5-1.5s-3.4,0.5-4.5,1.5c-1.2,1-1.7,2.3-1.7,3.9c0,1.4,0.2,2.4,0.6,3
			c0.5,0.8,0.7,1.4,0.8,1.7L8.8,87l2.5,1.2l0.4,0.9c0.2,0.1,0.5,0.1,0.8,0.2c0.3,0,0.7,0.1,1,0.1c0.8,0,1.4-0.1,1.8-0.2l0.4-0.9
			l2.5-1.2l0.2-1.5c0-0.3,0.1-0.5,0.2-0.6c0.8-1.3,1.1-2.7,1.1-4C19.6,79.1,19.1,77.9,17.9,76.9z M10.8,85.4c-1,0-1.5-0.6-1.5-1.7
			c0-0.5,0.1-1,0.4-1.2c0.3-0.3,0.6-0.4,1.2-0.4c1,0,1.5,0.5,1.5,1.5C12.3,84.8,11.8,85.4,10.8,85.4z M13.9,87.8
			c-0.1,0-0.3,0-0.4-0.1c-0.2,0.1-0.3,0.1-0.4,0.1c-0.2,0-0.4,0-0.5-0.1s-0.2-0.2-0.2-0.4c0-0.2,0.1-0.4,0.4-0.8
			c0.2-0.3,0.4-0.6,0.7-0.9c0.2,0.3,0.4,0.7,0.7,0.9c0.3,0.3,0.4,0.6,0.4,0.7C14.6,87.6,14.3,87.8,13.9,87.8z M16.1,85.4
			c-1,0-1.5-0.6-1.5-1.7s0.5-1.6,1.5-1.6c0.5,0,0.9,0.1,1.1,0.4s0.4,0.6,0.4,1.1C17.6,84.8,17.1,85.4,16.1,85.4z"/>
	</g>
	<polygon class="st0" points="7.1,86.9 4.1,86.9 8.1,88.6 	"/>
	<polygon class="st0" points="7.6,90.2 4.1,91.8 8.1,91.3 	"/>
	<polygon class="st0" points="8.6,92.3 6.8,94.1 9.3,93.2 	"/>
	<polygon class="st0" points="19.7,86.9 22.8,86.9 18.8,88.6 	"/>
	<polygon class="st0" points="19.2,90.2 22.8,91.8 18.8,91.3 	"/>
	<polygon class="st0" points="18.2,92.3 20,94.1 17.6,93.2 	"/>
</g>
<g>
	<path class="st0" d="M229.9-43.7c-0.5,0-0.9,0.1-1.2,0.5c-0.8,0.8-0.5,2.4,0.7,3.6c1.2,1.2,2.8,1.5,3.6,0.7
		c0.1-0.1,0.2-0.2,0.3-0.4c-0.2,3.1-1.7,5.8-3.6,7.8h2.7c1.5-1.5,2.5-4.5,3.1-6.5c1.3,0.1,3.2,0.8,4.2,2l-3.9,4.5H247l-1.2-2.1h-5.1
		c4.2-3.1,1.6-6.6-1.9-8.1l0,0c-0.5-0.2-1-0.4-1.5-0.5l0,0c-1.6-0.4-3.3-0.4-4.4,0.3c-0.2-0.3-0.4-0.5-0.6-0.7
		C231.6-43.3,230.8-43.7,229.9-43.7L229.9-43.7z"/>
</g>
<g>
	<path class="st5" d="M132.4-441.1c4.4,0,8,3.6,8,8s-3.6,8-8,8s-8-3.6-8-8C124.4-437.5,128.1-441.1,132.4-441.1 M132.4-442.1
		c-5,0-9,4-9,9s4,9,9,9s9-4,9-9S137.4-442.1,132.4-442.1L132.4-442.1z"/>
</g>
<path class="st9" d="M132.4-441.6c2.3,0,4.2,3.8,4.2,8.5s-1.9,8.5-4.2,8.5"/>
<text transform="matrix(1 0 0 1 235.2967 -209.4444)" class="st0" style="font-family:'Roboto-Regular'; font-size:8px;">R</text>
<g>
	<g>
		<circle class="st4" cx="235.3" cy="-432.4" r="9.3"/>
	</g>
	<g>
		<path class="st2" d="M235.3-437.8c3,0,5.4,2.4,5.4,5.4s-2.4,5.4-5.4,5.4s-5.4-2.4-5.4-5.4S232.3-437.8,235.3-437.8 M235.3-438.8
			c-3.6,0-6.4,2.9-6.4,6.4s2.9,6.4,6.4,6.4c3.6,0,6.4-2.9,6.4-6.4S238.9-438.8,235.3-438.8L235.3-438.8z"/>
	</g>
	<g>
		<path class="st2" d="M234.9-431.2h6.9c0-0.2,0-0.3,0-0.5c0-4-3-7.3-6.8-7.3h-0.1v7.3L234.9-431.2L234.9-431.2z"/>
	</g>
</g>
<path class="st0" d="M231.3-411h-1.8c-0.7,0-1.2,0.6-1.2,1.2v12.4c0,0.7,0.5,1.2,1.2,1.2h10.2c0.4,0,0.8-0.3,0.8-0.8
	c0-0.4-0.3-1-0.8-1h-9.3c-0.3,0-0.6,0-0.6-0.3s0.3-1,0.6-1h8.8c0.7,0,1.2-0.6,1.2-1.2v-9.2c0-0.7-0.5-1.2-1.2-1.2H235l0,0L231.3-411
	"/>
<g>
	<path class="st2" d="M232.6-408.8c0.5-0.1,1.1-0.1,1.9-0.1c1,0,1.6,0.2,2.1,0.5c0.4,0.3,0.6,0.8,0.6,1.3c0,0.9-0.6,1.5-1.2,1.7l0,0
		c0.5,0.2,0.8,0.7,0.9,1.3c0.2,0.8,0.4,1.6,0.5,1.9h-1.3c-0.1-0.2-0.3-0.8-0.5-1.6c-0.2-0.9-0.5-1.2-1.2-1.2h-0.6v2.8h-1.2
		C232.6-402.2,232.6-408.8,232.6-408.8z M233.8-405.8h0.7c0.8,0,1.3-0.4,1.3-1.1s-0.5-1.1-1.3-1.1c-0.4,0-0.6,0-0.8,0.1v2.1H233.8z"
		/>
</g>
<path class="st0" d="M242.4,41.3l3.7-2.8l-4.6-0.6l1.3-4.3l-4.1,2.2l-1.6-4.2l-2,4.1l-3.8-2.5l0.8,4.4l-4.7,0.1l3.4,3.1l-3.7,2.8
	l4.6,0.6l-1.3,4.3l4.1-2.1l1.6,4.2l2-4.1l3.8,2.5l-0.8-4.4l4.7-0.1L242.4,41.3z M236.6,45.6c-2.2,0-4.6-2.4-4.6-4.6
	c0-2.2,2.4-4.6,4.6-4.6s4.6,2.4,4.6,4.6S238.8,45.6,236.6,45.6z"/>
<g>
	<path class="st4" d="M247.1-205.7c-1.5,1.4-2.8,3.1-4.6,4.1c-1.1,0.6-2.7,0.3-4,0.5c-0.8-3,0.9-6.5,3.6-7.8c0.3-0.2,1-0.2,1.1,0
		c0.2,0.4,0.4,1,0.2,1.3c-0.3,0.6-0.8,1.1-1.6,2.2c2.2-0.9,2.5-1.7,3-3.8c0.5-1.8,0-4.7,0.7-4.9c0.8,0,1.7-0.3,1.6,1.3
		C246.8-210.1,247.1-208.4,247.1-205.7z"/>
	<path class="st4" d="M228.3-205.7c1.5,1.4,2.8,3.1,4.6,4.1c1.1,0.6,2.7,0.3,4,0.5c0.8-3-0.9-6.5-3.6-7.8c-0.3-0.2-1-0.2-1.1,0
		c-0.2,0.4,0.9,1.4,1.1,1.8c0.3,0.6,0,1.1,0.3,1.7c-3-1.2-2.5-1.7-3-3.8c-0.5-1.8,0-4.7-0.7-4.9c-0.8,0-1.7-0.3-1.6,1.3
		C228.6-210.1,228.3-208.4,228.3-205.7z"/>
	<path class="st4" d="M230.8-195.1c-0.7-1.1-0.6-2,0.9-2c3.7,0,7.5,0,11.2,0c1.5,0,1.6,0.8,0.9,2
		C239.6-195.1,235.1-195.1,230.8-195.1z"/>
	<path class="st4" d="M237.6-198.2c-1.9,0-3.8,0.1-5.8,0c-0.5,0-0.9-0.5-1.3-0.8c0.4-0.4,0.9-1,1.3-1.1c3.8-0.1,7.5-0.1,11.3,0
		c0.4,0,0.8,0.6,1.2,0.9c-0.4,0.3-0.8,0.9-1.2,0.9C241.1-198.1,239.3-198.2,237.6-198.2z"/>
</g>
<path class="st4" d="M144.1-14.5c-1.1,0.9-2,1.5-3.8,0s-3-3.7-4.5-3.8s-5.2,0.8-5.4,0s0.6-1.5,1.5-1.5s3.1,0.7,4.6-0.8
	s2.8-2.1,3-3.8c0.3-1.7-0.6-4.9,0-5.5s1.3-0.3,1.5,0.8s1,5.3,0,7c0,0-0.2,3.1,0.8,3.8c0,0,1.4-2.4,3-3s4.7-0.9,4.5,0
	s-0.1,1.4-1.5,1.5s-3.1,0.4-4.5,3c0,0,1.6-0.9,3-0.8s3,2.1,3,3s-0.6,1.9-1.5,1.5C146.9-13.4,147.1-17,144.1-14.5z"/>
<ellipse transform="matrix(0.933 -0.36 0.36 0.933 17.5558 47.4252)" class="st4" cx="136.1" cy="-23.4" rx="1.9" ry="2.5"/>
<g id="Ea1JOO.tif">
	<g>
		<g>
			<path class="st4" d="M146.1-538c0.5,0.1,1,0.2,1.6,0.3c0.1,0.5,0.3,1.1,0.4,1.7c0.1,0,0.2,0,0.3,0c0.1-0.5,0.1-1,0.2-1.7
				c0.5,0.4,1.1,0.8,1.6,1.2c-1.5,1.4-1.9,3-1.2,5c-0.3-0.2-0.6-0.3-0.9-0.4c0,0.4,0,0.7,0,1c-0.2,0-1.2,0-1.4,0
				c0-0.1-0.1-0.1-0.1-0.1c-0.3-0.9,1.2-1.5,1.3-2.3c0.1-1.2-0.2-2.2-1.1-2.9c-0.3-0.3-0.6-0.5-0.5-1.1
				C146.4-537.5,146.3-537.8,146.1-538L146.1-538z"/>
		</g>
		<g>
			<path class="st4" d="M156-544.4c-1.1,0.2-3.6,0.9-5,1.1c0.7-0.7,2.4-2.1,3.3-2.1c0.5,0,1.3,0.6,1.8,0.8
				C156.1-544.6,156.1-544.5,156-544.4z"/>
		</g>
		<g>
			<path class="st8" d="M159.1-541.3c0.1-0.4,0.2-0.8,0.3-1.1c0,0-0.1,0-0.1-0.1c-0.4,0.7-0.8,1.5-1.2,2.3c0.5-0.2,1.1-0.5,1.7-0.8
				C159.5-541.1,159.3-541.2,159.1-541.3z"/>
			<path class="st8" d="M151.8-540.5c-0.4,0-0.8,1.5-1.2,2.1c1-0.1,2.3,0.1,3.3,0C153.3-539.1,153-540.6,151.8-540.5z"/>
			<g>
				<path class="st4" d="M163.8-536.3c-0.6-1.7-0.9-3.5-2.5-4.3c-1.1,1.3-1.2,1.4-2.2,1.2c0.2-0.1,0.4-0.1,0.5-0.2
					c0.7-0.3,1.2-0.7,1.3-1.6c0.1-0.8,0-1.6-0.6-2.2c-0.5-0.5-0.9-0.6-1.5-0.2c-0.4,0.3-0.8,0.5-1.1,0.8c0,0.1-0.1,0.1-0.2,0.1
					c-0.1,0.1-0.2,0.1-0.3,0.2c0-0.1-0.1-0.1-0.1-0.2l0.1-0.1c-0.1-0.1-0.2-0.3-0.3-0.4c-0.1,0-0.3,0.1-0.4,0
					c-1.1-0.2-2.1,0-3.2,0.3c-1.3,0.3-2.5,0.7-3.8,0.8c-0.2,0-0.3,0.1-0.5,0.1c0,0,0,0,0,0.1c0.1,0.3,0,0.7-0.2,1
					c0.1,0,0.2,0,0.3-0.1v0.2c-1.4,0.5-2.8,0.9-4.3,1.4c0.2,0.7,0.4,1.3,0.6,1.8c0.2-0.2,0.4-0.3,0.5-0.4c-0.1-0.4,0.1-0.3,0.3-0.3
					c0.7,0.1,1.4,0.3,2.1,0.4c1.4,0.2,2.1,1.2,2.5,2.7c0.3,1.2-0.2,2.2-0.9,3c0,0.1-0.1,0.1-0.1,0.2c-0.3,1.7-1.2,2.2-2.7,2
					c0.7,0.6,1.4,0.8,2.1,0.5c0.6-0.2,1.2-0.5,1.9-0.6c1.2-0.3,2.4-0.7,3.6-0.2c0.8,0.4,1.5,1.2,2.3,1.7c0.9,0.6,1.7,1.2,2.6,1.7
					c0.2-0.5,0.3-1,0.5-1.5c0.2-0.7,0.6-1.4,0.7-2.1c0-0.2,0.2-0.3,0.3-0.2c0.2-0.3,0.3-0.7,0.5-1.1c0.1,0.5,0.2,0.8,0.3,1.3
					c0.2-0.4,0.3-0.7,0.4-1c0.3-1.2,0.6-2.4,0.7-3.6c0.1-0.7-0.2-1.5-0.4-2.2C163-537,163.3-536.7,163.8-536.3z M150.4-538.4
					c0.4-0.6,0.8-2.1,1.2-2.1c1.3-0.1,1.5,1.4,2,2.1C152.8-538.3,151.5-538.4,150.4-538.4z M158.6-542.9c0,0,0.8,0.4,0.8,0.5
					c-0.1,0.4-0.2,0.8-0.3,1.1c0.2,0.1,0.7,0.5,1,0.6c-0.6,0.3-2.5,1.1-3,1.3C157.5-540.2,158.3-542.2,158.6-542.9z"/>
			</g>
			<path class="st4" d="M147.8-542c-0.1-0.3-0.4-0.5-0.7-0.7c-0.1-0.1-0.3-0.1-0.4-0.2h-0.1c-0.1,0-0.2,0-0.2,0c-0.1,0-0.2,0-0.3,0
				l0,0c-0.1,0-0.2,0.1-0.2,0.1s0,0-0.1,0.1c-0.1,0-0.1,0.1-0.2,0.2l0,0c-0.1,0.1-0.2,0.2-0.2,0.3c0,0,0,0.1-0.1,0.1
				c-0.1,0.1-0.1,0.2-0.2,0.3c0,0,0,0.1-0.1,0.1c-0.1,0.2-0.1,0.3-0.2,0.5c0.1,0,0.1,0,0.2,0l0,0c0.1,0,0.1,0,0.2,0.1
				c0.1,0,0.1,0,0.2,0l0,0c0.1,0,0.1,0,0.2,0l0,0c0,0,0,0,0.1,0l0,0l0,0l0,0l0,0l0,0c0,0,0,0,0-0.1l0,0c0,0,0,0,0-0.1c0,0,0,0,0-0.1
				v-0.1c0,0,0,0,0-0.1v-0.1c0,0,0,0,0-0.1s0-0.2,0-0.3c0.3,0.2,0.4,0.4,0.5,0.4s0.3,0,0.4,0c0.1,0,0.2,0,0.4,0l0,0l0,0
				c0.1,0,0.1,0,0.2,0l0,0c0.1,0,0.1,0,0.1-0.1C147.8-541.7,147.8-541.9,147.8-542z"/>
		</g>
		<g>
			<path d="M147.8-537.9l0.2,0.1c0.2,0.1,0.4,0.1,0.5,0.3s0,0.5-0.2,1.2l-0.2,0.5L147.8-537.9z"/>
			<path class="st2" d="M147.9-537.7c0.5,0.1,0.5,0.3,0.1,1.3C148.1-536.8,148.1-537.2,147.9-537.7 M147.6-538v0.4l0.1,0.6l0.1,0.7
				l0.1,1l0.4-1c0.2-0.7,0.4-1,0.2-1.3c-0.1-0.2-0.3-0.3-0.5-0.4H147.6L147.6-538z"/>
		</g>
	</g>
</g>
<g>
	<g>
		<path class="st5" d="M230.1-543c0.1-0.2,0.2-0.3,0.3-0.5l0,0c0.1-0.1,0.2-0.3,0.4-0.4l0,0c0.3-0.2,0.6-0.4,1.1-0.5
			c-2.2-1.1-3.5-1.5-2.9-0.6C229.1-544.5,229.6-543.7,230.1-543L230.1-543z"/>
		<path class="st4" d="M241.3-541.7L241.3-541.7C241.4-541.7,241.3-541.7,241.3-541.7z"/>
	</g>
	<g>
		<path class="st4" d="M230.9-541.2c2.9-1.2,6.3-1.4,9.4-1c-0.5-0.3-1.3-0.8-2.6-1.5c-4-2.4-6.8-3.6-6-2.3c0.5,0.8,1.2,1.9,1.3,3.1
			C233.1-543,231.3-542.4,230.9-541.2z"/>
	</g>
	<g id="QFqb7d.tif_1_">
		<g>
			<path class="st4" d="M245.6-536.4c-0.5-1.2-1.6-1.5-2.5-2.5c-0.6-0.7-1.2-1.3-1.8-2c-0.2-0.2-0.3-0.5-0.5-0.7c0.1,0,0.2,0,0.3,0
				h0.1v-0.1c-0.2-0.2-0.3-0.4-0.5-0.6c-0.9-0.9-1.9-1.5-3-2c-0.7-0.3-1.5-0.6-2.3-0.6c-0.2,0.1-0.4,0.2-0.6,0.3
				c-0.3,0.2-0.5,0.3-0.8,0.5c-0.4,0.2-0.7,0.4-1,0.6c-0.1,0.1-0.2,0.1-0.3,0.2c0.1,0.1,0,0.3-0.1,0.4c-0.4,0.5-0.9,1-1.3,1.5
				c-0.5,0.6-0.7,1.2-0.6,2.1c0.1,0.7-0.1,1.3-0.4,1.8s-0.7,0.9-1.2,1.3c-0.5,0.4-1,0.8-1.5,1.2c-0.2,0.1-0.2,0.2,0,0.3
				c0.4,0.3,0.8,0.6,1.2,0.7c0.1,0,0.1,0,0.2,0c0.1,0,0.2-0.1,0.3,0.1h0.1c0.3,0,0.7,0,1-0.1c0.7-0.2,1.5-0.4,2.2-0.7
				c0.7-0.2,1.4-0.4,2.1-0.4c0.4,0,0.4,0,0.5,0.4c0.2,0.6,1,1.1,0.9,1.7v0.1c0.4,0.9,0.5,1.4,0.3,2c0,0.8-0.3,1.6-0.9,2.2
				c-0.1,0.1-0.1,0.3-0.2,0.4c-0.1,0.2-0.2,0.3-0.3,0.5c0,0,0,0,0.1,0c1.1-0.5,2.3-2.4,3.1-3.3c0.3-0.3,0.8,0.1,0.6,0.5
				c-0.4,0.7-1.3,2.5-1.8,3c0.8,0.1,1.5,0.1,2.3,0.1c0.4,0,0.7,0,1.1,0c0.1,0,0.2,0,0.2,0c0.3-0.1,0.7-0.2,1-0.3
				c0.5-0.5,1.3-2.5,1.6-3c0.2-0.4,0.8-0.1,0.6,0.4c-0.2,0.4-0.5,1.9-0.7,2.2c0.6-0.2,1.3-0.5,1.9-0.9c0.3-0.6,0.7-1.1,0.9-1.7
				c0-0.4,0-0.4,0.1-1.1v-0.1c-0.1-0.6-1.7-2.2-1.8-2.8c0-0.2-0.1-0.4-0.1-0.6l1.4,0.9c0.1,0.2,1,0.6,1.1,0.7c0,0.1,0.1,0.1,0.1,0.1
				c0-0.1,0.1-0.1,0.1-0.2C246.8-534.7,245.8-535.7,245.6-536.4z"/>
		</g>
	</g>
	<polygon class="st2" points="232.1,-539.2 231.8,-539.7 232.8,-540.7 233.8,-540.7 233.8,-539.7 232.8,-539.2 	"/>
	<g>
		<g>
			<path class="st2" d="M235.3-529.2c0.2-0.3,0.7-1.3,0.7-1.8v-0.1v-0.1c0.1-0.4,0-0.9-0.3-1.6l-0.1-0.2v-0.2h0.5l-0.5-0.1
				c0-0.1-0.2-0.4-0.4-0.6c-0.2-0.2-0.4-0.5-0.5-0.8v-0.1l0,0c-0.6,0-1.3,0.2-1.9,0.4c-0.8,0.2-1.5,0.5-2.2,0.7
				c-0.3,0.1-0.6,0.1-0.8,0.1c-0.1,0-0.3,0-0.3,0c-0.2,0-0.3,0-0.4-0.1c-0.1,0-0.1,0-0.2,0h-0.1h-0.1c-0.1,0-0.1,0-0.1-0.1l-0.5-0.1
				l0.3-0.8l0.1-0.1c0.1-0.1,1.5-1.4,2.3-2c0.7-0.5,3-1.9,4.8-1.9c0.3,0,0.5,0,0.7,0.1c0.9,0.2,1.9,1.1,2.5,2.3
				c0.5,0.9,1.1,2.7,0.2,5l-0.1,0.3h-0.2c-1.3,1.5-2.1,2.3-2.8,2.4l-1,0.1L235.3-529.2z"/>
			<path d="M235.4-538c0.2,0,0.4,0,0.6,0.1c1.5,0.4,3.6,3.3,2.3,6.6c-0.1,0-0.1,0-0.2,0.1c-0.8,0.9-2,2.2-2.5,2.3
				c0,0,0.7-1.2,0.7-2.1c0.2-0.5,0.1-1.1-0.3-2v-0.1c0.1-0.6-0.7-1.1-0.9-1.7c-0.1-0.4-0.1-0.4-0.4-0.4h-0.1c-0.7,0-1.4,0.2-2.1,0.4
				s-1.5,0.5-2.2,0.7c-0.3,0.1-0.7,0.1-1,0.1l0,0h-0.1c0-0.1-0.1-0.1-0.1-0.1c-0.1,0-0.1,0-0.2,0c-0.1,0-0.1,0-0.2,0l0,0h-0.1
				l0.1-0.2c0,0,1.5-1.3,2.3-1.9C231.6-536.8,233.8-538,235.4-538 M235.4-539c-2,0-4.4,1.5-5.1,2c-0.8,0.6-2.3,1.9-2.3,2l-0.2,0.2
				l-0.1,0.3l-0.1,0.2l-0.3,1l0.9,0.3c0.1,0,0.1,0.1,0.2,0.1h0.1h0.2h0.1c0.1,0.1,0.3,0.1,0.4,0.1l0,0h0.1c0.1,0,0.2,0,0.3,0
				c0.3,0,0.6,0,0.9-0.1c0.8-0.2,1.5-0.4,2.3-0.7c0.5-0.2,1-0.3,1.5-0.4c0.1,0.3,0.3,0.5,0.5,0.7c0.1,0.1,0.2,0.2,0.2,0.3l-0.1,0.3
				l0.1,0.3c0.4,0.8,0.3,1.1,0.3,1.2v0.1v0.1c0,0.4-0.4,1.2-0.6,1.6l-1,1.8l2-0.3c0.8-0.1,1.6-0.9,3-2.4l0.3-0.1l0.2-0.5
				c0.7-1.8,0.6-3.7-0.2-5.4c-0.7-1.3-1.7-2.3-2.8-2.6C236.1-539,235.8-539,235.4-539L235.4-539z"/>
		</g>
	</g>
</g>
<g>
	<g>
		<path class="st0" d="M319.4-544.5c0,0,4.4-3.5,9.7-0.8c0,0-1.4,0-1.9,0.3c0,0,0.5-0.1,0.7,0c0,0-0.5,0.3-1.2,0.2
			c0,0,0,0.1,0.6,0.2c0,0-0.4,0.4-1.5,0.4c0,0,0.3,0.2,0.7,0.2c0,0-0.3,0.4-1.4,0.4c0,0,0.1,0.1,0.3,0.1c0,0-0.5,0.2-0.9,0.1
			c0,0,0.2,0.2,0.3,0.2c0,0-1.2,0.2-1.5,0.6C323-542.2,319.4-544.5,319.4-544.5z"/>
		<path class="st0" d="M313.9-543.8c0,0,2.5-3.7,6.7-3.4c0,0-0.9,0.4-1.2,0.7c0,0,0.3-0.2,0.5-0.2c0,0-0.2,0.3-0.7,0.5
			c0,0,0,0.1,0.4,0c0,0-0.2,0.3-0.9,0.7c0,0,0.2,0,0.5-0.1c0,0-0.1,0.3-0.8,0.6c0,0,0.1,0,0.2,0c0,0-0.3,0.3-0.6,0.3
			c0,0,0.2,0.1,0.3,0c0,0-0.7,0.4-0.8,0.8S313.9-543.8,313.9-543.8z"/>
		<g>
			<path class="st0" d="M312.4-539.4l-0.3-0.1c-0.3-2.8,1.3-5.6,5.5-5.6c0.6,0,1.2,0.1,1.7,0.1c-1,0.6-1.9,1.5-2.3,3.1
				c-0.8,3-2.4,3-3.7,3.2C313.1-539,312.8-539.3,312.4-539.4z"/>
			<path class="st0" d="M312.6-538"/>
		</g>
		<g>
			<path class="st0" d="M322.4-537.4l0.3-0.2c-0.1-0.3-0.2-0.5-0.2-0.5l0.3-0.2c-0.2-0.4-0.4-0.6-0.5-0.6l-1.2-1.1l0.8,0.4l0.2-0.3
				c0,0,0,0,0.1,0s0.2,0.1,0.3,0.1c-0.4-0.3-0.6-0.5-0.6-0.5l-0.8-0.7l0.9,0.3c-1-0.6-2.5-1.2-3.2-1.4l0.1-0.2
				c-0.3,0.4-0.5,0.9-0.7,1.4c-0.1,0.4-0.2,0.7-0.3,1h0.1c0.6,0,1.7,0.5,1.7,1.1s-0.8,1.7-1.4,1.7c-0.5,0-1.3-0.6-1.4-1.1
				c-0.6,0.6-1.3,0.5-1.8,0.5c0.5,0.7,0.1,1.5,0.1,1.6l0.3,0.3l-0.6,0.1l0.1,0.2l0,0c0,0,2.7,1.6,4.7,1.4c1.9-0.2,2.5-2.2,2.6-2.3
				l0.1-0.5l0.2,0.4c0.1,0.2,0.3,0.4,0.4,0.6C322.8-536.7,322.4-537.4,322.4-537.4z"/>
		</g>
		<g>
			<path class="st8" d="M312.4-537.5c-0.2-0.5-0.6-1-1.1-1.2C311.9-538.5,312.3-538,312.4-537.5z"/>
			<path class="st0" d="M312.9-535.8c0,0,0-0.9-0.4-1.7c-0.2-0.5-0.6-1-1.1-1.2c0,0-1.7,2.3-0.3,4.6c0.2-0.1,0.3-0.2,0.5-0.2
				C311.8-535,312.1-535.7,312.9-535.8z"/>
			<path class="st0" d="M311.4-533.7c0,0,0-0.3,0.2-0.7c-0.2,0.1-0.3,0.1-0.5,0.2C311.1-534,311.3-533.9,311.4-533.7z"/>
		</g>
	</g>
	<g>
		<path class="st0" d="M328.4-532.9c0,0,0.2,0.1,0.5,0.5c0,0-0.3-2.5-1.8-3.6c0,0,0.8,0,1.2,0.5c0,0-0.2-1.4-1.1-1.9
			c0,0,0.7,0,0.9,0.2c0,0-0.4-1.6-1.7-2.1c0,0,0.6,0,0.7,0.2c0,0-0.2-1.4-2.2-2.2c0,0,0.6,0,0.9,0.2l-0.6-0.4c0,0-1.9-2.5-5.6-3.1
			c-0.5,0.3-0.9,0.6-1.3,1.1c0.7,0.3,4.6,1.8,5.4,2.7l0.5,0.6l-1.1-0.3c0.2,0.1,0.3,0.3,0.5,0.5l0.5,0.5l-0.8-0.1
			c0.1,0.1,0.1,0.1,0.2,0.2l0.3,0.4h-0.5l0,0c0.2,0.3,0.5,0.7,0.7,1.3l0.3,0.6l-0.6-0.3c0,0-0.1,0-0.2-0.1c0,0.2,0.1,0.4,0.1,0.6
			v0.5l-0.2-0.1c0.2,0.6,0.5,1.3,0.6,1.8l0.1,0.7l-0.5-0.4c0,0-0.6-0.5-1-1c-0.4,0.8-1.4,2.4-3.5,2.6c-0.2,0-0.4,0-0.6,0
			c-2.1,0-4.4-1.1-5.3-1.6c-0.3-0.1-0.7-0.2-1-0.2c-0.2,0.4-0.3,1-0.3,1l-0.2,1.7l0,0c0.2,1.2,1.3,3,1.3,3c0.3,0.7,1.3,1.3,1.3,1.3
			c-0.4-0.5-0.4-1.4-0.4-1.4c1.5,1.6,3.2,1.6,3.2,1.6c-0.5-0.8-0.1-1.7-0.1-1.7c0.5,1.2,1.9,1.6,1.9,1.6c0.7-1,0.4-1.7,0.4-1.7
			c1.1,1.7,4.1,1.8,4.1,1.8c-0.6-1-0.3-2-0.3-2c0.5,1.4,2.6,1.8,2.6,1.8c-0.4-0.6-0.3-1.4-0.3-1.4c0.5,0.8,1.6,0.8,1.6,0.8
			c-0.6-0.6-0.8-2.2-0.8-2.2c1.5,1.3,1.4,3.1,1.4,3.1c0.9-0.4,1.1-1,1.2-1.3l0,0l0,0c0-0.2,0-0.3,0-0.3l0,0
			C329.1-530,329.1-531.3,328.4-532.9z"/>
	</g>
</g>
<path class="st0" d="M406-529.2c0,0,0.3-1.2,0-2.4c0,0,0.2,0.7,0.9,1.1c0,0-1-1.6-1.1-4.4c0,0,0.3,0.9,0.7,1.9c0,0,0.2-1-0.6-3.6
	c0,0,0.7,1.7,0.8,2.4c0,0-0.1-6.4-2.7-8c0,0,0.7-0.1,2.5,2.4c0,0-1.4-3.3-4.2-4.2l2.4,0.7c0,0-1.6-1.4-5.8-1.4c0,0,1.8-0.2,2.2,0
	c0,0-5.2-1.4-9,2c0,0-1.2,0-1.6,0.4c0,0-2.2-0.2-3.1,1.4c-1.2,2,0.3,3.9,1.1,4.7c0,0-0.2-1.6,0.2-2.2c0,0,1.1,0.7,3.3,0.6
	c6-0.4,4.3,2.2,2.4,4c0,0-1,0.9-3,3c0,0,3-0.9,3.4-1.5c0,0,0.8,1.1,1,1.9c0,0,0.7-0.8,0.9-1.6c0,0,0.1,0.9,0.2,1.1
	c0,0,0.4-0.3,0.5-0.6c0,0,0.2,0.7,0.4,0.8c0,0,0.3-0.4,0.3-0.8c0,0,0.2,1.1,1,1.8c0,0,0.3-0.5,0.3-1c0,0,0.1,0.3,0.4,0.5
	c0,0,0.4-1,0.4-2.3c0,0,0.3,2.3,1.1,3.1c0,0,0.4-0.7,0.3-1.4c0,0,1.3,1.1,2.3,1.7c0,0-0.4-0.7-0.4-1.3
	C403.5-530.2,403.5-530.1,406-529.2z"/>
<g>
	<path class="st2" d="M394.8-542.3L394.8-542.3c-0.1,0.2-0.2,0.3-0.2,0.5c0,0.6,0.5,0.9,1.2,0.8c0.6,0,1.6-0.8,1.7-1.5
		C396-543.1,395.4-542.8,394.8-542.3z"/>
</g>
<g>
	<g>
		<g>
			<g>
				<path class="st2" d="M85.8-530.1c0,0,0.3,0,0.7,0c-0.3-0.1-0.5-0.2-0.7-0.2V-530.1z"/>
			</g>
			<g>
				<path class="st0" d="M83-542.8c0,0-0.6-1.7-2.4-2.2l0.6,2.8L83-542.8z"/>
				<path class="st10" d="M82.5-532.2c0,0,0.4,2.6-0.8,4.8"/>
				<path class="st11" d="M83.6-531.6c0,0,1.2,1.7,0.7,3.5"/>
				<path class="st11" d="M80.3-530.9c0,0,0.4,1.4-0.8,2.8"/>
			</g>
		</g>
		<g>
			<path class="st8" d="M82.8-536.1c-0.6,0.6-1.4,0.9-1.9,0.9c-0.3,0-0.5-0.1-0.7-0.3c-0.5-0.5-0.1-1.7,0.9-2.6
				c0.6-0.6,1.4-0.9,1.9-0.9c0.3,0,0.5,0.1,0.7,0.3C84.3-538.2,83.8-537,82.8-536.1z"/>
			<path class="st8" d="M83-538.5c-0.5,0-1.1,0.3-1.6,0.8c-0.9,0.8-1.1,1.6-0.9,1.9c0.1,0.1,0.2,0.1,0.3,0.1c0.5,0,1.1-0.3,1.6-0.8
				c0.4-0.4,0.7-0.8,0.9-1.2c0.1-0.3,0.1-0.5,0-0.6C83.3-538.4,83.1-538.5,83-538.5z"/>
			<path class="st0" d="M88.8-533.9L88.8-533.9L88.8-533.9c0.2,0,0.3,0,0.3,0h0.1c0.1,0,0.2,0,0.2,0h0.1c0.1,0,0.2,0,0.3,0l0,0
				c0.1,0,0.1,0,0.2,0c0,0,0,0,0.1,0h0.1l0,0l0,0c-0.2-0.4-0.5-0.7-0.8-0.9c0.2-0.1,0.4-0.1,0.6-0.1c0.1,0,0.1,0,0.2,0
				c0.2,0,0.3,0,0.5,0c0.1,0,0.3,0,0.5,0c0.1,0,0.2,0,0.2,0c0.2,0,0.5,0.1,0.8,0.1c0-0.1-0.1-0.3-0.1-0.5c0-0.1,0-0.2-0.1-0.3
				c0-0.1,0-0.2-0.1-0.3c0-0.2-0.1-0.3-0.1-0.5v-0.1c-0.2-0.9-0.6-1.9-1-2.9l0,0c-0.1-0.3-0.2-0.5-0.3-0.8l0,0l0,0
				c-0.3-0.6-0.6-1.1-0.9-1.6c-0.2,0-0.4,0-0.7,0c0,0-1.3-2.8-4.7-4.1v3.9c0,0-4.8,1.8-4.9,3.2s-0.2,3.3-0.5,3.6s-1.6,2-1.2,2.3
				s2.4,2.7,3.6,2.7c1.1,0,3.8-0.3,4.4,0c0,0,0.1,0,0.2,0.1l0.1-0.6c0,0,0.3,0,0.7,0l0,0c0,0,0,0,0.1,0l0,0c0.2,0,0.4,0,0.6,0
				c0.1,0,0.1,0,0.2,0c0.2,0,0.4,0,0.5-0.1c0.1,0,0.2,0,0.3,0c0.2,0,0.4-0.1,0.6-0.1c0.1,0,0.2,0,0.3-0.1c0.3-0.1,0.6-0.2,0.8-0.3
				c-0.5-0.2-1.2-0.7-1.9-1.5c0.1,0,0.2,0,0.3,0h0.1c0.1,0,0.1,0,0.2,0h0.1c0.1,0,0.1,0,0.2,0h0c0.1,0,0.1,0,0.2,0l0,0l0,0
				c0.1,0,0.1,0,0.2,0l0,0h0.1c-0.5-0.2-0.9-0.7-1.2-1.2C88.3-533.9,88.5-533.9,88.8-533.9L88.8-533.9z"/>
			<path class="st2" d="M83.3-537.7c-0.1,0.4-0.5,0.8-0.9,1.2c-0.5,0.5-1.2,0.8-1.6,0.8c-0.1,0-0.3,0-0.3-0.1
				c-0.2-0.2,0-1.1,0.9-1.9c0.5-0.5,1.2-0.8,1.6-0.8c0.1,0,0.3,0,0.3,0.1C83.4-538.3,83.4-538,83.3-537.7z"/>
		</g>
	</g>
	<path class="st0" d="M95.8-534.7c0-0.1,0-0.1,0-0.2c-0.1-0.9-0.4-1.7-1-2.4c0.7,0.3,1.1,0.7,1.1,0.7c-0.7-2.1-2.4-2.1-2.5-2.1
		c-0.7-0.5-1.4-0.9-2-1.3c0.9,1.9,1.3,4,1.5,5l0.2,0.7l-0.7-0.1c-0.4-0.1-0.9-0.1-1.3-0.1c-0.1,0-0.3,0-0.4,0
		c0.1,0.1,0.1,0.2,0.2,0.3l0.3,0.6l-0.6,0.1c0,0-0.6,0.1-1.2,0.1c0.1,0.1,0.2,0.1,0.3,0.2l2.2,0.8l-2.4,0.1c0,0,0,0-0.1,0
		c0.3,0.2,0.5,0.3,0.7,0.4l1.1,0.5L90-531c-1.2,0.5-2.4,0.6-3.2,0.6c1,1.5,4.2,2.8,4.2,2.8c-0.2-1.3,1.3-2.4,1.3-2.4
		c0.5,0.1,0.5,2.4,0.5,2.4c0.9-1,1.9-2.3,2.4-4.1c0.5,0.5,0.8,1.2,0.8,1.2C96.5-531.3,96.1-533.3,95.8-534.7z"/>
</g>
<g>
	<line class="st12" x1="16.3" y1="-273.9" x2="12.4" y2="-277"/>
	<path class="st13" d="M10.5-284c-0.1-0.1-0.2-0.2-0.3-0.3C10.3-284.1,10.5-284,10.5-284z"/>
	<path class="st7" d="M17.5-277.1l-7.8-12h3.8l-4.8-1.7l-0.3-0.5l4.2-0.8l-6.5-1H5.6H1.7v3.9v3.2l0.8,3.7c0,0,0.1-2.7,0-3
		c0-0.3,3,4,3,4c-0.3-1.3-0.7-3.5-0.9-4.5L17.5-277.1z M8.3-285.2h0.2c0,0.1,0.1,0.2,0.1,0.2C8.5-285.1,8.4-285.1,8.3-285.2z"/>
	<path class="st8" d="M6.5-286.1c0.1,0.1,1.9,0.9,2,1c0,0-0.8-2.1-1-2.3c-1.5-1.5,0.4-0.8,0-2.7c-0.4-2-3.2-0.5-5-1
		c0.3,1.1-0.8,1.9,1,4C4.6-285.8,5.8-286.7,6.5-286.1z"/>
	<g>
		<path class="st1" d="M16.3-273.7c-1.6,0-3.1-0.6-3.5-1.3c-0.2-0.3-1.8-0.7-2.6-0.7c-0.1,0-0.1,0-0.1,0l0,0H10
			c-0.4,0-0.6-0.2-0.7-0.6s0.1-0.9,0.7-1.1c0.3-0.1,0.7-0.2,1.3-0.2c0.8,0,1.6,0.1,1.9,0.2c0.1,0,0.2,0,0.3,0s0.2,0,0.2,0
			s0-0.1,0-0.3c-0.1-0.3-0.5-1.1-1-1.9c-1.8-3.3-2.1-4.1-1.8-4.5c0.1-0.2,0.3-0.3,0.5-0.3c0.7,0,1.9,1.1,2.5,2.1
			c0.4,0.6,0.7,1.1,1,1.3c-0.2-0.8-0.7-2.3-0.9-3c-0.1-0.4-0.3-0.7-0.3-0.9c-0.1-0.4-0.1-0.8,0.2-1.1c0.2-0.3,0.6-0.5,1-0.5
			c0.6,0,0.9,0.8,1.5,3.5c0,0.2,0.1,0.4,0.1,0.6c0-0.4,0.1-0.8,0.1-1.3c0-1.2,0.4-1.8,1.1-1.8c0.2,0,0.4,0.1,0.5,0.2
			c0.6,0.7,0.2,3.3,0.2,3.4s0,0.4,0,0.6c0.5-1.1,1.6-2.1,2.3-2.1c0.3,0,0.5,0.1,0.6,0.4c0.1,0.4-0.1,1.1-1.6,3.6
			c-0.1,0.1-0.1,0.2-0.2,0.3c0,0.1,0,0.8,0,1.3c0,0.8,0,1.7-0.1,2.3C18.8-274,16.6-273.7,16.3-273.7L16.3-273.7L16.3-273.7z"/>
		<path class="st2" d="M14.6-286.1c0.6,0,1.4,5,1.7,5l0,0c0.3,0,0.4-1.9,0.4-2.5s0.1-1.5,0.7-1.5l0,0c0.6,0,0.4,2.7,0.3,3.1
			c0,0.3,0,1.3,0.3,1.3c0.1,0,0.2-0.1,0.4-0.4c0.5-1,1.5-1.9,2-1.9c0.1,0,0.2,0,0.2,0.1c0.2,0.5-1.6,3.3-1.8,3.6s0,2.7-0.2,3.8
			c-0.2,1.1-2.4,1.4-2.4,1.4c-1.5,0-2.8-0.6-3.1-1.1s-2.2-1-3-1c-0.1,0-0.1,0-0.2,0h0c-0.4,0-0.6-0.7,0.1-1c0.3-0.1,0.7-0.2,1.1-0.2
			c0.7,0,1.5,0.1,1.8,0.2c0.1,0,0.3,0.1,0.4,0.1c0.4,0,0.7-0.2,0.5-0.8c-0.3-0.8-3.2-5.6-2.9-6C11-284,11-284,11-284
			c0.5,0,1.6,0.9,2.1,1.9c0.6,1,1.3,1.7,1.6,1.7c0.1,0,0.1,0,0.1-0.1c0.2-0.3-1.1-3.9-1.3-4.5C13.6-285.6,13.9-286.1,14.6-286.1
			 M14.6-286.8c-0.6,0-1,0.2-1.3,0.6s-0.4,0.9-0.2,1.4c0,0.2,0.2,0.5,0.3,0.9c0.1,0.2,0.2,0.6,0.3,1c-0.6-0.9-1.7-1.9-2.5-1.9
			c-0.3,0-0.6,0.2-0.8,0.4c-0.4,0.6-0.2,1.3,1.8,4.9c0.3,0.6,0.7,1.2,0.9,1.6c-0.4-0.1-1.2-0.2-1.9-0.2c-0.6,0-1.1,0.1-1.5,0.2
			c-0.8,0.3-1,1-0.9,1.5s0.6,0.9,1.1,0.9c0.1,0,0.2,0,0.2,0c0.7,0,2.1,0.4,2.4,0.6c0.5,0.9,2.1,1.5,3.8,1.5l0,0l0,0
			c0.5-0.1,2.8-0.4,3.1-2c0.1-0.6,0.1-1.6,0.1-2.4c0-0.4,0-1,0-1.2c0-0.1,0.1-0.1,0.1-0.2c1.6-2.7,1.8-3.4,1.7-3.9
			c-0.1-0.4-0.5-0.6-0.9-0.6c-0.6,0-1.3,0.5-1.9,1.2c0.1-0.9,0.1-2.4-0.4-3c-0.2-0.2-0.4-0.3-0.7-0.4l0,0c-0.5,0-1.1,0.2-1.4,1.2
			C15.6-286.1,15.3-286.8,14.6-286.8L14.6-286.8z"/>
	</g>
	<path class="st2" d="M2.5-292l0.9,6.6l0.7-3.7c0,0,3.4,4,3.3,3.8s-2-4.4-2-4.4l4,0.4l-4.2-1.9l4.1-0.8H2.5z"/>
</g>
<rect x="228.2" y="-380.3" transform="matrix(0.7071 -0.7071 0.7071 0.7071 332.7921 57.1254)" class="st4" width="14.3" height="14.3"/>
<g>
	<path class="st2" d="M237.8-372.4L237.8-372.4c0,0.8-0.2,1.4-0.5,1.8c-0.4,0.4-0.9,0.6-1.7,0.6c-0.7,0-1.3-0.2-1.8-0.7
		c-0.4-0.5-0.7-1.1-0.7-1.9v-2.1c0-0.8,0.2-1.5,0.6-1.9c0.4-0.5,1-0.7,1.7-0.7c0.8,0,1.3,0.2,1.7,0.6s0.6,1,0.6,1.8l0,0h-1.3
		c0-0.5,0-0.8-0.2-1s-0.4-0.3-0.8-0.3c-0.3,0-0.6,0.1-0.7,0.4c-0.2,0.2-0.2,0.6-0.2,1.1v2.1c0,0.5,0.1,0.9,0.3,1.1s0.4,0.4,0.8,0.4
		c0.3,0,0.6-0.1,0.7-0.3c0.1-0.2,0.2-0.5,0.2-1H237.8z"/>
</g>
<g>
	<path class="st4" d="M235.3-346.7l-9.3,16.1h18.5L235.3-346.7z M236.6-335.2h-2.5l-0.5,1.5h-1.4l2.5-7.1h1.5l2.4,7.1h-1.4
		L236.6-335.2z"/>
	<polygon class="st4" points="235.3,-339.1 234.4,-336.3 236.3,-336.3 	"/>
</g>
<g>
	<path class="st0" d="M8.3-214.4c-0.6,3.2-5.5,8.3-5.5,12.1c0,4,2,5.8,5.4,5.8h0.1c1.7,0,3.1-0.5,4-1.4c0.9-1,1.4-2.4,1.4-4.4
		C13.7-206.1,8.9-211.2,8.3-214.4z M11-201.3c0,0.1-0.1,0.2-0.1,0.3l-0.1,0.8l-1.3,0.6l-0.2,0.5c-0.2,0.1-0.6,0.1-1,0.1
		c-0.2,0-0.4,0-0.6,0s-0.3-0.1-0.4-0.1l-0.2-0.5l-1.3-0.6l0-0.8c0-0.2-0.2-0.5-0.4-0.9c-0.2-0.3-0.3-0.9-0.3-1.6
		c0-0.9,0.3-1.5,0.9-2.1c0.6-0.5,1.4-0.8,2.4-0.8s1.8,0.3,2.4,0.8s0.9,1.2,0.9,2.1C11.6-202.7,11.4-202,11-201.3z"/>
	<path class="st0" d="M9.7-202.5c-0.5,0-0.8,0.3-0.8,0.9c0,0.6,0.3,0.9,0.8,0.9s0.8-0.3,0.8-1c0-0.3-0.1-0.5-0.2-0.6
		C10.1-202.5,9.9-202.5,9.7-202.5z"/>
	<path class="st0" d="M6.9-202.5c-0.3,0-0.5,0.1-0.6,0.2c-0.1,0.1-0.2,0.4-0.2,0.6c0,0.6,0.3,0.9,0.8,0.9s0.8-0.3,0.8-1
		C7.7-202.3,7.4-202.5,6.9-202.5z"/>
	<path class="st0" d="M8.3-200.7c-0.1,0.2-0.2,0.4-0.3,0.5c-0.1,0.2-0.2,0.3-0.2,0.4c0,0.1,0,0.2,0.1,0.2s0.1,0.1,0.3,0.1
		c0.1,0,0.1,0,0.2-0.1c0.1,0,0.2,0.1,0.2,0.1c0.2,0,0.3-0.1,0.3-0.3c0-0.1-0.1-0.2-0.2-0.4C8.5-200.4,8.4-200.5,8.3-200.7z"/>
</g>
<polygon class="st0" points="244.4,106.9 244.4,114.5 235.3,114.5 232.8,116.6 239.6,116.6 243.3,119.8 243.3,116.6 246.1,116.6 
	246.1,106.9 "/>
<g>
	<path class="st0" d="M229.3,117v-4.1h-2.9v-11.2h16.3v11.2h-8.8L229.3,117z M227.9,111.4h2.9v2.3l2.6-2.3h7.9v-8.2h-13.4V111.4z"/>
</g>
<g>
	<path class="st0" d="M16.3-387.2l-0.8-1.5c-0.3-0.9-0.3-1.6-0.3-1.6h-1c0,0.1,0.1,3.2,2.5,4.8l0.5-0.8
		C16.9-386.6,16.6-386.9,16.3-387.2z"/>
	<path class="st0" d="M16.5-392.8l0.1,1c0,0,1.7-0.2,3.5,0.8l0.5-0.9C18.5-393.1,16.6-392.8,16.5-392.8z"/>
	<path class="st0" d="M19.3-400.7c0.3-0.2,0.5-0.4,0.8-0.7c0.3-0.3,0.3-0.8,0-1.1c-0.3-0.3-0.8-0.3-1.1,0c-1.8,2-3.5,1.6-5.3,1.1
		c-1.3-0.3-2.6-0.7-3.7,0.1c-1.7,1.2-1.7,3.6-1.5,5.2L5-398.4l1.6-1.1l-4.9-0.6l2.7,4.9l0.2-2.4l3.4,2.2C6.5-395,4.3-394,3.8-392
		c-0.3,1.3,0.5,2.4,1.3,3.5c1.1,1.5,2.2,2.9,1,5.3c-0.2,0.4,0,0.8,0.4,1c0.1,0,0.2,0.1,0.3,0.1c0.3,0,0.6-0.2,0.7-0.4
		c0.2-0.4,0.3-0.7,0.4-1.1l5.5-8.2l4.9,3.2l0.5-0.8l-4.9-3.1L19.3-400.7z M10.9-400c0.5-0.4,1.3-0.2,2.4,0.1
		c1.4,0.4,3.1,0.8,4.9-0.1l-4.8,7.1l-3.3-2.1c0,0,0,0,0-0.1C9.9-396.1,9.5-399,10.9-400z M8-384.8c0.1-2-1-3.4-1.8-4.6
		c-0.7-1-1.2-1.6-1-2.2c0.4-1.6,3.1-2.3,4.2-2.5h0.1c0.1,0,0.1,0,0.2,0l0,0l3.2,2.1L8-384.8z"/>
</g>
<path class="st9" d="M123.9-433.7c9.4,5.5,17,0.4,17,0.4"/>
<rect x="124.5" y="-403.9" class="st9" width="12.9" height="12.9"/>
<polyline class="st9" points="137.6,-403.9 140.4,-407.5 140.4,-394.8 137.6,-390.9 "/>
<polyline class="st9" points="124.5,-403.9 127.9,-407.5 140.4,-407.5 "/>
<ellipse class="st9" cx="131.6" cy="-364.8" rx="8.2" ry="2.2"/>
<ellipse class="st9" cx="137.3" cy="-305.2" rx="2.2" ry="8.2"/>
<path class="st9" d="M123.4-364.8v12.9c0,1.2,3.7,2.2,8.2,2.2c4.5,0,8.2-1,8.2-2.2v-12.9"/>
<polyline class="st9" points="136.9,-329.7 136.9,-329.7 123.4,-329.7 123.4,-332.6 136.9,-332.6 136.9,-332.6 "/>
<polyline class="st9" points="136.9,-329.7 136.9,-328 139.9,-331.2 136.9,-334.1 136.9,-332.7 "/>
<polyline class="st9" points="137.3,-313.5 123.8,-305.2 137.3,-297 "/>
<ellipse class="st0" cx="238.3" cy="-158.8" rx="7.2" ry="7.8"/>
<path class="st0" d="M243.9-154.9c0,3.1-2.5,6.9-5.7,6.9c-3.1,0-5.7-3.8-5.7-6.9c0-3.1,2.5-4.5,5.7-4.5S243.9-158.1,243.9-154.9z"/>
<path class="st2" d="M236.8-157.7c0,0.9-0.7,1-1.5,1s-1.5-0.1-1.5-1s0.7-1.5,1.5-1.5S236.8-158.5,236.8-157.7z"/>
<path class="st2" d="M240.6-152.1c0,1.3-1,0-2.3,0s-2.3,1.3-2.3,0s1-2.3,2.3-2.3C239.6-154.5,240.6-153.4,240.6-152.1z"/>
<path class="st2" d="M242.8-157.7c0,0.9-0.7,1-1.5,1s-1.5-0.1-1.5-1s0.7-1.5,1.5-1.5S242.8-158.5,242.8-157.7z"/>
<ellipse transform="matrix(0.2904 -0.9569 0.9569 0.2904 323.8195 123.1922)" class="st0" cx="245" cy="-156.7" rx="1.9" ry="1.1"/>
<ellipse transform="matrix(0.9569 -0.2904 0.2904 0.9569 55.5031 60.4412)" class="st0" cx="231.4" cy="-156.8" rx="1.1" ry="1.9"/>
<path class="st0" d="M147.8,126.5h-0.1c0-0.1,0-0.1,0-0.2c0-4.3-3.2-7.8-7.2-7.8s-7.2,3.5-7.2,7.8c0,0.1,0,0.1,0,0.2
	c-0.1,0-0.1,0-0.2,0c-0.6,0.2-0.8,1.1-0.5,2.1c0.3,1,1,1.6,1.6,1.5c0.2,0.4,0.4,0.8,0.7,1.1c0.5,2.9,2.8,5.8,5.6,5.8s5.1-3,5.6-5.8
	c0.3-0.3,0.5-0.7,0.7-1.1c0.6,0.1,1.2-0.5,1.5-1.5C148.6,127.6,148.3,126.7,147.8,126.5z"/>
<path class="st0" d="M242.6-74.5L242.6-74.5c-0.1-0.1-0.1-0.1-0.1-0.2c0-4.3-3.2-7.8-7.2-7.8s-7.2,3.5-7.2,7.8c0,0.1,0,0.1,0,0.2
	c-0.1,0-0.1,0-0.2,0c-0.6,0.2-0.8,1.1-0.5,2.1s1,1.6,1.6,1.5c0.2,0.4,0.4,0.8,0.7,1.1c0.5,2.9,2.8,5.8,5.6,5.8s5.1-3,5.6-5.8
	c0.3-0.3,0.5-0.7,0.7-1.1c0.6,0.1,1.2-0.5,1.5-1.5S243.3-74.4,242.6-74.5z"/>
<ellipse class="st0" cx="140.6" cy="94.4" rx="7.2" ry="7.8"/>
<path class="st0" d="M146.3,98.3c0,3.1-2.5,6.9-5.7,6.9s-5.7-3.8-5.7-6.9s2.5-4.5,5.7-4.5S146.3,95.1,146.3,98.3z"/>
<path class="st2" d="M139.1,95.5c0,0.9-0.7,1-1.5,1s-1.5-0.1-1.5-1s0.7-1.5,1.5-1.5S139.1,94.7,139.1,95.5z"/>
<path class="st2" d="M142.9,101.1c0,1.3-1,0-2.3,0s-2.3,1.3-2.3,0s1-2.3,2.3-2.3S142.9,99.8,142.9,101.1z"/>
<path class="st2" d="M145.1,95.5c0,0.9-0.7,1-1.5,1c-0.9,0-1.5-0.1-1.5-1s0.7-1.5,1.5-1.5S145.1,94.7,145.1,95.5z"/>
<ellipse transform="matrix(0.2904 -0.9569 0.9569 0.2904 12.3911 209.4505)" class="st0" cx="147.4" cy="96.4" rx="1.9" ry="1.1"/>
<ellipse transform="matrix(0.9569 -0.2904 0.2904 0.9569 -22.2317 43.0114)" class="st0" cx="133.8" cy="96.4" rx="1.1" ry="1.9"/>
<polyline class="st14" points="138.3,86.1 140.6,90.6 137.3,92.3 137.6,98.1 134.1,102.2 "/>
<polyline class="st14" points="139.1,91.3 140.6,93.5 144.6,91.8 148.9,93.2 "/>
<path class="st14" d="M141.4,106.9c0.1-0.2-0.5-3.5-0.5-3.5l3.9-2l-1.8-3.5l7.2-2.3"/>
<g>
	<path class="st2" d="M236.3-71.6c0-0.3-0.1-0.5-0.2-0.7c-0.1-0.2-0.4-0.3-0.8-0.5c-0.7-0.3-1.3-0.6-1.7-0.9s-0.6-0.8-0.6-1.4
		s0.2-1.1,0.7-1.4c0.4-0.4,1-0.6,1.7-0.6s1.2,0.2,1.7,0.6c0.4,0.4,0.6,0.9,0.6,1.6l0,0h-1.4c0-0.3-0.1-0.6-0.2-0.8
		c-0.2-0.2-0.4-0.3-0.7-0.3s-0.5,0.1-0.7,0.3s-0.2,0.4-0.2,0.6s0.1,0.4,0.3,0.6s0.5,0.3,0.9,0.5c0.7,0.2,1.2,0.5,1.5,0.9
		s0.5,0.8,0.5,1.4s-0.2,1.1-0.6,1.5c-0.4,0.4-1,0.5-1.7,0.5s-1.3-0.2-1.8-0.6s-0.7-1-0.7-1.7l0,0h1.4c0,0.4,0.1,0.8,0.3,1
		s0.5,0.3,0.9,0.3c0.3,0,0.5-0.1,0.7-0.2C236.3-71.1,236.3-71.3,236.3-71.6z"/>
</g>
<g>
	<g>
		<path class="st15" d="M233.8-84.1c0,0-1.7,0.2-2.8,0.3c-0.1,0-0.2,0.1-0.2,0.2s0,0.2,0.1,0.3c0.8,0.8,2.1,1.9,2.1,1.9
			s-0.3,1.7-0.6,2.8c0,0.1,0,0.2,0.1,0.3c0.1,0.1,0.2,0.1,0.3,0c1-0.6,2.5-1.4,2.5-1.4s1.5,0.8,2.5,1.4c0.1,0,0.2,0,0.3,0
			c0.1-0.1,0.1-0.2,0.1-0.3c-0.2-1.1-0.6-2.8-0.6-2.8s1.3-1.1,2.1-1.9c0.1-0.1,0.1-0.2,0.1-0.3s-0.1-0.2-0.2-0.2
			c-1.1-0.1-2.8-0.3-2.8-0.3s-0.7-1.5-1.2-2.6c0-0.1-0.1-0.2-0.2-0.2c-0.1,0-0.2,0.1-0.2,0.2C234.6-85.7,233.8-84.1,233.8-84.1z"/>
	</g>
</g>
<g>
	<g>
		<path class="st15" d="M240.9-80c0,0-1,0.1-1.6,0.2c-0.1,0-0.1,0-0.1,0.1s0,0.1,0,0.2c0.5,0.4,1.2,1.1,1.2,1.1s-0.2,1-0.3,1.6
			c0,0.1,0,0.1,0.1,0.2c0.1,0,0.1,0,0.2,0c0.6-0.3,1.4-0.8,1.4-0.8s0.9,0.5,1.4,0.8c0.1,0,0.1,0,0.2,0c0.1,0,0.1-0.1,0.1-0.2
			c-0.1-0.6-0.3-1.6-0.3-1.6s0.7-0.7,1.2-1.1c0,0,0.1-0.1,0-0.2s-0.1-0.1-0.1-0.1c-0.7-0.1-1.6-0.2-1.6-0.2s-0.4-0.9-0.7-1.5
			c0-0.1-0.1-0.1-0.1-0.1c-0.1,0-0.1,0-0.1,0.1C241.4-80.9,240.9-80,240.9-80z"/>
	</g>
</g>
<g>
	<g>
		<path class="st15" d="M228.1-80c0,0-1,0.1-1.6,0.2c-0.1,0-0.1,0-0.1,0.1s0,0.1,0,0.2c0.5,0.4,1.2,1.1,1.2,1.1s-0.2,1-0.3,1.6
			c0,0.1,0,0.1,0.1,0.2c0.1,0,0.1,0,0.2,0c0.6-0.3,1.4-0.8,1.4-0.8s0.9,0.5,1.4,0.8c0.1,0,0.1,0,0.2,0c0.1,0,0.1-0.1,0.1-0.2
			c-0.1-0.6-0.3-1.6-0.3-1.6s0.7-0.7,1.2-1.1c0,0,0.1-0.1,0-0.2c0-0.1-0.1-0.1-0.1-0.1c-0.7-0.1-1.6-0.2-1.6-0.2s-0.4-0.9-0.7-1.5
			c0-0.1-0.1-0.1-0.1-0.1c-0.1,0-0.1,0-0.1,0.1C228.6-80.9,228.1-80,228.1-80z"/>
	</g>
</g>
<path class="st0" d="M245.1-120.6H245c0-0.1,0-0.1,0-0.2c0-4.3-3.2-7.8-7.2-7.8s-7.2,3.5-7.2,7.8c0,0.1,0,0.1,0,0.2
	c-0.1,0-0.1,0-0.2,0c-0.6,0.2-0.8,1.1-0.5,2.1s1,1.6,1.6,1.5c0.2,0.4,0.4,0.8,0.7,1.1c0.5,2.9,2.8,5.8,5.6,5.8s5.1-3,5.6-5.8
	c0.3-0.3,0.5-0.7,0.7-1.1c0.6,0.1,1.2-0.5,1.5-1.5C245.8-119.5,245.6-120.4,245.1-120.6z"/>
<g>
	<path class="st2" d="M236.9-118.3v2.6h-1.4v-7.3h2.5c0.7,0,1.3,0.2,1.7,0.6s0.6,1,0.6,1.7s-0.2,1.3-0.6,1.7c-0.4,0.4-1,0.6-1.7,0.6
		h-1.1V-118.3z M236.9-119.4h1.1c0.3,0,0.5-0.1,0.7-0.3c0.2-0.2,0.2-0.5,0.2-0.9c0-0.3-0.1-0.6-0.2-0.9c-0.2-0.2-0.4-0.3-0.7-0.3
		h-1.1V-119.4z"/>
</g>
<path class="st2" d="M142.8,132.4c0,1.3-1,0-2.3,0s-2.3,1.3-2.3,0s1-2.3,2.3-2.3C141.8,130.1,142.8,131.1,142.8,132.4z"/>
<rect x="137.1" y="124.2" transform="matrix(0.7071 -0.7071 0.7071 0.7071 -49.1536 134.2038)" class="st2" width="0.7" height="4.5"/>
<rect x="135.2" y="126.2" transform="matrix(0.7071 -0.7071 0.7071 0.7071 -49.2167 134.2792)" class="st2" width="4.5" height="0.7"/>
<rect x="143.1" y="124.2" transform="matrix(0.7071 -0.7071 0.7071 0.7071 -47.3963 138.4465)" class="st2" width="0.7" height="4.5"/>
<rect x="141.2" y="126.2" transform="matrix(0.7071 -0.7071 0.7071 0.7071 -47.4595 138.5218)" class="st2" width="4.5" height="0.7"/>
<g>
	<g>
		<path class="st0" d="M148.4,10.1h-0.1c0-0.1,0-0.1,0-0.2c0-4.3-3.2-7.8-7.2-7.8s-7.2,3.5-7.2,7.8c0,0.1,0,0.1,0,0.2
			c-0.1,0-0.1,0-0.2,0c-0.6,0.2-0.8,1.1-0.5,2.1s1,1.6,1.6,1.5c0.2,0.4,0.4,0.8,0.7,1.1c0.5,2.9,2.8,5.8,5.6,5.8s5.1-3,5.6-5.8
			c0.3-0.3,0.5-0.7,0.7-1.1c0.6,0.1,1.2-0.5,1.5-1.5C149.3,11.2,149,10.3,148.4,10.1z"/>
	</g>
	<g>
		<path class="st2" d="M141.1-1c0.3-0.3,0.6-0.6,1-0.8c1.3-0.5,2.8,0.3,3,1.5c0.1,0.5,0,1-0.4,1.5c-1.2,1.6-2.4,3.1-3.6,4.7
			c0,0,0,0-0.1,0.1l-0.1-0.1c-1-1.5-2.2-3.1-3.4-4.6c-0.9-1.2-0.3-2.9,1.3-3.2C139.8-2,140.4-1.8,141.1-1
			C141.1-1.1,141.1-1.1,141.1-1z"/>
		<path class="st0" d="M141.1,6.5l-0.2-0.3c-0.1,0-0.1-0.1-0.1-0.1L140,5.2c-0.9-1.2-1.9-2.5-2.8-3.7c-0.5-0.6-0.6-1.5-0.3-2.2
			c0.3-0.8,1-1.3,1.9-1.5s1.7,0,2.3,0.6c0.3-0.2,0.6-0.4,0.9-0.5c0.7-0.3,1.6-0.2,2.3,0.2c0.6,0.4,1.1,1,1.2,1.6
			c0.1,0.6,0,1.2-0.5,1.8L141.1,6.5z M139.3-1.5c-0.1,0-0.3,0-0.4,0c-0.6,0.1-1.1,0.5-1.3,1c-0.2,0.6-0.1,1.1,0.2,1.6
			c0.9,1.2,1.9,2.4,2.8,3.6l0.5,0.7l3.4-4.4c0.3-0.4,0.4-0.8,0.3-1.2c-0.1-0.4-0.4-0.8-0.8-1.1c-0.5-0.3-1.1-0.3-1.7-0.1
			c-0.4,0.1-0.6,0.3-0.9,0.6l-0.2,0.4l-0.5-0.5C140.3-1.3,139.9-1.5,139.3-1.5z"/>
	</g>
	<g>
		<path class="st2" d="M135.1,3.1c0.1-0.2,0.3-0.3,0.5-0.4c0.6-0.2,1.4,0.1,1.5,0.8c0,0.3,0,0.5-0.2,0.7c-0.6,0.8-1.2,1.5-1.8,2.3
			l0,0l0,0c-0.6-0.8-1.2-1.5-1.8-2.3c-0.5-0.6-0.1-1.4,0.6-1.5C134.4,2.6,134.8,2.7,135.1,3.1C135.1,3,135.1,3.1,135.1,3.1z"/>
		<path class="st0" d="M135.1,7.1l-0.4-0.4L133,4.5c-0.3-0.4-0.4-0.9-0.2-1.3c0.2-0.5,0.6-0.8,1.1-0.9s0.9,0,1.2,0.3
			c0.1-0.1,0.2-0.2,0.4-0.2c0.4-0.2,0.9-0.1,1.3,0.1c0.3,0.2,0.6,0.5,0.7,0.9c0.1,0.4,0,0.7-0.3,1L135.1,7.1z M134.3,3
			c-0.1,0-0.1,0-0.2,0c-0.2,0-0.4,0.2-0.5,0.4s0,0.4,0.1,0.6l1.5,1.9l1.5-2c0.1-0.1,0.1-0.2,0.1-0.4s-0.1-0.3-0.3-0.4
			s-0.5-0.1-0.7,0c-0.1,0-0.2,0.1-0.3,0.2l-0.3,0.4l-0.3-0.4C134.6,3.1,134.4,3,134.3,3z"/>
	</g>
	<g>
		<path class="st2" d="M147.1,3.1c0.1-0.2,0.3-0.3,0.5-0.4c0.6-0.2,1.4,0.1,1.5,0.8c0,0.3,0,0.5-0.2,0.7c-0.6,0.8-1.2,1.5-1.8,2.3
			l0,0l0,0c-0.6-0.8-1.2-1.5-1.8-2.3c-0.5-0.6-0.1-1.4,0.6-1.6C146.4,2.6,146.8,2.7,147.1,3.1C147.1,3,147.1,3.1,147.1,3.1z"/>
		<path class="st0" d="M147.1,7.1l-0.4-0.4l-1.8-2.3c-0.3-0.4-0.4-0.9-0.2-1.3s0.6-0.8,1.1-0.9s0.9,0,1.2,0.3
			c0.1-0.1,0.2-0.2,0.4-0.2c0.4-0.2,0.9-0.1,1.3,0.1c0.4,0.2,0.6,0.6,0.7,0.9c0.1,0.4,0,0.7-0.3,1L147.1,7.1z M146.3,3
			c-0.1,0-0.1,0-0.2,0c-0.2,0-0.4,0.2-0.5,0.4s0,0.4,0.1,0.6l1.5,1.9l1.5-2c0.1-0.1,0.1-0.2,0.1-0.4s-0.1-0.3-0.3-0.4
			S147.9,3,147.8,3c-0.1,0.1-0.3,0.1-0.3,0.3l-0.3,0.4l-0.3-0.4C146.6,3.1,146.4,3,146.3,3z"/>
	</g>
	<g>
		<g>
			<path class="st2" d="M143.9,12.8L143.9,12.8c0,1-0.2,1.7-0.7,2.2s-1.1,0.7-1.9,0.7c-0.8,0-1.6-0.3-2.2-0.8
				c-0.6-0.5-0.8-1.3-0.8-2.3v-2.5c0-1,0.3-1.8,0.8-2.3s1.2-0.8,2-0.8c0.9,0,1.6,0.2,2.1,0.7s0.7,1.2,0.7,2.2l0,0h-1.6
				c0-0.6-0.1-1-0.2-1.2c-0.1-0.2-0.5-0.4-0.9-0.4s-0.7,0.1-0.9,0.4C140.1,9,140,9.4,140,10v2.6c0,0.6,0.1,1,0.3,1.3
				s0.5,0.4,0.9,0.4s0.7-0.1,0.8-0.3s0.2-0.6,0.2-1.2C142.3,12.8,143.9,12.8,143.9,12.8z"/>
		</g>
	</g>
</g>
<g>
	<g>
		<path class="st0" d="M147.8-58.1h-0.1c0-0.1,0-0.1,0-0.2c0-4.3-3.2-7.8-7.2-7.8s-7.2,3.5-7.2,7.8c0,0.1,0,0.1,0,0.2
			c-0.1,0-0.1,0-0.2,0c-0.6,0.2-0.8,1.1-0.5,2.1s1,1.6,1.6,1.5c0.2,0.4,0.4,0.8,0.7,1.1c0.5,2.9,2.8,5.8,5.6,5.8s5.1-3,5.6-5.8
			c0.3-0.3,0.5-0.7,0.7-1.1c0.6,0.1,1.2-0.5,1.5-1.5S148.3-57.9,147.8-58.1z"/>
	</g>
	<g>
		<g>
			<path class="st2" d="M141.3-52.3h-1.7v-8.5h1.7V-52.3z"/>
		</g>
	</g>
	<g>
		<path class="st0" d="M138.8-60.3c-1.5,0-3-0.1-4.6-0.2c-0.2,0-0.4-0.2-0.3-0.4c0-0.2,0.2-0.4,0.4-0.3c4.9,0.5,8.9,0.2,13.9-0.8
			c1-0.2,1.5-0.5,1.6-0.8c0.1-0.2-0.1-0.5-0.3-0.7c-0.3-0.2-0.7-0.4-1.1-0.6c-0.4-0.2-0.9-0.4-1.4-0.5c-0.2,0.2-0.5,0.5-0.8,0.7
			c-1.1,0.7-2.4,0.9-3.6,1.1c-3.7,0.5-7.5,0.2-11.1-0.7c-0.6-0.2-1.5-0.4-1.6-1.1c-0.1-0.4,0.2-0.9,0.7-1.2c0.4-0.2,0.8-0.3,1.2-0.4
			c0.9-0.2,1.8-0.3,2.7-0.4c-0.2-0.1-0.4-0.2-0.6-0.3c-0.3-0.1-0.6-0.3-0.9-0.6c-0.3-0.5-0.3-1-0.1-1.3c0.3-0.4,0.8-0.5,1.3-0.6
			c3.2-0.3,6.4-0.2,9.5,0.3c0.2,0,0.5,0.1,0.7,0.1c0,0,0,0-0.1,0c-0.5-0.3-1-0.5-1.6-0.6c-2-0.5-4.2-0.8-6.3-0.8l0,0
			c-0.2,0-0.4-0.2-0.4-0.4c0-0.2,0.3-0.4,0.5-0.4c2.2,0,4.3,0.3,6.4,0.8c0.6,0.2,1.2,0.4,1.8,0.7c0.5,0.3,0.8,0.7,1,1.1
			c0.9,0.4,1.5,0.9,1.8,1.5c0.2,0.5,0.2,1.2-0.1,1.7c0.4,0.1,0.8,0.3,1.2,0.5s0.9,0.4,1.3,0.7c0.5,0.4,0.7,0.9,0.5,1.4
			c-0.2,0.9-1.4,1.2-2.2,1.4C144.9-60.7,141.9-60.3,138.8-60.3z M136.4-66.2c-1.5,0.1-3,0.3-4.4,0.6c-0.3,0.1-0.7,0.2-1,0.3
			c-0.2,0.1-0.3,0.3-0.3,0.4s0.2,0.3,1,0.6c3.5,0.9,7.2,1.1,10.8,0.6c1.1-0.1,2.4-0.4,3.3-0.9c0.1-0.1,0.3-0.2,0.4-0.3
			c-1-0.3-2.1-0.6-3.2-0.8c-0.3,0-0.6,0.1-0.9,0.1C140.3-65.5,138.3-65.7,136.4-66.2z M144.6-66.2c0.7,0.2,1.5,0.4,2.2,0.6
			c0.2-0.4,0.3-0.8,0.1-1.2c-0.2-0.4-0.5-0.7-1-0.9C145.8-67.1,145.3-66.5,144.6-66.2L144.6-66.2z M137.8-67c1.8,0,3.5,0.2,5.2,0.5
			c0.4-0.1,0.8-0.2,1.2-0.4c0.6-0.3,0.9-0.7,0.9-1.1c-0.4-0.1-0.9-0.3-1.5-0.3c-3.1-0.5-6.2-0.6-9.3-0.3c-0.4,0-0.7,0.1-0.8,0.2
			c0,0.1,0,0.2,0.1,0.3c0.1,0.2,0.4,0.3,0.6,0.4c0.7,0.3,1.5,0.6,2.3,0.8C136.9-67,137.3-67,137.8-67z"/>
	</g>
</g>
<g>
	<g>
		<path class="st0" d="M147.8-131.3h-0.1c0-0.1,0-0.1,0-0.2c0-4.3-3.2-7.8-7.2-7.8s-7.2,3.5-7.2,7.8c0,0.1,0,0.1,0,0.2
			c-0.1,0-0.1,0-0.2,0c-0.6,0.2-0.8,1.1-0.5,2.1s1,1.6,1.6,1.5c0.2,0.4,0.4,0.8,0.7,1.1c0.5,2.9,2.8,5.8,5.6,5.8s5.1-3,5.6-5.8
			c0.3-0.3,0.5-0.7,0.7-1.1c0.6,0.1,1.2-0.5,1.5-1.5C148.6-130.1,148.3-131.1,147.8-131.3z"/>
	</g>
	<g>
		<g>
			<path class="st2" d="M142.3-130.3l-0.3,1l-0.6,0.5c-0.1,0.2-0.3,0.4-0.4,0.5c-0.2,0.1-0.4,0.2-0.6,0.2c-0.5,0-0.9-0.2-1.1-0.6
				l-0.6-0.6l-0.3-1l0.4-0.1c0,0.1,0.1,0.2,0.1,0.2c0.2,0.4,0.3,0.6,0.5,0.7c0.2,0.1,0.5,0.2,0.9,0.2c0.5,0,0.8-0.1,1-0.2
				c0.2-0.1,0.4-0.4,0.5-0.7c0-0.1,0.1-0.1,0.1-0.2L142.3-130.3z"/>
			<path class="st0" d="M140.4-127.8c-0.6,0-1-0.3-1.3-0.7l-0.6-0.5l-0.1-0.1l-0.3-1c0-0.1,0-0.1,0-0.2c0-0.1,0.1-0.1,0.2-0.1
				l0.4-0.1c0.1,0,0.2,0,0.3,0.1l0.1,0.2c0.2,0.4,0.3,0.5,0.4,0.6c0.1,0.1,0.3,0.1,0.8,0.1c0.6,0,0.8-0.1,0.9-0.1
				c0.1-0.1,0.2-0.2,0.4-0.6l0.1-0.2c0-0.1,0.2-0.2,0.3-0.1l0.4,0.1c0.1,0,0.1,0.1,0.2,0.1c0,0.1,0,0.1,0,0.2l-0.3,1
				c0,0,0,0.1-0.1,0.1l-0.6,0.5c-0.1,0.2-0.3,0.4-0.5,0.5C140.9-127.9,140.8-127.8,140.4-127.8z M138.9-129.4l0.6,0.5
				c0,0,0,0,0.1,0.1c0.2,0.3,0.5,0.5,0.9,0.5c0.2,0,0.4,0,0.5-0.1s0.3-0.2,0.3-0.4c0,0,0-0.1,0.1-0.1l0.6-0.5l0.1-0.3
				c-0.1,0.2-0.3,0.4-0.4,0.5c-0.2,0.1-0.6,0.2-1.1,0.2s-0.8-0.1-1.1-0.2c-0.2-0.1-0.3-0.3-0.4-0.5L138.9-129.4z"/>
		</g>
		<g>
			<g>
				<path class="st2" d="M140.4-127.1c0.4-0.2,1.2-0.6,2.3-1.1c0.1,0,0.2-0.1,0.4-0.2c0.4-0.4,0.7-0.7,1-0.9s0.4-0.3,0.6-0.3
					c0.1,0,0.3,0,0.3,0.1c0.1,0.1,0.1,0.2,0.1,0.4s0,0.4-0.1,0.7c0.3,0.4,0.4,0.6,0.4,0.8c0,0.2,0,0.3-0.1,0.3
					c-0.1,0.1-0.2,0.1-0.4,0.1c-0.1,0-0.2,0-0.4-0.1s-0.4-0.2-0.6-0.4c-0.6,0.1-1.5,0.5-2.7,1.1c0.2,0.1,0.3,0.2,0.3,0.2
					c0.4,0.2,0.9,0.5,1.5,0.9c0.1,0,0.2,0.2,0.5,0.3c1.2,0.1,1.9,0.5,1.9,0.9c0,0.3-0.3,0.5-1,0.6c-0.3,0.4-0.6,0.6-0.8,0.6
					s-0.5-0.3-0.7-1c0-0.1-0.1-0.2-0.1-0.3c-1-0.8-1.8-1.4-2.6-1.8c-0.9,0.5-1.8,1.2-2.6,1.9c-0.1,0.8-0.3,1.2-0.7,1.2
					c-0.2,0-0.5-0.2-0.8-0.7c-0.7,0-1-0.2-1-0.6c0-0.3,0.1-0.5,0.4-0.6c0.3-0.1,0.8-0.3,1.6-0.4c0.6-0.5,1.4-0.9,2.2-1.4
					c-1.2-0.6-2.1-0.9-2.8-1.1c-0.2,0.2-0.3,0.3-0.5,0.3c-0.1,0.1-0.3,0.1-0.4,0.1c-0.2,0-0.3,0-0.4-0.1c-0.1-0.1-0.1-0.2-0.1-0.3
					c0-0.1,0.2-0.4,0.5-0.8c-0.1-0.3-0.1-0.5-0.1-0.6c0-0.2,0-0.4,0.1-0.5s0.2-0.1,0.4-0.1s0.4,0.1,0.6,0.3c0.3,0.2,0.6,0.5,0.9,0.9
					C138.4-128.1,139.3-127.7,140.4-127.1z"/>
				<path class="st0" d="M143.8-122.7c-0.5,0-0.8-0.6-1-1.1c0-0.1,0-0.1-0.1-0.2c-0.9-0.7-1.7-1.3-2.4-1.7c-0.8,0.5-1.6,1.1-2.4,1.7
					c-0.1,0.9-0.5,1.3-0.9,1.3c-0.3,0-0.6-0.2-0.9-0.7c-1,0-1.2-0.5-1.2-0.8c0-0.4,0.2-0.7,0.5-0.8c0.3-0.1,0.8-0.3,1.7-0.4
					c0.5-0.4,1.1-0.8,1.8-1.1c-0.9-0.4-1.6-0.7-2.2-0.8c-0.2,0.1-0.3,0.2-0.4,0.3c-0.4,0.2-0.8,0.2-1.1,0c-0.1-0.1-0.2-0.2-0.2-0.5
					c0-0.1,0.1-0.3,0.4-0.8c-0.1-0.2-0.1-0.4-0.1-0.6c0-0.3,0.1-0.5,0.2-0.6c0.2-0.2,0.6-0.4,1.3,0.1c0.3,0.2,0.6,0.5,0.9,0.9
					c0.8,0.3,1.7,0.7,2.7,1.2c0.5-0.2,1.2-0.6,2.3-1c0,0,0.2-0.1,0.4-0.2c0.4-0.4,0.7-0.7,1-0.9s0.5-0.4,0.7-0.4
					c0.3,0,0.4,0.1,0.5,0.2c0.1,0.1,0.2,0.3,0.2,0.6c0,0.2,0,0.3-0.1,0.6c0.3,0.4,0.4,0.7,0.4,0.9c0,0.2-0.1,0.4-0.2,0.5
					s-0.3,0.2-0.5,0.2c-0.1,0-0.3,0-0.5-0.2c-0.2-0.1-0.3-0.2-0.6-0.3c-0.5,0.1-1.2,0.4-2.1,0.8c0.4,0.2,0.9,0.5,1.5,0.9
					c0.1,0,0.2,0.1,0.5,0.3c0.6,0.1,2,0.3,2,1.2c0,0.4-0.4,0.7-1.1,0.9C144.3-122.9,144.1-122.7,143.8-122.7z M140.3-126.3h0.1
					c0.8,0.4,1.7,1,2.6,1.8l0.1,0.1c0.1,0.1,0.1,0.2,0.1,0.3c0.3,0.8,0.5,0.8,0.5,0.8s0.2,0,0.6-0.5c0,0,0.1-0.1,0.2-0.1
					c0.5-0.1,0.8-0.2,0.8-0.4c0-0.3-0.6-0.6-1.6-0.7h-0.1c-0.3-0.2-0.4-0.3-0.5-0.3c-0.6-0.4-1.1-0.7-1.5-0.9l-0.3-0.2
					c-0.1,0-0.1-0.1-0.1-0.2s0.1-0.2,0.1-0.2c1.2-0.6,2.1-1,2.8-1.1c0.1,0,0.1,0,0.2,0c0.3,0.2,0.5,0.3,0.6,0.4
					c0.2,0.1,0.3,0.1,0.3,0.1c0.1,0,0.2,0,0.2,0s0-0.1,0-0.2c0,0,0-0.2-0.4-0.7c0-0.1-0.1-0.1-0.1-0.2c0-0.3,0.1-0.5,0.1-0.6
					c0-0.2,0-0.2-0.1-0.3c0,0,0,0-0.1,0c0,0-0.1,0-0.4,0.3c-0.2,0.2-0.6,0.5-1,0.9c0,0-0.1,0-0.1,0.1c-0.2,0.1-0.4,0.2-0.4,0.2
					c-1.1,0.5-1.9,0.8-2.3,1.1c-0.1,0-0.2,0-0.2,0c-1.1-0.6-2-1-2.8-1.3c0,0-0.1,0-0.1-0.1c-0.3-0.4-0.6-0.7-0.9-0.9
					s-0.4-0.3-0.5-0.3s-0.2,0-0.2,0.1c0,0-0.1,0.1-0.1,0.3c0,0.1,0,0.3,0.1,0.6c0,0.1,0,0.1,0,0.2c-0.4,0.5-0.4,0.6-0.4,0.6
					c0,0.1,0,0.1,0,0.1c0.1,0.1,0.3,0.1,0.5,0c0.1-0.1,0.3-0.2,0.4-0.3c0.1,0,0.1-0.1,0.2-0.1c0.7,0.1,1.7,0.5,2.9,1.1
					c0.1,0,0.1,0.1,0.1,0.2s0,0.2-0.1,0.2c-0.8,0.5-1.6,0.9-2.2,1.4h-0.1c-1,0.1-1.4,0.3-1.6,0.4s-0.2,0.2-0.2,0.4
					c0,0.2,0.3,0.3,0.8,0.3c0.1,0,0.2,0,0.2,0.1c0.3,0.5,0.5,0.5,0.6,0.5c0.2,0,0.4-0.3,0.5-0.9c0-0.1,0-0.1,0.1-0.1
					c0.8-0.7,1.7-1.4,2.7-1.9C140.3-126.3,140.3-126.3,140.3-126.3z"/>
			</g>
			<g>
				<path class="st2" d="M142.9-136.9c-0.7-0.6-1.5-0.9-2.6-0.9s-1.9,0.3-2.6,0.9c-0.7,0.6-1,1.3-1,2.2c0,0.8,0.1,1.4,0.3,1.7
					c0.3,0.5,0.4,0.8,0.4,1l0.1,0.9l1.4,0.7l0.2,0.5c0.1,0,0.3,0.1,0.5,0.1s0.4,0,0.6,0c0.4,0,0.8,0,1.1-0.1l0.2-0.5l1.4-0.7
					l0.1-0.9c0-0.2,0.1-0.3,0.1-0.4c0.4-0.8,0.7-1.5,0.7-2.3C143.9-135.6,143.6-136.3,142.9-136.9z M138.8-132c-0.6,0-0.9-0.3-0.9-1
					c0-0.3,0.1-0.6,0.2-0.7c0.1-0.2,0.4-0.2,0.7-0.2c0.6,0,0.8,0.3,0.8,0.9C139.8-132.3,139.4-132,138.8-132z M140.6-130.6
					c-0.1,0-0.2,0-0.2-0.1c-0.1,0.1-0.2,0.1-0.2,0.1c-0.1,0-0.2,0-0.3-0.1s-0.1-0.1-0.1-0.2c0-0.1,0.1-0.2,0.2-0.4
					c0.1-0.2,0.3-0.3,0.4-0.5c0.1,0.2,0.2,0.4,0.4,0.5c0.2,0.2,0.2,0.3,0.2,0.4C141.1-130.7,140.9-130.6,140.6-130.6z M141.9-132
					c-0.6,0-0.9-0.3-0.9-1c0-0.6,0.3-0.9,0.9-0.9c0.3,0,0.5,0.1,0.6,0.2c0.1,0.1,0.2,0.4,0.2,0.7C142.8-132.3,142.6-132,141.9-132z"
					/>
				<path class="st0" d="M140.3-129.5c-0.2,0-0.4,0-0.6,0s-0.4-0.1-0.5-0.1s-0.1-0.1-0.2-0.1l-0.2-0.4l-1.4-0.6
					c-0.1,0-0.1-0.1-0.1-0.2l-0.1-0.9c0-0.1-0.1-0.3-0.4-0.9c-0.2-0.4-0.4-1-0.4-1.8c0-1,0.4-1.8,1.1-2.4c0.7-0.6,1.6-0.9,2.8-0.9
					c1.1,0,2.1,0.3,2.8,0.9l0,0c0.7,0.6,1.1,1.4,1.1,2.4c0,0.8-0.2,1.6-0.7,2.4c0,0,0,0.1-0.1,0.3l-0.1,0.9c0,0.1-0.1,0.2-0.1,0.2
					l-1.4,0.6l-0.2,0.4c0,0.1-0.1,0.1-0.2,0.1C141.3-129.6,140.8-129.5,140.3-129.5z M139.6-130.1c0.1,0,0.2,0,0.3,0.1
					c0.2,0,0.4,0,0.6,0c0.4,0,0.6,0,0.9-0.1l0.2-0.4c0-0.1,0.1-0.1,0.1-0.1l1.3-0.6l0.1-0.7c0-0.2,0.1-0.3,0.1-0.4
					c0.4-0.7,0.6-1.5,0.6-2.2c0-0.8-0.3-1.5-0.9-2c-0.6-0.5-1.4-0.8-2.4-0.8s-1.8,0.3-2.4,0.8c-0.6,0.5-0.9,1.2-0.9,2
					c0,0.7,0.1,1.3,0.3,1.6c0.4,0.7,0.5,0.9,0.5,1.1l0.1,0.7l1.3,0.6c0.1,0,0.1,0.1,0.1,0.1L139.6-130.1z M140.6-130.4
					c-0.1,0-0.2,0-0.2-0.1c-0.3,0.1-0.5,0-0.7-0.1c-0.1-0.1-0.2-0.2-0.2-0.4s0.1-0.4,0.3-0.6c0.1-0.1,0.2-0.3,0.4-0.5
					c0-0.1,0.1-0.1,0.2-0.1l0,0c0.1,0,0.2,0,0.2,0.1c0.1,0.2,0.2,0.4,0.4,0.5c0.2,0.2,0.3,0.4,0.3,0.6c0,0.2-0.1,0.3-0.2,0.4
					C141.1-130.4,140.8-130.4,140.6-130.4z M140.4-130.9h0.1c0.1,0,0.1,0,0.1,0c0.1,0,0.1,0,0.1,0s0,0,0-0.1l0,0c0,0,0-0.1-0.2-0.3
					c-0.1-0.1-0.1-0.2-0.2-0.3c-0.1,0.1-0.1,0.2-0.2,0.2c-0.2,0.2-0.2,0.3-0.2,0.3c0,0.1,0,0.1,0.1,0.1c0,0,0,0,0.1,0
					C140.3-130.9,140.3-130.9,140.4-130.9z M141.9-131.7c-0.4,0-1.1-0.2-1.1-1.2c0-0.8,0.4-1.2,1.1-1.2c0.3,0,0.6,0.1,0.8,0.3
					s0.3,0.5,0.3,0.8C143.1-131.9,142.3-131.7,141.9-131.7z M141.9-133.7c-0.5,0-0.6,0.2-0.6,0.7c0,0.6,0.3,0.7,0.6,0.7
					s0.6-0.1,0.6-0.8c0-0.2,0-0.4-0.1-0.5C142.3-133.6,142.1-133.7,141.9-133.7z M138.8-131.7c-0.4,0-1.1-0.2-1.1-1.2
					c0-0.4,0.1-0.7,0.3-0.9s0.5-0.3,0.8-0.3c0.7,0,1.1,0.4,1.1,1.1C140.1-131.9,139.3-131.7,138.8-131.7z M138.9-133.7
					c-0.2,0-0.4,0.1-0.5,0.2c-0.1,0.1-0.2,0.3-0.2,0.5c0,0.6,0.3,0.7,0.6,0.7s0.6-0.1,0.6-0.8C139.6-133.5,139.3-133.7,138.9-133.7z
					"/>
			</g>
		</g>
	</g>
</g>
<g>
	<path class="st1" d="M137.4-170.1c0,0,1.5-1.6,0.9-2.6s-2.3-2.6-2.3-3c-0.1-0.4-0.5-3.6-1-3.9c-0.5-0.3-0.9,1.4-0.5,2.7
		c0.3,1.4-0.9,0.2-1.1-0.2s-1.8-2.6-2.3-2.2s0,1.1,0.4,1.6s1.6,2,1.3,2.2s-4-3.1-4.5-2.7c-0.5,0.4-0.5,1,0.1,1.4s3.9,2.2,3.9,2.6
		s-1.1,0.3-2.4-0.1c-1.3-0.4-3-0.4-3,0.2c0,0.6,5.4,2.2,6.1,2.7c0.8,0.4,0.3,1-0.2,1.1s-1.9,1.2-2.3,1.9c-0.4,0.7,0.3,1.2,0.7,0.8
		s2.4-1.6,3-1.4C134.8-168.8,136.3-169.1,137.4-170.1z"/>
	<polygon class="st1" points="138.4,-172.7 148.6,-165.9 145.4,-162.3 135.6,-170.4 	"/>
	<path class="st15" d="M137.6-160.5c-1.2-0.9-2.5-1.8-3.7-2.8c0.1-0.1,1.5-2,1.5-2.1c0.5-0.6,1-1.2,1.4-1.9c0-0.1,0.1-0.2,0.1-0.3
		c-0.2-1.2-0.4-2.4-0.5-3.6c-0.1-0.6,0.2-1,0.8-1c0.4-0.1,0.8-0.1,1.2-0.2c0.1,0,0.1,0,0.2,0c0.2,0,0.2,0.2,0.2,0.3
		c-0.1,0.2-0.3,0.5-0.4,0.7c-0.1,0.2-0.1,0.3,0,0.3c0.1,0.1,0.2,0,0.3-0.1c0.3-0.4,0.6-0.9,0.9-1.3c0.5-0.6,1.3-0.5,1.6,0.2
		c0.1,0.2,0.2,0.2,0.3,0.1c0.1,0,0.1-0.1,0.2-0.1c0.3-0.1,0.7-0.1,1,0.1c0.3,0.2,0.4,0.5,0.3,0.9c0,0.3,0,0.4,0.3,0.4
		c0.7,0.1,0.9,0.7,0.7,1.3c-0.1,0.2,0,0.4,0.2,0.6c0.1,0.1,0.1,0.1,0.2,0.2c0.3,0.3,0.5,0.7,0.2,1.1c-0.6,0.9-1.4,1.6-2.4,2.1
		c-0.4,0.2-0.8,0.2-1.2,0.2c-0.1,0-0.2,0-0.3,0.1c-0.6,0.9-1.3,1.9-2,2.8C138.9-162.3,137.6-160.5,137.6-160.5z"/>
</g>
<g>
	<polygon class="st2" points="232.6,-124.4 235.8,-127.6 232.6,-130.8 234.4,-132.7 237.8,-129.5 240.9,-132.7 242.8,-130.8 
		239.6,-127.6 242.8,-124.4 240.9,-122.6 237.8,-125.8 234.4,-122.6 	"/>
	<polygon class="st16" points="232.6,-124.4 235.8,-127.6 232.6,-130.8 234.4,-132.7 237.8,-129.5 240.9,-132.7 242.8,-130.8 
		239.6,-127.6 242.8,-124.4 240.9,-122.6 237.8,-125.8 234.4,-122.6 	"/>
</g>
<g>
	<polygon class="st2" points="228.1,-122.5 229.4,-123.9 228.1,-125.4 229.3,-126.6 230.8,-125.1 232.1,-126.6 233.3,-125.4 
		231.9,-123.9 233.3,-122.5 232.1,-121.2 230.8,-122.7 229.3,-121.2 	"/>
	<polygon class="st16" points="228.1,-122.5 229.4,-123.9 228.1,-125.4 229.3,-126.6 230.8,-125.1 232.1,-126.6 233.3,-125.4 
		231.9,-123.9 233.3,-122.5 232.1,-121.2 230.8,-122.7 229.3,-121.2 	"/>
</g>
<g>
	<polygon class="st2" points="243.1,-122.5 244.4,-123.9 243.1,-125.4 244.3,-126.6 245.8,-125.1 247.1,-126.6 248.3,-125.4 
		246.9,-123.9 248.3,-122.5 247.1,-121.2 245.8,-122.7 244.3,-121.2 	"/>
	<polygon class="st16" points="243.1,-122.5 244.4,-123.9 243.1,-125.4 244.3,-126.6 245.8,-125.1 247.1,-126.6 248.3,-125.4 
		246.9,-123.9 248.3,-122.5 247.1,-121.2 245.8,-122.7 244.3,-121.2 	"/>
</g>
<path class="st4" d="M239.6-312.8h-8.8l-4.4,7.6l4.4,7.6h8.8l4.4-7.6L239.6-312.8z M237.8-302.2h-4.9v-6.8h1.4v5.3h3.5V-302.2z"/>
<g>
	<polygon class="st0" points="418,-427.3 411.5,-433 404.8,-427.3 402.9,-429.6 411.5,-436.9 420,-429.6 	"/>
</g>
<g>
	<path class="st0" d="M407.8-406.6l-1.7,2.7h-2.4l2.8-4.1l-2.6-3.9h2.4l1.6,2.5l1.5-2.5h2.4l-2.6,3.9l2.8,4.1h-2.4L407.8-406.6z"/>
	<path class="st0" d="M412.5-411.9h4c1.8,0,2.8,1.2,2.8,2.7c0,1.4-1,2.6-2.8,2.6h-1.9v2.7h-2.1V-411.9z M416.3-410.2h-1.7v1.8h1.7
		c0.6,0,1-0.3,1-0.9C417.3-409.8,416.8-410.2,416.3-410.2z"/>
</g>
<text transform="matrix(1 0 0 1 32.35 -427.1071)" style="font-family:'Verdana-Bold'; font-size:8px;">Melee</text>
<text transform="matrix(1 0 0 1 32.3495 -390.9)" style="font-family:'Verdana-Bold'; font-size:8px;">Ranged</text>
<text transform="matrix(1 0 0 1 32.3498 -352.45)" style="font-family:'Verdana-Bold'; font-size:8px;">Thrown</text>
<text transform="matrix(1 0 0 1 32.3496 -316.2001)" style="font-family:'Verdana-Bold'; font-size:8px;">Melee Spell</text>
<text transform="matrix(1 0 0 1 32.3502 -278.7784)" style="font-family:'Verdana-Bold'; font-size:8px;">Ranged Spell</text>
<text transform="matrix(1 0 0 1 151.9706 -429.2)" style="font-family:'Verdana-Bold'; font-size:8px;">Sphere</text>
<text transform="matrix(1 0 0 1 151.9706 -396.2)" style="font-family:'Verdana-Bold'; font-size:8px;">Cube</text>
<text transform="matrix(1 0 0 1 151.9705 -354.2001)" style="font-family:'Verdana-Bold'; font-size:8px;">Cylinder</text>
<text transform="matrix(1 0 0 1 151.9706 -327.0339)" style="font-family:'Verdana-Bold'; font-size:8px;">Line</text>
<text transform="matrix(1 0 0 1 151.9705 -300.7769)" style="font-family:'Verdana-Bold'; font-size:8px;">Cone</text>
<text transform="matrix(1 0 0 1 258.0437 -428.7585)" style="font-family:'Verdana-Bold'; font-size:8px;">Casting Time</text>
<text transform="matrix(1 0 0 1 258.0437 -402.2)" style="font-family:'Verdana-Bold'; font-size:8px;">Ritual Casting</text>
<text transform="matrix(1 0 0 1 258.0437 -370)" style="font-family:'Verdana-Bold'; font-size:8px;">Concentration</text>
<text transform="matrix(1 0 0 1 31.2546 -200.175)" style="font-family:'Verdana-Bold'; font-size:8px;">Acid</text>
<text transform="matrix(1 0 0 1 31.2546 -165.3641)" style="font-family:'Verdana-Bold'; font-size:8px;">Poison</text>
<text transform="matrix(1 0 0 1 31.2546 -129.9)" style="font-family:'Verdana-Bold'; font-size:8px;">Cold</text>
<text transform="matrix(1 0 0 1 31.2546 -93.2)" style="font-family:'Verdana-Bold'; font-size:10px;">Fire</text>
<text transform="matrix(1 0 0 1 31.2546 -58.3)" style="font-family:'Verdana-Bold'; font-size:8px;">Force</text>
<text transform="matrix(1 0 0 1 31.2546 -21.3)" style="font-family:'Verdana-Bold'; font-size:8px;">Lightning</text>
<text transform="matrix(1 0 0 1 31.2546 15.7)" style="font-family:'Verdana-Bold'; font-size:8px;">Bludgeoning</text>
<text transform="matrix(1 0 0 1 32.3504 50.3501)" style="font-family:'Verdana-Bold'; font-size:8px;">Piercing</text>
<text transform="matrix(1 0 0 1 32.3495 89.7)" style="font-family:'Verdana-Bold'; font-size:8px;">Necrotic</text>
<text transform="matrix(1 0 0 1 32.3495 124.7112)" style="font-family:'Verdana-Bold'; font-size:8px;">Psychic</text>
<text transform="matrix(1 0 0 1 32.3495 158.2477)" style="font-family:'Verdana-Bold'; font-size:8px;">Radiant</text>
<text transform="matrix(1 0 0 1 32.3504 197.4402)" style="font-family:'Verdana-Bold'; font-size:8px;">Slashing</text>
<text transform="matrix(1 0 0 1 32.3504 230.8)" style="font-family:'Verdana-Bold'; font-size:8px;">Thunder</text>
<text transform="matrix(1 0 0 1 157.0358 -205.6998)" style="font-family:'Verdana-Bold'; font-size:8px;">Blinded</text>
<text transform="matrix(1 0 0 1 157.0361 -164.3002)" style="font-family:'Verdana-Bold'; font-size:8px;">Grappled</text>
<text transform="matrix(1 0 0 1 157.0361 -126.2502)" style="font-family:'Verdana-Bold'; font-size:8px;">Poisoned</text>
<text transform="matrix(1 0 0 1 157.0361 -93.9511)" style="font-family:'Verdana-Bold'; font-size:8px;">Deafened</text>
<text transform="matrix(1 0 0 1 157.0361 -51.3)" style="font-family:'Verdana-Bold'; font-size:8px;">Incapacitated</text>
<text transform="matrix(1 0 0 1 157.0361 -15.4771)" style="font-family:'Verdana-Bold'; font-size:8px;">Prone</text>
<text transform="matrix(1 0 0 1 157.0361 13.3)" style="font-family:'Verdana-Bold'; font-size:8px;">Charmed</text>
<text transform="matrix(1 0 0 1 157.0361 51.4998)" style="font-family:'Verdana-Bold'; font-size:8px;">Invisible</text>
<text transform="matrix(1 0 0 1 157.0361 99.5)" style="font-family:'Verdana-Bold'; font-size:8px;">Petrified</text>
<text transform="matrix(1 0 0 1 157.0364 130.1004)" style="font-family:'Verdana-Bold'; font-size:8px;">Unconcsious</text>
<text transform="matrix(1 0 0 1 256.2298 -200.175)" style="font-family:'Verdana-Bold'; font-size:8px;">Restrained</text>
<text transform="matrix(1 0 0 1 256.2298 -154.9402)" style="font-family:'Verdana-Bold'; font-size:8px;">Frightened</text>
<text transform="matrix(1 0 0 1 256.2298 -116.8714)" style="font-family:'Verdana-Bold'; font-size:8px;">Paralyzed</text>
<text transform="matrix(1 0 0 1 256.2298 -72.3943)" style="font-family:'Verdana-Bold'; font-size:8px;">Stunned</text>
<text transform="matrix(1 0 0 1 256.2298 -33.9723)" style="font-family:'Verdana-Bold'; font-size:8px;">Exhausted</text>
</svg>
