<?xml version="1.0" encoding="UTF-8"?>
<svg width="79px" height="90px" viewBox="0 0 79 90" version="1.1" xmlns="http://www.w3.org/2000/svg" xmlns:xlink="http://www.w3.org/1999/xlink">
    <g id="Page-1" stroke="none" stroke-width="1" fill="none" fill-rule="evenodd">
        <g id="Sheet_Desktop_Static" transform="translate(-1390.000000, -461.000000)">
            <g id="Page-1" transform="translate(1390.000000, 461.000000)">
                <path d="M66.2606743,9.29732608 L39.0024497,1 L11.7393257,9.29732608 C11.7393257,9.29732608 10.6353439,23.3998543 1,25.3441336 L1,44.6048545 C1,44.6048545 10.0196618,80.3025394 39.0024497,88 C67.9819713,80.3025394 77,44.6048545 77,44.6048545 L77,25.3441336 C67.363023,23.3998543 66.2606743,9.29732608 66.2606743,9.29732608" id="Fill-1" fill="#FEFEFE"></path>
                <path d="M78.027353,24.5461973 C69.3344236,22.7977995 68.184034,9.65540406 68.1741594,9.52304871 L68.1050373,8.6847982 L39.5016458,0 L10.8949627,8.6847982 L10.8258406,9.52304871 C10.815966,9.65540406 9.66393067,22.7977995 0.972646973,24.5461973 L0,24.7406453 L0,45.1102961 L0.0362068247,45.4174912 C0.130015416,45.783511 9.64582726,82.0897257 39.1971793,89.9182992 L39.5016458,90 L39.8028207,89.9182992 C69.3541727,82.0897257 78.8699846,45.783511 78.9621474,45.4174912 L79,24.7406453 L78.027353,24.5461973 Z M76.5889546,44.9452604 C75.9191284,47.4044554 66.5086455,80.0782512 39.5016458,87.4591042 C12.4913545,80.0782512 3.08087163,47.4044554 2.41104537,44.9452604 L2.41104537,26.7194394 C10.7484896,24.3027288 12.7299904,13.688157 13.1381401,10.5671853 L39.5016458,2.56377204 L65.8602142,10.5671853 C66.2667181,13.688157 68.2498646,24.3027288 76.5889546,26.7194394 L76.5889546,44.9452604 Z M63.3718178,13.2322664 L63.2928211,12.8401024 L41.2971751,6.16024256 C41.2181784,5.2092449 40.4578351,4.45432924 39.5032915,4.45432924 C38.5454564,4.45432924 37.7851131,5.20761089 37.7061164,6.16024256 L15.7071789,12.8417364 L15.6281822,13.2339004 C14.9896254,16.4251348 12.9126703,23.8697144 7.06197658,27.7341637 C6.74928128,27.4808911 6.37240115,27.3060513 5.94121078,27.3060513 C4.93235699,27.3060513 4.11605766,28.1393998 4.11605766,29.1671962 C4.11605766,29.9580602 4.60155827,30.624739 5.28290488,30.8927177 L5.28290488,44.4403493 L5.30923712,44.6298952 C6.24896879,47.8636141 14.9797508,75.816736 37.6929503,83.8217833 C37.7472605,84.8038272 38.5257073,85.5848872 39.5032915,85.5848872 C40.4891046,85.5848872 41.284009,84.780951 41.3152785,83.7825669 C50.6089121,80.5161677 58.6237865,73.6957824 65.1344319,63.3949418 C70.4667097,54.9536121 73.032457,46.8995443 73.6891171,44.6331633 L73.7138036,30.8943517 C74.396796,30.626373 74.8855881,29.9596943 74.8855881,29.1671962 C74.8855881,28.1393998 74.067643,27.3060513 73.0587892,27.3060513 C72.6275989,27.3060513 72.2474272,27.4808911 71.9363777,27.7341637 C66.0873297,23.8697144 64.0087288,16.4251348 63.3718178,13.2322664 L63.3718178,13.2322664 Z M40.8890255,82.5488843 C40.5516437,82.1403802 40.0677888,81.8625974 39.5032915,81.8625974 C38.9355027,81.8625974 38.4500021,82.1403802 38.1159118,82.5505183 C16.2305321,74.831424 7.64622307,47.9093665 6.59787092,44.3423083 L6.59787092,30.8943517 C7.28250906,30.624739 7.76800967,29.9596943 7.76800967,29.1671962 C7.76800967,29.0740573 7.72851131,28.9923564 7.71369943,28.9024855 C13.7948002,24.9269231 16.0708929,17.4627353 16.8345277,13.8956771 L38.0846423,7.44621362 C38.4220241,7.88086203 38.9173993,8.17661904 39.5032915,8.17661904 C40.0858923,8.17661904 40.5829132,7.88086203 40.9170035,7.44621362 L62.1638265,13.8956771 C62.9274614,17.4611013 65.2051998,24.9269231 71.2846548,28.9041195 C71.2714887,28.9956245 71.2319903,29.0740573 71.2319903,29.1671962 C71.2319903,29.9596943 71.7174909,30.624739 72.4021291,30.8927177 L72.4021291,44.3439423 C71.3537769,47.9110006 62.7678222,74.831424 40.8890255,82.5488843 L40.8890255,82.5488843 Z" id="Fill-3" fill="#C53131"></path>
            </g>
        </g>
    </g>
</svg>