<?xml version="1.0" encoding="utf-8"?>
<!-- Generator: Adobe Illustrator 24.0.1, SVG Export Plug-In . SVG Version: 6.00 Build 0)  -->
<svg version="1.1" id="Layer_1" xmlns="http://www.w3.org/2000/svg" xmlns:xlink="http://www.w3.org/1999/xlink" x="0px" y="0px"
	 viewBox="0 0 24 24" style="enable-background:new 0 0 24 24;" xml:space="preserve">
<style type="text/css">
	.st0{fill:#262324;}
	.st1{fill:#242528;}
	.st2{fill:#FCFDFF;}
</style>
<g>
	<polygon class="st0" points="7.6,17 2.2,17.9 5.9,14.8 1.9,11.4 6,11.4 1.9,2.1 7.3,6.6 6.4,3.1 8.5,4.9 10,2.5 11.7,5.6 13.4,2.7 
		12.4,15.6 	"/>
	<g>
		<polygon class="st1" points="6.9,21.3 10.4,15.4 9.9,15.1 10.5,14 9,13.1 8.5,14 5.9,12.5 9.7,6 12.2,7.5 11.7,8.3 13.2,9.2 
			15.3,6.8 18,9.5 16.7,11.2 18.3,12.1 18.8,11.3 21.4,12.8 17.6,19.2 15.1,17.8 15.6,16.9 13.9,16 13.3,17 12.8,16.7 10.1,21.3 		
			"/>
		<path class="st2" d="M9.9,6.7l1.7,1l-3.2,5.6l-1.7-1L9.9,6.7 M15.3,7.5l2,2l-1.1,1.3l-2.6-1.5L15.3,7.5 M11.5,8.8l6.5,3.8
			l-2.3,3.9l-6.5-3.8L11.5,8.8 M19,12l1.7,1l-3.2,5.6l-1.7-1L19,12L19,12 M10.9,14.3L10.9,14.3L10.9,14.3 M10.9,14.3l2.6,1.5
			l-0.3,0.6l-2.6-1.5L10.9,14.3 M10.8,15.7l1.5,0.9l-2.5,4.3h-2L10.8,15.7L10.8,15.7 M9.5,5.3L9,6.2l-3.2,5.6l-0.5,0.9l0.9,0.5
			l1.7,1l0.9,0.5l0.5-0.9l0.6,0.4l-0.1,0.2l-0.5,0.9l0.5,0.3L7,20.4l-0.9,1.5h1.7h2h0.6l0.3-0.5l2.3-3.9l0.5,0.3l0.5-0.9l0.1-0.2
			l0.8,0.5l-0.5,0.9l0.9,0.5l1.7,1l0.9,0.5l0.5-0.9l3.2-5.6l0.5-0.9l-0.9-0.5l-1.7-1l-0.9-0.5l-0.5,0.8l-0.7-0.4l0.7-0.8l0.6-0.7
			L18.1,9l-2-2l-0.8-0.8L14.6,7l-1.4,1.6l-0.7-0.4L13,7.4l-0.9-0.5l-1.7-1L9.5,5.3L9.5,5.3z"/>
	</g>
</g>
</svg>
