<?xml version="1.0" encoding="utf-8"?>
<!-- Generator: Adobe Illustrator 24.0.1, SVG Export Plug-In . SVG Version: 6.00 Build 0)  -->
<svg version="1.1" id="Layer_1" xmlns="http://www.w3.org/2000/svg" xmlns:xlink="http://www.w3.org/1999/xlink" x="0px" y="0px"
	 viewBox="0 0 24 24" style="enable-background:new 0 0 24 24;" xml:space="preserve">
<style type="text/css">
	.st0{fill:none;stroke:#242528;stroke-miterlimit:10;}
	.st1{fill:#242528;stroke:#242528;stroke-miterlimit:10;}
</style>
<g>
	<line class="st0" x1="20.8" y1="7.2" x2="17.8" y2="11.2"/>
	<line class="st0" x1="16.8" y1="3.2" x2="8.8" y2="9.2"/>
	<g>
		<path class="st1" d="M1.9,18.2c-0.3,1.2,0.1,2.4,1,3.2c1,0.8,2.4,0.8,3.5,0.2l0.3,0.7l6-1c0,0-2.7,0-3,0s4-3,4-3
			c-1.3,0.3-3.5,0.7-4.5,0.9L20.7,3.3l-15,10.8v-3.8l-1.7,5l-0.4,0.3l-0.9-4.4l-1,7C1.7,18.2,1.9,18.2,1.9,18.2z M4.8,16.2
			c1.9-0.4,4.2-1.2,5.7-2.7c0.2-0.2,0.3-0.3,0.3-0.3c-0.1,0.1-0.2,0.2-0.3,0.3c-0.7,0.7-2.1,2.6-1.7,4.7c0.5,2.7-3.5,1.8-5,3
			C4.3,19.4,2.8,16.7,4.8,16.2z"/>
		<path class="st1" d="M10.8,13.2c-0.1,0.1-0.2,0.2-0.3,0.3C10.6,13.4,10.8,13.2,10.8,13.2z"/>
	</g>
</g>
</svg>
