<?xml version="1.0" encoding="utf-8"?>
<!-- Generator: Adobe Illustrator 24.0.1, SVG Export Plug-In . SVG Version: 6.00 Build 0)  -->
<svg version="1.1" id="Layer_1" xmlns="http://www.w3.org/2000/svg" xmlns:xlink="http://www.w3.org/1999/xlink" x="0px" y="0px"
	 viewBox="0 0 24 24" style="enable-background:new 0 0 24 24;" xml:space="preserve">
<style type="text/css">
	.st0{fill:#242528;}
</style>
<g>
	<g>
		<path class="st0" d="M15.4,17.1L15,19l-1.1,0.9c-0.2,0.4-0.4,0.6-0.8,0.8C12.7,20.9,12.4,21,12,21c-0.9,0-1.5-0.4-1.9-1.1L9,19
			l-0.4-1.8L9.1,17c0.1,0.2,0.1,0.3,0.2,0.4c0.3,0.6,0.6,1,0.9,1.3c0.3,0.2,0.9,0.3,1.6,0.3c0.9,0,1.4-0.1,1.8-0.3
			c0.3-0.2,0.6-0.6,0.9-1.3c0-0.1,0.1-0.2,0.2-0.4L15.4,17.1z"/>
		<path class="st0" d="M16.5,4.1c-1.2-1-2.7-1.5-4.5-1.5S8.5,3.1,7.5,4.1C6.3,5.1,5.8,6.5,5.8,8c0,1.4,0.2,2.4,0.6,3
			c0.5,0.8,0.7,1.4,0.8,1.7l0.2,1.5l2.5,1.2l0.4,0.9c0.2,0.1,0.5,0.1,0.8,0.2c0.3,0,0.7,0.1,1,0.1c0.8,0,1.4-0.1,1.8-0.2l0.4-0.9
			l2.5-1.2l0.2-1.5c0-0.3,0.1-0.5,0.2-0.6c0.8-1.3,1.1-2.7,1.1-4C18.2,6.4,17.7,5.1,16.5,4.1z M9.4,12.6c-1,0-1.5-0.6-1.5-1.7
			c0-0.5,0.1-1,0.4-1.2c0.3-0.3,0.6-0.4,1.2-0.4c1,0,1.5,0.5,1.5,1.5C10.9,12,10.4,12.6,9.4,12.6z M12.5,15c-0.1,0-0.3,0-0.4-0.1
			C11.9,15,11.7,15,11.6,15c-0.2,0-0.4,0-0.5-0.1S11,14.8,11,14.5c0-0.2,0.1-0.4,0.4-0.8c0.2-0.3,0.4-0.6,0.7-0.9
			c0.2,0.3,0.4,0.7,0.7,0.9c0.3,0.3,0.4,0.6,0.4,0.7C13.2,14.9,12.9,15,12.5,15z M14.7,12.6c-1,0-1.5-0.6-1.5-1.7s0.5-1.6,1.5-1.6
			c0.5,0,0.9,0.1,1.1,0.4s0.4,0.6,0.4,1.1C16.2,12,15.7,12.6,14.7,12.6z"/>
	</g>
	<polygon class="st0" points="5.7,14.1 2.6,14.1 6.7,15.9 	"/>
	<polygon class="st0" points="6.2,17.5 2.6,19 6.7,18.5 	"/>
	<polygon class="st0" points="7.2,19.5 5.4,21.4 7.9,20.5 	"/>
	<polygon class="st0" points="18.3,14.1 21.4,14.1 17.4,15.9 	"/>
	<polygon class="st0" points="17.8,17.5 21.4,19 17.4,18.5 	"/>
	<polygon class="st0" points="16.8,19.5 18.6,21.4 16.2,20.5 	"/>
</g>
</svg>
