<?xml version="1.0" encoding="utf-8"?>
<!-- Generator: Adobe Illustrator 24.0.1, SVG Export Plug-In . SVG Version: 6.00 Build 0)  -->
<svg version="1.1" id="Layer_1" xmlns="http://www.w3.org/2000/svg" xmlns:xlink="http://www.w3.org/1999/xlink" x="0px" y="0px"
	 viewBox="0 0 24 24" style="enable-background:new 0 0 24 24;" xml:space="preserve">
<style type="text/css">
	.st0{fill:#262324;}
	.st1{fill:#FFFFFF;}
</style>
<g>
	<polygon class="st0" points="12.1,12 14.5,6.3 9.2,9 11.4,4 7.7,7.7 7.7,2.5 3.2,12 7.7,21.5 7.7,16.3 11.4,20 9.2,15 14.5,17.7 	
		"/>
	<g>
		<path class="st0" d="M14.7,15.2c-2.6,0-8.5-0.7-11.1-2.5l-0.9-0.6l0.9-0.6C6.2,9.7,12.1,9,14.7,9h7.1v6.3h-7.1V15.2z"/>
		<path class="st1" d="M21.1,9.6V12v2.4c0,0-3.8,0-6.4,0S6.4,13.6,4,12c2.4-1.7,8.1-2.4,10.7-2.4S21.1,9.6,21.1,9.6 M22.6,8.1h-1.5
			h-6.4c-2.7,0-8.8,0.8-11.5,2.7L1.4,12l1.8,1.2c2.7,1.9,8.9,2.7,11.5,2.7h6.4h1.5v-1.5V12V9.6L22.6,8.1L22.6,8.1z"/>
	</g>
</g>
</svg>
