<?xml version="1.0" encoding="utf-8"?>
<!-- Generator: Adobe Illustrator 24.0.1, SVG Export Plug-In . SVG Version: 6.00 Build 0)  -->
<svg version="1.1" id="Layer_1" xmlns="http://www.w3.org/2000/svg" xmlns:xlink="http://www.w3.org/1999/xlink" x="0px" y="0px"
	 viewBox="0 0 24 24" style="enable-background:new 0 0 24 24;" xml:space="preserve">
<style type="text/css">
	.st0{fill:#242528;}
</style>
<g>
	<path class="st0" d="M12.3,16.1c0.6-0.3,1.5-0.8,2.9-1.3c0.1,0,0.2-0.1,0.5-0.2c0.5-0.5,0.9-0.9,1.2-1.1c0.3-0.3,0.6-0.4,0.7-0.4
		c0.2,0,0.3,0.1,0.4,0.2c0.1,0.1,0.1,0.3,0.1,0.5s0,0.5-0.1,0.8c0.4,0.5,0.6,0.8,0.6,1s-0.1,0.3-0.2,0.4c-0.1,0.1-0.3,0.1-0.5,0.1
		c-0.1,0-0.3-0.1-0.5-0.2c-0.2-0.1-0.5-0.3-0.8-0.5c-0.8,0.1-1.9,0.6-3.4,1.3c0.2,0.1,0.3,0.2,0.4,0.2c0.5,0.3,1.1,0.7,1.9,1.2
		c0.1,0.1,0.3,0.2,0.6,0.4c1.6,0.2,2.3,0.6,2.3,1.2c0,0.4-0.4,0.7-1.3,0.8c-0.4,0.5-0.7,0.7-1,0.7s-0.6-0.4-0.9-1.2
		c0-0.1-0.1-0.2-0.1-0.4c-1.2-1-2.3-1.7-3.2-2.2c-1.2,0.7-2.3,1.4-3.3,2.4c-0.1,1-0.4,1.5-0.9,1.5c-0.3,0-0.6-0.3-1-0.8
		c-0.9,0-1.3-0.2-1.3-0.7c0-0.4,0.2-0.6,0.5-0.8s1-0.3,2.1-0.5c0.8-0.6,1.7-1.1,2.8-1.7c-1.4-0.7-2.6-1.2-3.5-1.3
		c-0.2,0.2-0.4,0.3-0.6,0.4c-0.2,0.1-0.3,0.1-0.5,0.1s-0.4,0-0.5-0.1s-0.2-0.2-0.2-0.4s0.2-0.5,0.6-1C6,14.1,6,13.8,6,13.6
		c0-0.3,0.1-0.4,0.2-0.6c0.1-0.1,0.3-0.2,0.4-0.2c0.2,0,0.5,0.1,0.8,0.4c0.3,0.3,0.7,0.6,1.1,1.2C9.7,14.9,10.9,15.4,12.3,16.1z"/>
	<path class="st0" d="M14.7,12.2l-0.3,1.3l-0.8,0.7c-0.1,0.3-0.3,0.5-0.5,0.6S12.6,15,12.3,15c-0.6,0-1.1-0.3-1.3-0.8l-0.8-0.7
		l-0.3-1.3l0.5-0.1c0.1,0.1,0.1,0.2,0.1,0.3c0.2,0.5,0.4,0.8,0.6,0.9c0.2,0.1,0.6,0.2,1.2,0.2s1-0.1,1.3-0.2
		c0.2-0.1,0.5-0.4,0.6-0.9c0-0.1,0.1-0.2,0.1-0.3L14.7,12.2z"/>
	<path class="st0" d="M15.4,3.9c-0.8-0.7-1.9-1.1-3.2-1.1S9.8,3.1,9,3.9C8.2,4.6,7.8,5.5,7.8,6.7c0,1,0.1,1.7,0.4,2.1
		c0.3,0.6,0.5,1,0.6,1.2L9,11.1l1.8,0.9l0.3,0.7c0.2,0.1,0.4,0.1,0.6,0.1s0.5,0,0.7,0c0.6,0,1-0.1,1.3-0.2l0.3-0.7l1.8-0.9L16,9.9
		c0-0.2,0.1-0.4,0.1-0.5c0.5-0.9,0.8-1.9,0.8-2.9C16.7,5.6,16.3,4.6,15.4,3.9z M10.3,9.9c-0.7,0-1.1-0.4-1.1-1.2
		c0-0.4,0.1-0.7,0.3-0.9c0.2-0.2,0.5-0.3,0.8-0.3c0.7,0,1,0.4,1,1.1C11.4,9.6,11,9.9,10.3,9.9z M12.6,11.8c-0.1,0-0.2,0-0.3-0.1
		c-0.1,0.1-0.2,0.1-0.3,0.1c-0.2,0-0.3,0-0.4-0.1s-0.1-0.2-0.1-0.3s0.1-0.3,0.3-0.5c0.2-0.2,0.3-0.4,0.5-0.7
		c0.1,0.2,0.3,0.5,0.5,0.7s0.3,0.4,0.3,0.5C13,11.6,12.9,11.8,12.6,11.8z M14.1,9.9c-0.7,0-1.1-0.4-1.1-1.2s0.4-1.2,1.1-1.2
		c0.4,0,0.6,0.1,0.8,0.3c0.2,0.2,0.3,0.5,0.3,0.8C15.2,9.6,14.8,9.9,14.1,9.9z"/>
</g>
</svg>
