<?xml version="1.0" encoding="utf-8"?>
<!-- Generator: Adobe Illustrator 24.0.1, SVG Export Plug-In . SVG Version: 6.00 Build 0)  -->
<svg version="1.1" id="Layer_1" xmlns="http://www.w3.org/2000/svg" xmlns:xlink="http://www.w3.org/1999/xlink" x="0px" y="0px"
	 viewBox="0 0 24 24" style="enable-background:new 0 0 24 24;" xml:space="preserve">
<style type="text/css">
	.st0{fill:#262324;}
	.st1{fill:#252525;}
	.st2{fill:#FFFFFF;}
</style>
<g>
	<polygon class="st0" points="10.5,19.3 2.1,20.4 7.8,16.7 1.6,12.6 8,12.6 1.4,1.4 9.9,6.9 8.5,2.7 11.8,4.7 14.1,1.9 16.8,5.7 
		19.5,2.2 17.9,17.6 	"/>
	<g>
		<path class="st1" d="M8.2,21.9l-0.1-0.2c-0.3-0.3-0.6-0.7-0.8-1l-0.4-0.5l0.8-0.3c0.2-0.1,0.3-0.1,0.5-0.2
			c1.3-0.3,2.5-0.8,3.9-1.4l0.1-0.1c0-0.1,0.1-0.3,0.1-0.4c-0.4-0.6-0.7-1.4-0.9-2.3c-0.1-0.1-0.1-0.1-0.2-0.1
			c-0.1-0.1-0.2-0.2-0.3-0.4c-0.3-0.6-0.4-1.2-0.5-1.8c0-0.1,0-0.2,0-0.3c0-0.5,0.1-0.8,0.5-1c0-0.2-0.1-0.5-0.1-0.7
			C10.7,10,11.1,8.9,12,7.9c0.6-0.7,1.5-1.6,2.9-1.9c0.4-0.1,0.7-0.1,1-0.1c1.1,0,2.1,0.4,3,1.2c0.3,0.3,0.4,0.4,0.7,0.6
			c0.7,0.4,1,1.1,1.1,1.7c0.2,0.9,0.1,1.8,0,2.5c0,0.1,0,0.2-0.1,0.3l0,0c0.2,0.2,0.2,0.5,0.3,0.6c0,0.8-0.2,1.7-0.7,2.5
			c-0.2,0.3-0.4,0.4-0.5,0.5l0,0c-0.1,0.3-0.2,0.6-0.3,0.9c-0.1,0.2-0.2,0.4-0.3,0.6c-0.1,0.1-0.1,0.2-0.2,0.3c0,0,0,0,0,0.1v0.1
			c0.1,0.4,0.2,0.5,0.6,0.7c0.7,0.3,1.4,0.5,2.1,0.7l0.3,0.1v2.5L8.2,21.9L8.2,21.9z"/>
		<path class="st2" d="M15.8,6.4c1,0,1.9,0.3,2.6,1.1c0.3,0.3,0.5,0.5,0.8,0.7C19.7,8.5,19.9,9,20,9.5c0.2,0.8,0.1,1.6,0,2.4
			c0,0.1,0,0.2,0,0.3c0,0.2-0.1,0.3,0.1,0.5c0.1,0.1,0.1,0.2,0.1,0.3c0,0.8-0.2,1.6-0.6,2.3c-0.1,0.1-0.2,0.3-0.3,0.3h-0.1
			c-0.1,0.4-0.3,0.8-0.4,1.3c-0.1,0.3-0.3,0.5-0.4,0.8c0,0.1-0.1,0.2-0.1,0.3s0,0.2,0,0.2c0.1,0.5,0.4,0.8,0.9,1
			c0.7,0.3,1.4,0.5,2.2,0.7v1.6H8.5c-0.3-0.3-0.5-0.6-0.8-1c0.2-0.1,0.4-0.2,0.6-0.2c1.4-0.3,2.7-0.8,4-1.4c0.1-0.1,0.3-0.2,0.3-0.3
			c0.1-0.2,0.1-0.5,0.2-0.7c0-0.1,0-0.2-0.1-0.2c-0.4-0.6-0.7-1.4-0.8-2.1c0-0.1-0.1-0.2-0.2-0.2c-0.1-0.1-0.3-0.3-0.3-0.4
			c-0.3-0.5-0.4-1.1-0.5-1.7c0-0.1,0-0.1,0-0.2c0-0.4,0.1-0.6,0.5-0.7c-0.1-0.4-0.1-0.7-0.2-1.1c0-1.1,0.3-2.1,1-2.9
			s1.5-1.5,2.6-1.7C15.2,6.4,15.5,6.4,15.8,6.4 M15.8,5.4v1V5.4c-0.4,0-0.8,0-1.1,0.1c-1.5,0.3-2.6,1.3-3.2,2
			c-0.9,1-1.3,2.3-1.3,3.6c0,0.2,0,0.3,0.1,0.5c-0.3,0.3-0.4,0.7-0.4,1.2c0,0.1,0,0.2,0,0.3c0.1,0.7,0.3,1.4,0.6,2
			c0.1,0.2,0.3,0.4,0.4,0.5l0.1,0.1l0,0c0.2,0.8,0.4,1.5,0.8,2.1v0.1c-1.3,0.6-2.5,1-3.6,1.3c-0.2,0-0.4,0.1-0.5,0.2
			c-0.1,0-0.1,0-0.2,0.1L6.2,20L7,21.2c0.3,0.4,0.6,0.7,0.9,1.1l0.3,0.3h0.4h12.9h1v-1V20v-0.7l-0.7-0.2c-0.7-0.2-1.4-0.5-2.1-0.7
			c-0.2-0.1-0.2-0.1-0.2-0.3l0,0l0.1-0.1c0.1-0.2,0.2-0.4,0.3-0.6c0.1-0.3,0.2-0.5,0.3-0.8c0.2-0.1,0.4-0.3,0.6-0.6
			c0.5-0.9,0.8-1.9,0.7-2.8c0-0.2,0-0.5-0.2-0.8v-0.1c0.1-0.8,0.2-1.8,0-2.8c-0.1-0.6-0.4-1.5-1.4-2c-0.2-0.1-0.3-0.2-0.5-0.4l0,0
			C18.2,5.9,17.1,5.4,15.8,5.4L15.8,5.4z"/>
	</g>
</g>
</svg>
