<?xml version="1.0" encoding="utf-8"?>
<!-- Generator: Adobe Illustrator 24.0.1, SVG Export Plug-In . SVG Version: 6.00 Build 0)  -->
<svg version="1.1" id="Layer_1" xmlns="http://www.w3.org/2000/svg" xmlns:xlink="http://www.w3.org/1999/xlink" x="0px" y="0px"
	 viewBox="0 0 24 24" style="enable-background:new 0 0 24 24;" xml:space="preserve">
<style type="text/css">
	.st0{fill:#242528;}
</style>
<g>
	<path class="st0" d="M11.8,21.2l0.3-1.7c1.7-0.1,3.3-0.7,4.6-1.8l4.8,3.8l-3.9-4.7c1.1-1.4,1.7-3,1.7-4.7l1.9-0.3l-1.9-0.3
		c-0.1-1.6-0.7-3.1-1.8-4.4l4-4.7l-4.8,3.8c-1.3-1.1-2.9-1.7-4.5-1.8l-0.3-2l-0.3,2h-0.1h0.1l-0.7,4.4C10.6,9,10.4,9,10.1,9.2
		L6.5,6.3L9.3,10c-0.2,0.2-0.3,0.5-0.4,0.8l-6.5,1l1.8,0.3c0,1.7,0.6,3.4,1.8,4.8l-3.6,4.6l1-1l3.4-2.8c1.3,1.2,3,1.7,4.7,1.8
		L11.8,21.2L11.8,21.2z M11.1,18.2c-1.7,0-3.5-0.7-4.8-2c-1.1-1.1-1.8-2.6-2-4.1l4.6,0.7c0.1,0.3,0.2,0.5,0.4,0.8l-1,1.8l1.7-1
		c0.3,0.2,0.5,0.3,0.8,0.4l0.5,3.4C11.3,18.2,11.3,18.2,11.1,18.2L11.1,18.2z M12.3,18.1l0.5-3.3c0.3-0.1,0.5-0.2,0.8-0.4l1.7,1
		l-1-1.7c0.2-0.2,0.3-0.5,0.4-0.8l3.2-0.5c-0.2,1.4-0.8,2.8-1.9,3.8C14.9,17.3,13.6,17.9,12.3,18.1L12.3,18.1z M17.9,11.4l-3.2-0.5
		c-0.1-0.3-0.2-0.5-0.4-0.8l1-1.8l-1.8,1C13.3,9.1,13,9,12.8,8.9l-0.7-4.4c1.4,0.2,2.7,0.9,3.8,1.9C17.3,7.9,17.9,9.7,17.9,11.4
		L17.9,11.4z"/>
</g>
</svg>
