<?xml version="1.0" encoding="utf-8"?>
<!-- Generator: Adobe Illustrator 24.0.1, SVG Export Plug-In . SVG Version: 6.00 Build 0)  -->
<svg version="1.1" id="Layer_1" xmlns="http://www.w3.org/2000/svg" xmlns:xlink="http://www.w3.org/1999/xlink" x="0px" y="0px"
	 viewBox="0 0 24 24" style="enable-background:new 0 0 24 24;" xml:space="preserve">
<style type="text/css">
	.st0{fill:#242528;}
</style>
<g>
	<path class="st0" d="M2.5,9.5c0,0,7.6,3.3,14.2,5.9l1-2.3l1.1,0.4l-1.6,2.9l4.3,2.4L21,19.9l-4.2-2.2l-1.4,2.8l-1.3-0.4l1-1.9
		C15.1,18.2,5.9,13.1,2.5,9.5z"/>
	<path class="st0" d="M5.5,8.5c0,0,4-5,11-5c0,0-6.4,0.9-9,6L5.5,8.5z"/>
	<path class="st0" d="M9.5,10c0,0,2.2-2.7,6-2.7c0,0-3.5,0.5-4.9,3.3L9.5,10z"/>
	<path class="st0" d="M12.5,11.4c0,0,1.5-1.9,4.2-1.9c0,0-2.4,0.4-3.4,2.3L12.5,11.4z"/>
</g>
</svg>
