<?xml version="1.0" encoding="utf-8"?>
<!-- Generator: Adobe Illustrator 24.0.1, SVG Export Plug-In . SVG Version: 6.00 Build 0)  -->
<svg version="1.1" id="Layer_1" xmlns="http://www.w3.org/2000/svg" xmlns:xlink="http://www.w3.org/1999/xlink" x="0px" y="0px"
	 viewBox="0 0 24 24" style="enable-background:new 0 0 24 24;" xml:space="preserve">
<style type="text/css">
	.st0{fill:#252525;}
</style>
<g>
	<g>
		<path class="st0" d="M20.1,10.3c0,0.2,0,0.4,0,0.6c0,0.1,0,0.2-0.1,0.3c-0.3,1.5-1.8,2.5-3.3,2.2c-0.3,0-0.6-0.1-0.9-0.2
			c-0.9,1.6-3.1,1.8-4.4,0.6l0,0c0,0,0,0-0.1,0.1c-0.5,0.4-1,0.8-1.6,0.9c-0.3,0.1-0.5,0.1-0.8,0.1c-0.1,0-0.2,0-0.3,0H8.5
			c-1.1-0.1-2-0.6-2.7-1.4c0,0-0.1-0.1-0.2-0.1c-1.1,0.2-2.1-0.5-2.5-1.6c0-0.1-0.1-0.2-0.1-0.4s0-0.4,0-0.6c0,0,0,0,0-0.1
			C3,9.8,3.7,9.1,4.6,8.9c0.2,0,0.3-0.1,0.5-0.1c0.1-0.9,0.6-1.6,1.4-2c0.8-0.5,1.6-0.5,2.4-0.2c0.7-2.1,2.7-3.4,4.9-3.1
			c2,0.3,3.6,1.9,3.7,4.1h0.1c1.1,0.3,1.7,1,2,2.1C20.1,10.1,20.1,10.2,20.1,10.3z"/>
	</g>
	<polygon class="st0" points="4.6,15 3.1,19.7 5.7,15.9 	"/>
	<polygon class="st0" points="8.5,16.3 8.1,20.6 10.2,16.3 	"/>
	<polygon class="st0" points="13.9,16.1 14.7,20.4 15.2,15.9 	"/>
	<polygon class="st0" points="17.6,15.2 21.1,20.6 18.9,14.6 	"/>
</g>
</svg>
