<?xml version="1.0" encoding="utf-8"?>
<!-- Generator: Adobe Illustrator 24.0.1, SVG Export Plug-In . SVG Version: 6.00 Build 0)  -->
<svg version="1.1" id="Layer_1" xmlns="http://www.w3.org/2000/svg" xmlns:xlink="http://www.w3.org/1999/xlink" x="0px" y="0px"
	 viewBox="0 0 24 24" style="enable-background:new 0 0 24 24;" xml:space="preserve">
<style type="text/css">
	.st0{fill:#FF0000;}
	.st1{fill:none;stroke:#FF0000;stroke-width:2;stroke-miterlimit:10;}
</style>
<title>Asset 47</title>
<g id="Layer_2_1_">
	<g id="Layer_1-2">
		<path class="st0" d="M12.1,5.8c-4.2,0-8,2.6-9.6,6.5c2.2,5.3,8.2,7.8,13.5,5.6c2.6-1,4.6-3.1,5.6-5.6C20,8.3,16.3,5.8,12.1,5.8z
			 M12.1,17.1c-3.3,0-6.4-1.9-7.8-4.9c2.1-4.3,7.4-6.1,11.7-4c1.7,0.9,3.1,2.2,4,4C18.3,15.3,15.3,17.1,12.1,17.1z"/>
		<path class="st0" d="M10.4,13.4c0,0.1-0.1,0.1-0.1,0.2c-0.1,0.2-0.3,0.3-0.5,0.4c-0.1,0.1-0.2,0.1-0.2,0.1
			c1.4,1.3,3.5,1.2,4.8-0.2c1-1.1,1.2-2.8,0.4-4.1C13.4,11.1,11.8,12.1,10.4,13.4z"/>
		<line class="st1" x1="20.7" y1="3.5" x2="3.6" y2="20.5"/>
	</g>
</g>
</svg>
