<?xml version="1.0" encoding="utf-8"?>
<!-- Generator: Adobe Illustrator 24.0.1, SVG Export Plug-In . SVG Version: 6.00 Build 0)  -->
<svg version="1.1" id="Layer_1" xmlns="http://www.w3.org/2000/svg" xmlns:xlink="http://www.w3.org/1999/xlink" x="0px" y="0px"
	 viewBox="0 0 24 24" style="enable-background:new 0 0 24 24;" xml:space="preserve">
<style type="text/css">
	.st0{fill:#FF0000;}
	.st1{fill:#FFFFFF;}
	.st2{fill:#C80000;}
</style>
<g>
	<path class="st0" d="M19.3,12.9L19.3,12.9c-0.1-0.1-0.1-0.1-0.1-0.2c0-4.3-3.2-7.8-7.2-7.8s-7.2,3.5-7.2,7.8c0,0.1,0,0.1,0,0.2
		c-0.1,0-0.1,0-0.2,0c-0.6,0.2-0.8,1.1-0.5,2.1c0.3,1,1,1.6,1.6,1.5c0.2,0.4,0.4,0.8,0.7,1.1c0.5,2.9,2.8,5.8,5.6,5.8s5.1-3,5.6-5.8
		c0.3-0.3,0.5-0.7,0.7-1.1c0.6,0.1,1.2-0.5,1.5-1.5C20.1,14.1,19.9,13.2,19.3,12.9z"/>
</g>
<g>
	<path class="st1" d="M12,1.9c0.3-0.3,0.6-0.6,1-0.8c1.3-0.5,2.8,0.3,3,1.5c0.1,0.5,0,1-0.4,1.5c-1.2,1.6-2.4,3.1-3.6,4.7
		c0,0,0,0-0.1,0.1l-0.1-0.1c-1-1.5-2.2-3.1-3.4-4.6C7.5,3,8.1,1.3,9.7,1C10.6,0.9,11.3,1.1,12,1.9C12,1.8,12,1.8,12,1.9z"/>
	<path class="st2" d="M12,9.4l-0.2-0.3c-0.1,0-0.1-0.1-0.1-0.1l-0.8-0.9C10,6.9,9,5.6,8.1,4.4C7.6,3.8,7.5,2.9,7.8,2.2
		c0.3-0.8,1-1.3,1.9-1.5c0.9-0.2,1.7,0,2.3,0.6c0.3-0.2,0.6-0.4,0.9-0.5c0.7-0.3,1.6-0.2,2.3,0.2c0.6,0.4,1.1,1,1.2,1.6
		c0.1,0.6,0,1.2-0.5,1.8L12,9.4z M10.2,1.4c-0.1,0-0.3,0-0.4,0c-0.6,0.1-1.1,0.5-1.3,1C8.3,3,8.4,3.5,8.7,4c0.9,1.2,1.9,2.4,2.8,3.6
		L12,8.3l3.4-4.4c0.3-0.4,0.4-0.8,0.3-1.2c-0.1-0.4-0.4-0.8-0.8-1.1c-0.5-0.3-1.1-0.3-1.7-0.1c-0.4,0.1-0.6,0.3-0.9,0.6l-0.2,0.4
		L11.6,2C11.2,1.6,10.8,1.4,10.2,1.4z"/>
</g>
<g>
	<path class="st1" d="M6,6c0.1-0.2,0.3-0.3,0.5-0.4C7.1,5.4,7.9,5.7,8,6.4c0,0.3,0,0.5-0.2,0.7C7.2,7.9,6.6,8.6,6,9.4l0,0l0,0
		C5.4,8.6,4.8,7.9,4.2,7.1C3.7,6.5,4.1,5.7,4.8,5.6C5.3,5.5,5.6,5.6,6,6C5.9,5.9,6,6,6,6z"/>
	<path class="st2" d="M6,9.9L5.6,9.6L3.9,7.4C3.6,7,3.5,6.5,3.7,6.1c0.2-0.5,0.6-0.8,1.1-0.9s0.9,0,1.2,0.3c0.1-0.1,0.2-0.2,0.4-0.2
		c0.4-0.2,0.9-0.1,1.3,0.1C8,5.6,8.3,5.9,8.4,6.3c0.1,0.4,0,0.7-0.3,1L6,9.9z M5.1,5.9c-0.1,0-0.1,0-0.2,0c-0.2,0-0.4,0.2-0.5,0.4
		c-0.1,0.2,0,0.4,0.1,0.6L6,8.8l1.5-2c0.1-0.1,0.1-0.2,0.1-0.4S7.5,6.1,7.3,6C7.1,5.9,6.8,5.9,6.6,6C6.5,6,6.4,6.1,6.3,6.2L6,6.6
		L5.7,6.2C5.5,6,5.3,5.9,5.1,5.9z"/>
</g>
<g>
	<path class="st1" d="M18,6c0.1-0.2,0.3-0.3,0.5-0.4c0.6-0.2,1.4,0.1,1.5,0.8c0,0.3,0,0.5-0.2,0.7c-0.6,0.8-1.2,1.5-1.8,2.3l0,0l0,0
		c-0.6-0.8-1.2-1.5-1.8-2.3c-0.5-0.6-0.1-1.4,0.6-1.6C17.3,5.5,17.6,5.6,18,6C17.9,5.9,18,6,18,6z"/>
	<path class="st2" d="M18,9.9l-0.4-0.4l-1.8-2.3c-0.3-0.4-0.4-0.9-0.2-1.3s0.6-0.8,1.1-0.9s0.9,0,1.2,0.3c0.1-0.1,0.2-0.2,0.4-0.2
		c0.4-0.2,0.9-0.1,1.3,0.1s0.6,0.6,0.7,0.9c0.1,0.4,0,0.7-0.3,1L18,9.9z M17.1,5.9c-0.1,0-0.1,0-0.2,0c-0.2,0-0.4,0.2-0.5,0.4
		c-0.1,0.2,0,0.4,0.1,0.6L18,8.8l1.5-2c0.1-0.1,0.1-0.2,0.1-0.4S19.5,6.1,19.3,6c-0.2-0.1-0.5-0.1-0.7-0.1C18.5,6,18.3,6,18.3,6.2
		L18,6.6l-0.3-0.4C17.5,6,17.3,5.9,17.1,5.9z"/>
</g>
<g>
	<g>
		<path class="st1" d="M14.8,15.7L14.8,15.7c0,1-0.2,1.7-0.7,2.2s-1.1,0.7-1.9,0.7s-1.6-0.3-2.2-0.8c-0.6-0.5-0.8-1.3-0.8-2.3V13
			c0-1,0.3-1.8,0.8-2.3s1.2-0.8,2-0.8c0.9,0,1.6,0.2,2.1,0.7s0.7,1.2,0.7,2.2l0,0h-1.6c0-0.6-0.1-1-0.2-1.2s-0.5-0.4-0.9-0.4
			s-0.7,0.1-0.9,0.4c-0.2,0.3-0.3,0.7-0.3,1.3v2.6c0,0.6,0.1,1,0.3,1.3c0.2,0.3,0.5,0.4,0.9,0.4s0.7-0.1,0.8-0.3
			c0.1-0.2,0.2-0.6,0.2-1.2C13.1,15.7,14.8,15.7,14.8,15.7z"/>
	</g>
</g>
</svg>
