<?xml version="1.0" encoding="utf-8"?>
<!-- Generator: Adobe Illustrator 24.0.1, SVG Export Plug-In . SVG Version: 6.00 Build 0)  -->
<svg version="1.1" id="Layer_1" xmlns="http://www.w3.org/2000/svg" xmlns:xlink="http://www.w3.org/1999/xlink" x="0px" y="0px"
	 viewBox="0 0 24 24" style="enable-background:new 0 0 24 24;" xml:space="preserve">
<style type="text/css">
	.st0{fill:#FF0000;}
</style>
<title>Asset 44</title>
<g id="Layer_2_1_">
	<g id="Layer_1-2">
		<path class="st0" d="M16.4,4.5c-0.8-0.8-1.8-1.3-2.9-1.6c-0.5-0.1-0.9-0.2-1.4-0.3h-0.7c-0.6,0.1-1.2,0.2-1.8,0.3
			C7.7,3.4,6.2,5.1,5.9,7.1c0,0.4,0,0.7,0.4,0.7s0.6-0.2,0.6-0.6c0.2-1.6,1.4-2.9,3-3.2c0.8-0.2,1.7-0.2,2.5-0.2
			c1.1,0.1,2.2,0.5,3,1.3C15.8,4.9,16,4.7,16.4,4.5z"/>
		<path class="st0" d="M17,10l-0.2,0.3c-0.3,1-0.8,2-1.4,2.8c-1,1.3-1.8,2.8-2.3,4.4c-0.2,0.6-0.4,1.1-0.7,1.6
			c-0.6,1-1.7,1.4-2.8,1.1c-0.5-0.1-1-0.4-1.3-0.8l-0.9,0.7c0.4,0.5,1,0.9,1.7,1.1c1.4,0.5,2.9,0,3.8-1.1c0.5-0.7,0.9-1.4,1.1-2.2
			c0.6-1.5,1.3-3,2.3-4.3c0.4-0.6,0.8-1.2,1.1-1.9c0.4-0.8,0.6-1.6,0.7-2.5C17.8,9.6,17.5,9.8,17,10z"/>
		<path class="st0" d="M10.2,7.6c0.7-0.7,1.8-0.8,2.6-0.1c0.3-0.2,0.6-0.4,0.9-0.6c-0.2-0.2-0.5-0.4-0.8-0.6C11.6,5.7,10.1,6,9.2,7
			c-0.8,0.9-1.1,2.8-0.1,3.7l0.1,0.1c0.3-0.3,0.6-0.6,1-0.9C10.1,9.8,10,9.7,9.9,9.6C9.5,9,9.6,8.1,10.2,7.6z"/>
		<path class="st0" d="M14.4,8.3c0.1,0.4,0.1,0.7,0,1.1c-0.1,0.6-0.3,1.3-0.6,1.8c-0.1,0.3-0.5,0.5-0.8,0.8l-0.2-0.1
			c0.1-0.4,0.2-0.8,0.4-1.2c0.3-0.5,0.4-1,0.3-1.5l-2,2c0.4,0.5,0.5,1.2,0.3,1.8c-0.1,0.4-0.2,0.7-0.4,1.1L17,8.5
			c0-0.8-0.3-1.5-0.6-2.2L14.4,8.3z"/>
		<path class="st0" d="M22.1,3.3l-1.4-1.4l-3.6,3.6c0.4,0.6,0.7,1.3,0.8,2L22.1,3.3z"/>
		<path class="st0" d="M8.7,15.6c-0.4-0.3-0.5-0.9-0.3-1.4l-6.5,6.5l1.4,1.4l3.4-3.4c0-0.1-0.1-0.3-0.1-0.4c0-0.2-0.1-0.4,0-0.5
			c0.1-0.2,0.3-0.4,0.6-0.4c0.1,0,0.3,0.2,0.4,0.4l2-1.9C9.2,15.9,8.9,15.8,8.7,15.6z"/>
		<path class="st0" d="M7.2,17.4c-0.2,0.1-0.4,0.2-0.6,0.4c-0.1,0.1,0,0.3,0,0.5c0,0.1,0,0.3,0.1,0.4l0.9-0.9
			C7.5,17.7,7.3,17.4,7.2,17.4z"/>
		<path class="st0" d="M17,8.4l1-1c-0.2-0.7-0.4-1.4-0.8-2l-0.8,0.8C16.8,6.9,17,7.7,17,8.4z"/>
		<path class="st0" d="M8.7,15.6c0.2,0.2,0.5,0.3,0.9,0.3l1.9-1.9c0.1-0.3,0.3-0.7,0.4-1.1c0.2-0.6,0.1-1.3-0.3-1.8l-3.1,3.1
			C8.2,14.7,8.3,15.3,8.7,15.6z"/>
		<path class="st0" d="M13.2,10.7c-0.2,0.4-0.3,0.8-0.4,1.2L13,12c0.3-0.3,0.6-0.4,0.8-0.8c0.3-0.6,0.5-1.2,0.6-1.8
			c0.1-0.4,0.1-0.7,0-1.1l-0.9,0.8C13.6,9.7,13.5,10.2,13.2,10.7z"/>
	</g>
</g>
</svg>
