<?xml version="1.0" encoding="utf-8"?>
<!-- Generator: Adobe Illustrator 24.0.1, SVG Export Plug-In . SVG Version: 6.00 Build 0)  -->
<svg version="1.1" id="Layer_1" xmlns="http://www.w3.org/2000/svg" xmlns:xlink="http://www.w3.org/1999/xlink" x="0px" y="0px"
	 viewBox="0 0 24 24" style="enable-background:new 0 0 24 24;" xml:space="preserve">
<style type="text/css">
	.st0{fill:#FF0000;}
</style>
<title>Asset 52</title>
<path class="st0" d="M4.2,5.9C3.8,5.9,3.4,6,3,6.3C2.2,7.1,2.5,8.7,3.7,9.9s2.9,1.6,3.7,0.8c0.1-0.1,0.1-0.3,0.2-0.4
	C7.3,13.2,6.1,16,4,18.1h2.7c1.6-1.5,2.5-4.5,3.1-6.4c1.6,0.1,3.1,0.9,4.2,2l-3.8,4.5h11.2l-1.1-2.1h-5.2c4.1-3.2,1.5-6.7-1.9-8.2
	l0,0c-0.5-0.2-1-0.4-1.5-0.5l0,0c-1.5-0.5-3.1-0.3-4.4,0.3C7.1,7.5,6.9,7.2,6.7,7C6,6.3,5.2,5.9,4.2,5.9z"/>
</svg>
