<?xml version="1.0" encoding="utf-8"?>
<!-- Generator: Adobe Illustrator 24.0.1, SVG Export Plug-In . SVG Version: 6.00 Build 0)  -->
<svg version="1.1" id="Layer_1" xmlns="http://www.w3.org/2000/svg" xmlns:xlink="http://www.w3.org/1999/xlink" x="0px" y="0px"
	 viewBox="0 0 24 24" style="enable-background:new 0 0 24 24;" xml:space="preserve">
<style type="text/css">
	.st0{fill:#FF0000;}
	.st1{fill:#FFFFFF;}
</style>
<ellipse class="st0" cx="12.1" cy="10.5" rx="7.2" ry="7.8"/>
<path class="st0" d="M17.8,14.4c0,3.1-2.5,6.9-5.7,6.9s-5.7-3.8-5.7-6.9s2.5-4.5,5.7-4.5S17.8,11.2,17.8,14.4z"/>
<path class="st1" d="M10.5,11.6c0,0.9-0.7,1-1.5,1s-1.5-0.1-1.5-1s0.6-1.5,1.5-1.5S10.5,10.8,10.5,11.6z"/>
<path class="st1" d="M14.4,17.2c0,1.3-1,0-2.3,0s-2.3,1.3-2.3,0c0-1.3,1-2.3,2.3-2.3S14.4,15.9,14.4,17.2z"/>
<path class="st1" d="M16.4,11.6c0,0.9-0.7,1-1.5,1c-0.9,0-1.5-0.1-1.5-1s0.7-1.5,1.5-1.5C15.9,10.1,16.4,10.8,16.4,11.6z"/>
<ellipse transform="matrix(0.2904 -0.9569 0.9569 0.2904 1.2997 26.9659)" class="st0" cx="18.8" cy="12.6" rx="1.9" ry="1.1"/>
<ellipse transform="matrix(0.9569 -0.2904 0.2904 0.9569 -3.4269 2.0807)" class="st0" cx="5.3" cy="12.6" rx="1.1" ry="1.9"/>
</svg>
