<?xml version="1.0" encoding="utf-8"?>
<!-- Generator: Adobe Illustrator 24.0.1, SVG Export Plug-In . SVG Version: 6.00 Build 0)  -->
<svg version="1.1" id="Layer_1" xmlns="http://www.w3.org/2000/svg" xmlns:xlink="http://www.w3.org/1999/xlink" x="0px" y="0px"
	 viewBox="0 0 24 24" style="enable-background:new 0 0 24 24;" xml:space="preserve">
<style type="text/css">
	.st0{fill:#FF0000;}
	.st1{fill:#FFFFFF;}
	.st2{fill:#C80000;}
</style>
<g>
	<path class="st0" d="M19.5,13.3h-0.1c0-0.1,0-0.1,0-0.2c0-4.3-3.2-7.8-7.2-7.8S5,8.8,5,13.1c0,0.1,0,0.1,0,0.2c-0.1,0-0.1,0-0.2,0
		c-0.6,0.2-0.8,1.1-0.5,2.1c0.3,1,1,1.6,1.6,1.5c0.2,0.4,0.4,0.8,0.7,1.1c0.5,2.9,2.8,5.8,5.6,5.8s5.1-3,5.6-5.8
		c0.3-0.3,0.5-0.7,0.7-1.1c0.6,0.1,1.2-0.5,1.5-1.5C20.2,14.4,20,13.4,19.5,13.3z"/>
</g>
<g>
	<g>
		<path class="st1" d="M13,19.1h-1.7v-8.5H13V19.1z"/>
	</g>
</g>
<g>
	<path class="st2" d="M10.5,11c-1.5,0-3-0.1-4.6-0.2c-0.2,0-0.4-0.2-0.3-0.4c0-0.2,0.2-0.4,0.4-0.3c4.9,0.5,8.9,0.2,13.9-0.8
		c1-0.2,1.5-0.5,1.6-0.8c0.1-0.2-0.1-0.5-0.3-0.7c-0.3-0.2-0.7-0.4-1.1-0.6c-0.4-0.2-0.9-0.4-1.4-0.5c-0.2,0.2-0.5,0.5-0.8,0.7
		c-1.1,0.7-2.4,0.9-3.6,1.1c-3.6,0.3-7.4,0.1-11-0.8C2.7,7.6,1.9,7.3,1.7,6.6C1.6,6.2,1.9,5.7,2.4,5.4C2.7,5.2,3.2,5.1,3.6,5
		c0.9-0.2,1.8-0.3,2.7-0.4C6.1,4.5,5.9,4.4,5.7,4.3C5.4,4.1,5.1,4,4.8,3.7S4.4,2.9,4.7,2.5S5.5,2,6,1.9c3.2-0.3,6.4-0.2,9.5,0.3
		c0.2,0,0.5,0.1,0.7,0.1c0,0,0,0-0.1,0c-0.5-0.3-1-0.5-1.6-0.6c-2-0.5-4.2-0.8-6.3-0.8l0,0C8,0.9,7.8,0.7,7.8,0.5
		c0.1-0.2,0.3-0.3,0.6-0.3c2.2,0,4.3,0.3,6.4,0.8c0.6,0.2,1.2,0.4,1.8,0.7c0.5,0.3,0.8,0.7,1,1.1c0.9,0.4,1.5,0.9,1.8,1.5
		c0.2,0.5,0.2,1.2-0.1,1.7c0.4,0.1,0.8,0.3,1.2,0.5s0.8,0.4,1.2,0.7c0.5,0.4,0.7,0.9,0.5,1.4C22,9.5,20.8,9.8,20,10
		C16.6,10.7,13.6,11,10.5,11z M8.2,5.2c-1.5,0-3,0.2-4.5,0.5C3.4,5.8,3,5.9,2.7,6C2.6,6.1,2.4,6.3,2.5,6.4c0,0.1,0.2,0.3,1,0.6
		C7,7.8,10.7,8.1,14.3,7.6c1.1-0.1,2.4-0.4,3.3-0.9c0.1-0.1,0.3-0.2,0.4-0.3c-1-0.3-2.1-0.6-3.2-0.8c-0.3,0-0.6,0.1-0.9,0.1
		C12,5.8,10,5.6,8.2,5.2z M16.3,5.1c0.7,0.2,1.5,0.4,2.2,0.6c0.2-0.4,0.3-0.8,0.1-1.2c-0.2-0.4-0.5-0.7-1-0.9
		C17.5,4.2,17,4.8,16.3,5.1L16.3,5.1z M9.5,4.4c1.8,0,3.5,0.2,5.2,0.5c0.4-0.1,0.8-0.2,1.2-0.4c0.6-0.3,0.9-0.7,0.9-1.1
		c-0.4-0.1-0.9-0.3-1.5-0.4C12.2,2.5,9.1,2.4,6,2.7c-0.4,0-0.7,0.1-0.8,0.2c0,0.1,0,0.2,0.1,0.3c0.1,0.2,0.4,0.3,0.6,0.4
		c0.8,0.3,1.6,0.6,2.4,0.8C8.7,4.4,9.1,4.4,9.5,4.4z"/>
</g>
</svg>
