<?xml version="1.0" encoding="utf-8"?>
<!-- Generator: Adobe Illustrator 24.0.1, SVG Export Plug-In . SVG Version: 6.00 Build 0)  -->
<svg version="1.1" id="Layer_1" xmlns="http://www.w3.org/2000/svg" xmlns:xlink="http://www.w3.org/1999/xlink" x="0px" y="0px"
	 viewBox="0 0 24 24" style="enable-background:new 0 0 24 24;" xml:space="preserve">
<style type="text/css">
	.st0{fill:#FFFFFF;}
	.st1{fill:#00FF00;}
</style>
<title>Asset 40</title>
<g id="Layer_1-2">
	<path class="st0" d="M21.8,20c-0.9-0.3-4.1-1.4-5-1.7c-0.6-0.2-1.1-0.7-1.1-1.3c0-0.1-0.1-0.2-0.1-0.3s0-0.3,0.1-0.4
		c0.2-0.3,0.4-0.7,0.5-1c0.2-0.5,0.4-1.1,0.5-1.6c0.3,0.1,0.5-0.1,0.6-0.3c0.5-0.9,0.8-1.9,0.8-2.9c0-0.2-0.1-0.3-0.2-0.4
		c-0.2-0.2-0.2-0.4-0.1-0.6c0.1-0.2,0-0.2,0.1-0.3c0.2-1,0.2-2,0-3c-0.1-0.7-0.5-1.3-1.1-1.7c-0.4-0.2-0.7-0.5-1-0.8
		c-1.2-1.2-2.9-1.7-4.6-1.3C10,2.8,8.9,3.5,8,4.5S6.6,6.8,6.7,8.2c0,0.5,0.1,0.9,0.2,1.3c-0.5,0.3-0.6,0.4-0.6,0.9
		c0,0.1,0,0.2,0,0.3c0.1,0.7,0.3,1.5,0.6,2.1C7,13,7.2,13.2,7.3,13.4c0.1,0.1,0.1,0.2,0.2,0.3c0.2,1,0.5,1.9,1.1,2.7
		c0.1,0.1,0.1,0.2,0.1,0.3c-0.1,0.3-0.2,0.6-0.3,0.9C8.3,17.8,8.2,17.9,8,18c-1.6,0.7-3.3,1.3-5,1.8c-0.3,0.1-0.5,0.2-0.8,0.3
		c0.3,0.4,0.7,1.4,1,1.8h17.4L21.8,20z"/>
	<path class="st1" d="M8.9,3.6L8.8,3.8l0,0C8.5,4,8.3,4.3,8.1,4.5H7.8l0,0l0,0L7.6,4.8l0.8,0.6c0.1,0,0.3-0.1,0.4-0.1
		C9,5,9.3,4.7,9.6,4.5L8.9,3.6z M6.8,6.9c0,0.1,0,0.2,0,0.3l0,0c0,0.3,0,0.6,0,0.9l0,0v0.1l0,0c0,0.2,0,0.3,0.1,0.5l0,0l0,0l0,0l0,0
		l0,0v0.1l1-0.2c0-0.2-0.1-0.4-0.1-0.6c0-0.3,0-0.7,0.1-1L6.8,6.9L6.8,6.9z M7.3,10.6l-1,0.1v0.1l0,0c0,0.5,0.2,1.1,0.4,1.6l0,0v0.1
		l0.9-0.4C7.4,11.6,7.3,11.1,7.3,10.6L7.3,10.6z M8.6,14.1l-1,0.3c0,0.1,0.1,0.3,0.1,0.4l0,0l0,0l0,0l0,0h0.1
		C7.9,15,8,15.2,8.1,15.4l0,0l0,0h0.1l0.2,0.3l0.8-0.5c-0.3-0.5-0.5-1-0.7-1.6L8.6,14.1z M8.1,17.9L8.1,17.9L8.1,17.9L8.1,17.9H7.8
		l-1.1,0.5H6.6l-0.3,0.1l0.4,0.9c0.6-0.2,1.2-0.5,1.8-0.7l0.2-0.1l-0.5-0.9L8.1,17.9L8.1,17.9z M4.4,19.4c-0.4,0.1-0.9,0.3-1.3,0.4
		H2.7l-0.3,0.1l0.4,0.9c0.1,0,0.2,0,0.4,0c0.5-0.1,1-0.3,1.5-0.4L4.4,19.4L4.4,19.4z M4.9,20.8H3.2v0.6l0,0l0,0L3,21.5
		c0.1,0.1,0.1,0.2,0.2,0.3h1.7V20.8z M8.9,20.8h-2v1h2V20.8z M12.9,20.8h-2v1h2V20.8z M16.9,20.8h-2v1h2V20.8z M20.6,20.8v0.6l0,0
		V20.8h-1.7v1h1.7l0.2-0.2l-0.2-0.1V20.8L20.6,20.8z M19.8,19.3l-0.3,1l1.8,0.6l0.3-0.4l0.1-0.5l-0.6-0.2L19.8,19.3z M16.1,17.8
		l-0.7,0.7c0.3,0.3,0.7,0.6,1.1,0.8l1.1,0.4l0.3-0.9l-0.3-0.1l-0.7-0.4h-0.1l0,0l0,0c-0.2-0.1-0.4-0.2-0.5-0.4L16.1,17.8z
		 M15.7,13.8L15.7,13.8c-0.1,0.4-0.2,0.8-0.3,1.1c-0.1,0.2-0.2,0.3-0.3,0.5v0.1L16,16l0,0l0,0l0,0c0.1-0.2,0.2-0.3,0.3-0.5h0.1
		c0.1-0.3,0.2-0.7,0.3-1l0,0l0,0l-1-0.3C15.7,14.2,15.7,13.8,15.7,13.8z M17.2,10.6c0,0.5-0.1,1.1-0.4,1.6l0.9,0.4
		c0.3-0.6,0.5-1.2,0.5-1.9L17.2,10.6L17.2,10.6z M18.1,6.8l-1,0.1c0,0.6,0,1.2-0.1,1.8l1,0.1c0-0.2,0.1-0.5,0.1-0.7l0,0l0,0l0,0l0,0
		l0,0l0,0l0,0l0,0l0,0l0,0l0,0l0,0l0,0l0,0l0,0l0,0l0,0l0,0l0,0l0,0l0,0V7.3l0,0l0,0l0,0l0,0l0,0l0,0l0,0l0,0l0,0l0,0l0,0
		C18.1,7.2,18.1,7.1,18.1,6.8L18.1,6.8z M15.9,3.6l-0.7,0.8c0.4,0.4,0.8,0.7,1.2,1c0.1,0,0.2,0.1,0.2,0.2L17.4,5l-0.1-0.2h-0.7
		c-0.3-0.2-0.5-0.4-0.7-0.6V3.6z M12.6,2.3c-0.4,0-0.8,0-1.2,0.1h-0.1c-0.1,0-0.3,0-0.5,0.2l0,0h-0.2L11,3.5c0.2,0,0.4-0.1,0.6-0.1
		c0.3-0.1,0.6-0.1,1-0.1l0,0c0.5,0,0.9,0.1,1.4,0.3l0.4-0.9c-0.5-0.2-1-0.3-1.5-0.3C12.8,2.3,12.5,2.3,12.6,2.3z"/>
</g>
</svg>
