<?xml version="1.0" encoding="utf-8"?>
<!-- Generator: Adobe Illustrator 24.0.1, SVG Export Plug-In . SVG Version: 6.00 Build 0)  -->
<svg version="1.1" id="Layer_1" xmlns="http://www.w3.org/2000/svg" xmlns:xlink="http://www.w3.org/1999/xlink" x="0px" y="0px"
	 viewBox="0 0 24 24" style="enable-background:new 0 0 24 24;" xml:space="preserve">
<style type="text/css">
	.st0{fill:#FF0000;}
	.st1{fill:#FFFFFF;}
	.st2{fill:none;stroke:#C80000;stroke-width:0.75;stroke-miterlimit:10;}
</style>
<path class="st0" d="M18.8,13L18.8,13c-0.1-0.1-0.1-0.1-0.1-0.2c0-4.3-3.2-7.8-7.2-7.8s-7.2,3.5-7.2,7.8c0,0.1,0,0.1,0,0.2
	c-0.1,0-0.1,0-0.2,0c-0.6,0.2-0.8,1.1-0.5,2.1s1,1.6,1.6,1.5c0.2,0.4,0.4,0.8,0.7,1.1c0.5,2.9,2.8,5.8,5.6,5.8s5.1-3,5.6-5.8
	c0.3-0.3,0.5-0.7,0.7-1.1c0.6,0.1,1.2-0.5,1.5-1.5C19.6,14.2,19.4,13.2,18.8,13z"/>
<g>
	<path class="st1" d="M10.8,15.4V18H9.3v-7.3h2.5c0.7,0,1.3,0.2,1.7,0.6c0.4,0.4,0.6,1,0.6,1.7s-0.2,1.3-0.6,1.7
		c-0.4,0.4-1,0.6-1.7,0.6L10.8,15.4L10.8,15.4z M10.8,14.2h1.1c0.3,0,0.5-0.1,0.7-0.3s0.2-0.5,0.2-0.9c0-0.3-0.1-0.6-0.2-0.9
		c-0.2-0.2-0.4-0.3-0.7-0.3h-1.1V14.2z"/>
</g>
<g>
	<polygon class="st1" points="6.4,9.2 9.6,6 6.4,2.8 8.3,0.9 11.5,4.1 14.7,0.9 16.6,2.8 13.4,6 16.6,9.2 14.7,11.1 11.5,7.9 
		8.3,11.1 	"/>
	<polygon class="st2" points="6.4,9.2 9.6,6 6.4,2.8 8.3,0.9 11.5,4.1 14.7,0.9 16.6,2.8 13.4,6 16.6,9.2 14.7,11.1 11.5,7.9 
		8.3,11.1 	"/>
</g>
<g>
	<polygon class="st1" points="1.8,11.2 3.3,9.7 1.8,8.3 3.1,7.1 4.5,8.5 6,7.1 7.2,8.3 5.7,9.7 7.2,11.2 6,12.4 4.5,11 3.1,12.4 	
		"/>
	<polygon class="st2" points="1.8,11.2 3.3,9.7 1.8,8.3 3.1,7.1 4.5,8.5 6,7.1 7.2,8.3 5.7,9.7 7.2,11.2 6,12.4 4.5,11 3.1,12.4 	
		"/>
</g>
<g>
	<polygon class="st1" points="16.8,11.2 18.3,9.7 16.8,8.3 18.1,7.1 19.5,8.5 21,7.1 22.2,8.3 20.7,9.7 22.2,11.2 21,12.4 19.5,11 
		18.1,12.4 	"/>
	<polygon class="st2" points="16.8,11.2 18.3,9.7 16.8,8.3 18.1,7.1 19.5,8.5 21,7.1 22.2,8.3 20.7,9.7 22.2,11.2 21,12.4 19.5,11 
		18.1,12.4 	"/>
</g>
</svg>
