<?xml version="1.0" encoding="utf-8"?>
<!-- Generator: Adobe Illustrator 24.0.1, SVG Export Plug-In . SVG Version: 6.00 Build 0)  -->
<svg version="1.1" id="Layer_1" xmlns="http://www.w3.org/2000/svg" xmlns:xlink="http://www.w3.org/1999/xlink" x="0px" y="0px"
	 viewBox="0 0 24 24" style="enable-background:new 0 0 24 24;" xml:space="preserve">
<style type="text/css">
	.st0{fill:#FF0000;}
	.st1{fill:#FFFFFF;}
</style>
<path class="st0" d="M12.2,9.1l-1.1-1.5L12.2,7c0.1-0.1,0.2-0.1,0.2-0.2s0-0.2,0-0.3l-1.9-3.6c0.5-0.1,1-0.2,1.6-0.2
	c3.3,0,6.1,2.4,6.9,5.8l-2.8-0.9c-0.1,0-0.2,0-0.3,0L12.2,9.1z"/>
<path class="st0" d="M8.6,14.1l-1.9,2.4c-0.1-0.3-0.2-0.6-0.2-1c-0.3-0.4-0.5-0.7-0.7-1.1c-0.6,0.2-1.3-0.5-1.5-1.5
	c-0.3-1-0.1-1.9,0.5-2.1c0.1,0,0.1,0,0.2,0c0-0.1,0-0.1,0-0.2c0-3.5,2.1-6.4,4.9-7.4l1.8,3.4l-1.3,0.5c0,0-0.1,0-0.1,0.1L8.5,8.1
	C8.3,8.2,8.3,8.3,8.3,8.4L8.6,14.1z"/>
<path class="st0" d="M12,19.6c0.1,0.5,0.2,1.1,0.3,1.6c-0.1,0-0.2,0-0.3,0c-2.2,0-4.1-1.9-5-4l2.3-2.8c0-0.1,0.1-0.2,0.1-0.3L9,8.6
	l1.4-0.7l1.3,1.9C11.8,9.9,12,10,12.1,10s0.1,0,0.2,0l3.9-1.6l3,1c0.1,0.4,0.1,0.8,0.1,1.2c0,0.1,0,0.1,0,0.2c0.1,0,0.1,0,0.1,0
	c0.4,0.1,0.6,0.6,0.6,1.1l-5.6,1.8c-0.1,0-0.2,0.1-0.2,0.2c0,0.1,0,0.2,0,0.3l1.6,3.1l-3.5,1.9C12.1,19.3,12,19.5,12,19.6z"/>
<g>
	<path class="st1" d="M10.5,11.6c0,0.9-0.7,1-1.5,1s-1.5-0.1-1.5-1s0.7-1.5,1.5-1.5S10.5,10.8,10.5,11.6z"/>
</g>
<g>
	<path class="st1" d="M14.4,17.2c0,1.3-1,0-2.3,0s-2.3,1.3-2.3,0c0-1.3,1-2.3,2.3-2.3S14.4,15.9,14.4,17.2z"/>
</g>
<g>
	<path class="st1" d="M16.4,11.6c0,0.9-0.7,1-1.5,1s-1.5-0.1-1.5-1s0.7-1.5,1.5-1.5S16.4,10.8,16.4,11.6z"/>
</g>
<path class="st0" d="M14.9,14.3l4.9-1.6c0,0.1,0,0.1,0,0.1c-0.3,1-1,1.6-1.5,1.5c-0.2,0.4-0.4,0.8-0.7,1.1c-0.4,2.5-2.2,5.1-4.6,5.7
	l0,0c-0.1-0.4-0.1-0.8-0.2-1.4l3.6-1.9c0.2-0.1,0.2-0.3,0.2-0.5L14.9,14.3z"/>
</svg>
