<?xml version="1.0" encoding="utf-8"?>
<!-- Generator: Adobe Illustrator 24.0.1, SVG Export Plug-In . SVG Version: 6.00 Build 0)  -->
<svg version="1.1" id="Layer_1" xmlns="http://www.w3.org/2000/svg" xmlns:xlink="http://www.w3.org/1999/xlink" x="0px" y="0px"
	 viewBox="0 0 24 24" style="enable-background:new 0 0 24 24;" xml:space="preserve">
<style type="text/css">
	.st0{fill:#FF0000;}
	.st1{fill:#FFFFFF;}
	.st2{fill:#C80000;}
</style>
<g>
	<path class="st0" d="M19.4,10.8h-0.1c0-0.1,0-0.1,0-0.2c0-4.4-3.3-7.9-7.2-7.9s-7.2,3.5-7.2,7.8c0,0.1,0,0.1,0,0.2
		c-0.1,0-0.1,0-0.2,0c-0.6,0.2-0.8,1.1-0.5,2.1c0.3,1,1,1.6,1.6,1.5c0.2,0.4,0.4,0.8,0.7,1.1c0.5,2.9,2.8,5.8,5.6,5.8s5.1-3,5.6-5.8
		c0.3-0.3,0.5-0.7,0.7-1.1c0.6,0.1,1.2-0.5,1.5-1.5C20.2,11.9,20,10.9,19.4,10.8z"/>
</g>
<g>
	<g>
		<path class="st1" d="M13.9,11.7l-0.3,1L13,13.3c-0.1,0.2-0.3,0.4-0.4,0.5C12.4,13.9,12.2,14,12,14c-0.5,0-0.9-0.2-1.1-0.6
			l-0.6-0.5l-0.2-1.2l0.4-0.1c0,0.1,0.1,0.2,0.1,0.2c0.1,0.4,0.3,0.7,0.5,0.8s0.5,0.2,0.9,0.2c0.5,0,0.8-0.1,1-0.2
			c0.2-0.1,0.4-0.4,0.5-0.7c0-0.1,0.1-0.1,0.1-0.2H13.9z"/>
		<path class="st2" d="M12,14.2c-0.6,0-1-0.3-1.3-0.7L10.1,13L10,12.9l-0.3-1c0-0.1,0-0.1,0-0.2c0-0.1,0.1-0.1,0.2-0.1l0.4-0.1
			c0.1,0,0.2,0,0.3,0.1l0.1,0.2c0.2,0.4,0.4,0.5,0.5,0.6s0.3,0.1,0.8,0.1c0.6,0,0.8-0.1,0.9-0.1c0.1-0.1,0.2-0.2,0.4-0.6l0.1-0.2
			c0-0.1,0.2-0.2,0.3-0.1h0.4c0.1,0,0.1,0.1,0.2,0.1c0,0.1,0,0.1,0,0.2l-0.3,1c0,0,0,0.1-0.1,0.1l-0.6,0.5c-0.1,0.2-0.3,0.4-0.5,0.5
			C12.6,14.1,12.3,14.2,12,14.2z M10.6,12.6l0.5,0.5c0,0,0,0,0.1,0.1c0.2,0.3,0.4,0.5,0.8,0.5c0.2,0,0.4,0,0.5-0.1s0.3-0.2,0.3-0.4
			c0,0,0-0.1,0.1-0.1l0.6-0.5l0.1-0.3c-0.1,0.3-0.3,0.4-0.5,0.5S12.4,13,12,13c-0.5,0-0.8-0.1-1.1-0.2c-0.1-0.1-0.3-0.2-0.4-0.5
			L10.6,12.6z"/>
	</g>
	<g>
		<g>
			<path class="st1" d="M12.1,14.9c0.4-0.2,1.2-0.6,2.3-1.1c0.1,0,0.2-0.1,0.4-0.2c0.4-0.4,0.7-0.7,1-0.9s0.4-0.3,0.6-0.3
				c0.1,0,0.3,0,0.3,0.1c0.1,0.1,0.1,0.2,0.1,0.4s0,0.4-0.1,0.7c0.3,0.4,0.4,0.6,0.4,0.8s0,0.3-0.1,0.3c-0.1,0.1-0.2,0.1-0.4,0.1
				c-0.1,0-0.2,0-0.4-0.1s-0.4-0.2-0.6-0.4c-0.6,0.1-1.5,0.5-2.7,1.1c0.2,0.1,0.3,0.2,0.3,0.2c0.4,0.2,0.9,0.5,1.5,0.9
				c0.1,0,0.2,0.2,0.5,0.3c1.2,0.1,1.9,0.5,1.9,0.9c0,0.3-0.3,0.5-1,0.6c-0.3,0.4-0.6,0.6-0.8,0.6s-0.5-0.3-0.7-1
				c0-0.1-0.1-0.2-0.1-0.3c-1-0.8-1.8-1.4-2.6-1.8c-0.9,0.5-1.8,1.2-2.6,1.9c0,1-0.2,1.4-0.6,1.4c-0.2,0-0.5-0.2-0.8-0.7
				c-0.7,0-1-0.2-1-0.6c0-0.3,0.1-0.5,0.4-0.6s0.8-0.3,1.6-0.4c0.6-0.5,1.4-0.9,2.2-1.4c-1.2-0.6-2.1-0.9-2.8-1.1
				c-0.2,0.2-0.3,0.4-0.5,0.4c-0.1,0.1-0.3,0.1-0.4,0.1c-0.2,0-0.3,0-0.4-0.1s-0.1-0.2-0.1-0.3s0.2-0.4,0.5-0.8
				c-0.1-0.3-0.1-0.5-0.1-0.6c0-0.2,0-0.4,0.1-0.5s0.2-0.1,0.4-0.1c0.1,0,0.3,0.1,0.5,0.3c0.3,0.2,0.6,0.5,0.9,0.9
				C10.1,13.9,11,14.3,12.1,14.9z"/>
			<path class="st2" d="M15.4,19.3c-0.5,0-0.8-0.6-1-1.1c0-0.1,0-0.1-0.1-0.2c-0.9-0.7-1.7-1.3-2.4-1.7c-0.9,0.5-1.6,1.1-2.5,1.7
				c-0.1,0.9-0.5,1.3-0.9,1.3c-0.3,0-0.6-0.2-0.9-0.7c-1,0-1.2-0.5-1.2-0.8c0-0.4,0.2-0.7,0.5-0.8s0.8-0.3,1.7-0.4
				c0.5-0.4,1.1-0.8,1.8-1.1c-0.9-0.4-1.6-0.7-2.2-0.8C8,14.8,7.9,14.9,7.8,15c-0.4,0.2-0.8,0.2-1.1,0c-0.1-0.1-0.2-0.2-0.2-0.5
				c0-0.1,0.1-0.3,0.4-0.8c-0.1-0.2-0.1-0.4-0.1-0.6c0.1-0.4,0.2-0.6,0.3-0.7c0.2-0.2,0.6-0.4,1.3,0.1C8.7,12.7,9,13,9.3,13.4
				c0.8,0.3,1.7,0.7,2.7,1.2c0.5-0.2,1.2-0.6,2.3-1c0,0,0.2-0.1,0.4-0.2c0.4-0.4,0.7-0.7,1-0.9c0.3-0.2,0.5-0.4,0.7-0.4
				c0.3,0,0.4,0.1,0.5,0.2c0.1,0.2,0.1,0.4,0.1,0.6s0,0.3-0.1,0.6c0.3,0.4,0.4,0.7,0.4,0.9s-0.1,0.4-0.2,0.5s-0.3,0.2-0.5,0.2
				c-0.1,0-0.3,0-0.5-0.2c-0.2-0.1-0.3-0.2-0.6-0.3c-0.5,0.1-1.2,0.4-2.1,0.8c0.4,0.2,0.9,0.5,1.5,0.9c0.1,0,0.2,0.1,0.5,0.3
				c0.6,0.1,2,0.3,2,1.2c0,0.4-0.4,0.7-1.1,0.9C15.9,19.1,15.7,19.3,15.4,19.3z M12,15.7L12,15.7c0.9,0.4,1.8,1,2.7,1.8l0.1,0.1
				c0.1,0.1,0.1,0.2,0.1,0.3c0.3,0.8,0.5,0.8,0.5,0.8s0.2,0,0.6-0.5c0,0,0.1-0.1,0.2-0.1c0.5-0.1,0.8-0.2,0.8-0.4
				c0-0.3-0.6-0.6-1.6-0.7h-0.1c-0.3-0.2-0.4-0.3-0.5-0.3c-0.6-0.4-1.1-0.7-1.5-0.9l-0.4-0.1c-0.1,0-0.1-0.1-0.1-0.2
				c0-0.1,0.1-0.2,0.1-0.2c1.2-0.6,2.1-1,2.8-1.1c0.1,0,0.1,0,0.2,0c0.3,0.2,0.5,0.3,0.6,0.4c0.2,0.1,0.3,0.1,0.3,0.1
				c0.1,0,0.2,0,0.2,0s0-0.1,0-0.2c0,0,0-0.2-0.4-0.7c0-0.1-0.1-0.1-0.1-0.2c0-0.3,0.1-0.5,0.1-0.6c0-0.2,0-0.2-0.1-0.3
				c0,0,0,0-0.1,0c0,0-0.1,0-0.4,0.3c-0.2,0.2-0.6,0.5-1,0.9c0,0-0.1,0-0.1,0.1c-0.2,0.1-0.4,0.2-0.4,0.2c-1.1,0.5-1.9,0.8-2.3,1.1
				c-0.1,0-0.2,0-0.2,0c-1.1-0.6-2-1-2.8-1.3c0,0-0.1,0-0.1-0.1c-0.3-0.4-0.6-0.7-0.9-0.9c-0.3-0.4-0.4-0.4-0.5-0.4s-0.2,0-0.2,0.1
				c0,0-0.1,0.1-0.1,0.3c0,0.1,0,0.3,0.1,0.6c0,0.1,0,0.1,0,0.2c-0.3,0.5-0.4,0.6-0.4,0.6c0,0.1,0,0.1,0,0.1c0.1,0.1,0.3,0.1,0.5,0
				c0.1-0.1,0.3-0.2,0.4-0.3c0.1,0,0.1-0.1,0.2-0.1c0.9,0.2,1.9,0.5,3.1,1.1c0.1,0,0.1,0.1,0.1,0.2c0,0.1,0,0.2-0.1,0.2
				c-0.8,0.5-1.6,0.9-2.2,1.4H9c-1,0.1-1.4,0.3-1.6,0.4c-0.2,0.1-0.3,0.2-0.3,0.4c0,0.2,0.3,0.3,0.8,0.3c0.1,0,0.2,0,0.2,0.1
				c0.3,0.5,0.5,0.5,0.6,0.5c0.2,0,0.4-0.3,0.5-0.9c0-0.1,0-0.1,0.1-0.1c0.8-0.7,1.7-1.4,2.7-1.9C11.9,15.8,12,15.7,12,15.7z"/>
		</g>
		<g>
			<path class="st1" d="M14.6,5.1C14,4.6,13.1,4.3,12,4.3s-1.9,0.3-2.6,0.8c-0.7,0.6-1,1.3-1,2.2c0,0.8,0.1,1.4,0.3,1.7
				C9,9.5,9.1,9.8,9.1,10l0.1,0.9l1.4,0.7l0.2,0.5c0.1,0,0.3,0.1,0.5,0.1s0.4,0,0.6,0c0.4,0,0.8,0,1.1-0.1l0.2-0.5l1.4-0.7l0-0.9
				c0-0.2,0.1-0.3,0.1-0.4c0.4-0.8,0.7-1.5,0.7-2.3C15.6,6.5,15.3,5.7,14.6,5.1z M10.5,10c-0.6,0-0.9-0.3-0.9-1
				c0-0.3,0.1-0.6,0.2-0.7c0.1-0.2,0.4-0.2,0.7-0.2c0.5,0,0.8,0.3,0.8,0.9C11.4,9.7,11.1,10,10.5,10z M12.3,11.4
				c-0.1,0-0.2,0-0.2-0.1c-0.1,0.1-0.2,0.1-0.3,0.1s-0.2,0-0.3-0.1c0,0-0.1-0.1-0.1-0.2s0.1-0.2,0.2-0.4c0.2-0.2,0.3-0.4,0.5-0.6
				c0.1,0.2,0.2,0.4,0.4,0.6s0.2,0.3,0.2,0.4C12.7,11.3,12.6,11.4,12.3,11.4z M13.6,10c-0.6,0-0.9-0.3-0.9-1c0-0.6,0.3-0.9,0.9-0.9
				c0.3,0,0.5,0.1,0.6,0.2c0.1,0.1,0.2,0.4,0.2,0.7C14.4,9.7,14.1,10,13.6,10z"/>
			<path class="st2" d="M12,12.5c-0.2,0-0.4,0-0.6,0s-0.4-0.1-0.5-0.1s-0.1-0.1-0.2-0.1l-0.1-0.5l-1.4-0.7c-0.1,0-0.1-0.1-0.1-0.1
				l-0.2-0.9c0-0.1-0.1-0.3-0.4-0.9c-0.2-0.4-0.4-1-0.4-1.8c0-1,0.4-1.8,1.1-2.4s1.6-0.9,2.8-0.9c1.1,0,2.1,0.3,2.8,0.9l0,0
				c0.7,0.6,1.1,1.4,1.1,2.4c0,0.8-0.2,1.6-0.7,2.4c0,0,0,0.1-0.1,0.3L14.9,11c0,0.1-0.1,0.2-0.1,0.2l-1.4,0.6l-0.2,0.4
				c0,0.1-0.1,0.1-0.2,0.1C12.9,12.5,12.4,12.5,12,12.5z M11.1,11.9c0.1,0,0.2,0,0.3,0.1c0.2,0,0.4,0,0.6,0c0.4,0,0.6,0,0.9-0.1
				l0.1-0.4c0,0,0-0.1,0.1-0.1l1.3-0.7l0.2-0.7c0-0.2,0.1-0.3,0.1-0.4c0.4-0.7,0.6-1.5,0.6-2.2c0-0.8-0.3-1.5-0.9-2
				C13.8,4.8,13,4.5,12,4.5s-1.9,0.3-2.4,0.8c-0.5,0.5-0.9,1.2-0.9,2C8.7,8,8.8,8.6,9,8.9C9.4,9.6,9.5,9.8,9.5,10v0.7l1.3,0.6
				c0.1,0,0.1,0.1,0.1,0.1L11.1,11.9z M12.3,11.7c-0.1,0-0.1,0-0.2-0.1c-0.3,0.1-0.6,0.1-0.7-0.1c-0.1,0-0.2-0.2-0.2-0.4
				s0.1-0.4,0.3-0.6c0.1-0.1,0.1-0.3,0.4-0.5c0-0.1,0.1-0.1,0.2-0.1l0,0c0.1,0,0.2,0,0.2,0.1c0.1,0.2,0.2,0.4,0.4,0.5
				c0.2,0.2,0.2,0.4,0.2,0.6s-0.1,0.3-0.2,0.4C12.7,11.6,12.4,11.7,12.3,11.7z M12.1,11.1h0.1c0.1,0,0.1,0,0.1,0c0.1,0,0.1,0,0.1,0
				s0,0,0-0.1l0,0c0,0,0-0.1-0.2-0.3c0,0-0.1,0-0.1-0.1c-0.1,0.1-0.2,0.1-0.2,0.2c-0.3,0.2-0.3,0.3-0.3,0.3c0,0.1,0,0.1,0.1,0.1
				c0,0,0,0,0.1,0C12,11.1,12,11.1,12.1,11.1z M13.6,10.3c-0.4,0-1.1-0.2-1.1-1.2c0-0.8,0.4-1.2,1.1-1.2c0.3,0,0.6,0.1,0.8,0.3
				c0.2,0.2,0.3,0.5,0.3,0.8C14.7,10.1,13.9,10.3,13.6,10.3z M13.6,8.4C13.1,8.4,13,8.6,13,9c0,0.6,0.3,0.7,0.6,0.7s0.6-0.1,0.6-0.8
				c0-0.2,0-0.4-0.1-0.5C13.9,8.4,13.8,8.4,13.6,8.4z M10.5,10.3c-0.4,0-1.1-0.2-1.1-1.3c0-0.4,0.1-0.7,0.3-0.9
				c0.2-0.2,0.5-0.3,0.8-0.3c0.7,0,1.1,0.4,1.1,1.1C11.6,10.1,10.9,10.3,10.5,10.3z M10.6,8.4c-0.3,0-0.4,0-0.5,0.1S9.9,8.8,9.9,9
				c0,0.6,0.3,0.7,0.6,0.7c0.3,0.1,0.6,0,0.6-0.7C11.1,8.5,11,8.4,10.6,8.4z"/>
		</g>
	</g>
</g>
</svg>
