<?xml version="1.0" encoding="utf-8"?>
<!-- Generator: Adobe Illustrator 24.0.1, SVG Export Plug-In . SVG Version: 6.00 Build 0)  -->
<svg version="1.1" id="Layer_1" xmlns="http://www.w3.org/2000/svg" xmlns:xlink="http://www.w3.org/1999/xlink" x="0px" y="0px"
	 viewBox="0 0 24 24" style="enable-background:new 0 0 24 24;" xml:space="preserve">
<style type="text/css">
	.st0{fill:#FF0000;}
</style>
<title>Asset 42</title>
<g id="Layer_1-2">
	<path class="st0" d="M16.2,19c-1.1,0.9-2,1.5-3.8,0s-3-3.7-4.5-3.8s-5.2,0.8-5.4,0s0.6-1.5,1.5-1.5s3.1,0.7,4.7-0.7s2.8-2.1,3-3.8
		s-0.6-4.9,0-5.5s1.3-0.3,1.5,0.7s1,5.3,0,7c0,0-0.2,3.1,0.8,3.8c0,0,1.4-2.4,3-3c1.6-0.6,4.7-0.8,4.6,0s-0.1,1.4-1.5,1.5
		s-3.1,0.4-4.5,3c0.9-0.5,2-0.7,3-0.8c1.5,0.4,2.6,1.5,3,3c0.1,0.9-0.6,1.9-1.5,1.5S19.3,16.5,16.2,19z"/>
	<ellipse transform="matrix(0.933 -0.36 0.36 0.933 -3.0866 3.6283)" class="st0" cx="8.2" cy="10.1" rx="1.9" ry="2.5"/>
</g>
</svg>
