<?xml version="1.0" encoding="utf-8"?>
<!-- Generator: Adobe Illustrator 24.0.1, SVG Export Plug-In . SVG Version: 6.00 Build 0)  -->
<svg version="1.1" id="Layer_1" xmlns="http://www.w3.org/2000/svg" xmlns:xlink="http://www.w3.org/1999/xlink" x="0px" y="0px"
	 viewBox="0 0 24 24" style="enable-background:new 0 0 24 24;" xml:space="preserve">
<style type="text/css">
	.st0{fill:#FF0000;}
	.st1{font-family:'Roboto-Regular';}
	.st2{font-size:8px;}
</style>
<title>Asset 48</title>
<g id="Layer_1-2">
	<text transform="matrix(1 0 0 1 9.6 8.24)" class="st0 st1 st2">R</text>
	<path class="st0" d="M21.4,12c-1.5,1.4-2.8,3.1-4.6,4.1c-1.1,0.6-2.7,0.3-4,0.5c-0.7-3.1,0.8-6.3,3.6-7.8c0.3-0.2,1-0.2,1.1,0
		c0.3,0.4,0.3,0.9,0.2,1.3c-0.5,0.8-1,1.5-1.6,2.2c2.2-0.9,2.5-1.7,3-3.8c0.5-1.8,0-4.7,0.7-4.9c0.8,0,1.7-0.3,1.6,1.3
		C21.2,7.6,21.4,9.2,21.4,12z"/>
	<path class="st0" d="M2.7,12c1.5,1.4,2.8,3.1,4.6,4.1c1.1,0.6,2.7,0.3,4,0.5c0.6-3.1-0.9-6.3-3.7-7.8c-0.3-0.2-1-0.2-1.1,0
		c-0.2,0.3,0.9,1.4,1.1,1.8c0.3,0.6,0,1.1,0.3,1.7c-3-1.2-2.5-1.7-3-3.8c-0.5-1.8,0-4.7-0.7-4.9c-0.8,0-1.7-0.4-1.6,1.2
		C2.8,7.6,2.7,9.2,2.7,12z"/>
	<path class="st0" d="M5.1,22.6c-0.7-1.1-0.6-2,0.9-2c3.7,0,7.5,0,11.2,0c1.5,0,1.6,0.8,0.9,2H5.1z"/>
	<path class="st0" d="M11.8,19.5c-1.9,0-3.8,0.1-5.8,0c-0.5,0-0.9-0.5-1.3-0.8c0.5-0.4,0.9-1,1.3-1.1c3.8-0.1,7.5-0.1,11.3,0
		c0.4,0,0.8,0.6,1.2,0.9c-0.4,0.3-0.8,0.9-1.2,0.9C15.5,19.6,13.7,19.5,11.8,19.5z"/>
</g>
</svg>
