<?xml version="1.0" encoding="utf-8"?>
<!-- Generator: Adobe Illustrator 24.0.1, SVG Export Plug-In . SVG Version: 6.00 Build 0)  -->
<svg version="1.1" id="Layer_1" xmlns="http://www.w3.org/2000/svg" xmlns:xlink="http://www.w3.org/1999/xlink" x="0px" y="0px"
	 viewBox="0 0 24 24" style="enable-background:new 0 0 24 24;" xml:space="preserve">
<style type="text/css">
	.st0{fill:#FF0000;}
	.st1{fill:#FFFFFF;}
	.st2{fill:#FFFFFF;stroke:#C80000;stroke-width:0.75;stroke-miterlimit:10;}
</style>
<path class="st0" d="M19.3,13.1h-0.1c0-0.1,0-0.1,0-0.2c0-4.3-3.2-7.8-7.2-7.8s-7.2,3.5-7.2,7.8c0,0.1,0,0.1,0,0.2
	c-0.1,0-0.1,0-0.2,0c-0.6,0.2-0.8,1.1-0.5,2.1c0.3,1,1,1.6,1.6,1.5c0.2,0.4,0.4,0.8,0.7,1.1c0.5,2.9,2.8,5.8,5.6,5.8s5.1-3,5.6-5.8
	c0.3-0.3,0.5-0.7,0.7-1.1c0.6,0.1,1.2-0.5,1.5-1.5C20,14.2,19.9,13.3,19.3,13.1z"/>
<g>
	<path class="st1" d="M12.9,16c0-0.3-0.1-0.5-0.2-0.7s-0.4-0.3-0.8-0.5c-0.7-0.3-1.3-0.6-1.7-0.9c-0.4-0.2-0.6-0.7-0.6-1.3
		s0.2-1.1,0.7-1.4c0.4-0.4,1-0.6,1.7-0.6s1.2,0.2,1.7,0.6c0.4,0.4,0.6,0.9,0.6,1.6l0,0h-1.4c0-0.3-0.1-0.6-0.2-0.8
		c-0.2-0.2-0.4-0.3-0.7-0.3s-0.5,0.1-0.7,0.3s-0.2,0.4-0.2,0.6s0.1,0.4,0.3,0.6s0.5,0.3,0.9,0.5c0.7,0.2,1.2,0.5,1.5,0.9
		s0.5,0.8,0.5,1.4s-0.2,1.1-0.6,1.5S12.7,18,12,18s-1.3-0.2-1.8-0.6c-0.5-0.4-0.7-1-0.7-1.7l0,0h1.4c0,0.4,0.1,0.8,0.3,1
		c0.2,0.2,0.5,0.3,0.9,0.3c0.3,0,0.5-0.1,0.7-0.2S12.9,16.3,12.9,16z"/>
</g>
<g>
	<g>
		<path class="st2" d="M10.5,3.5c0,0-1.7,0.2-2.8,0.3C7.6,3.8,7.5,3.9,7.5,4s0,0.2,0.1,0.3c0.7,0.7,2,1.9,2,1.9S9.3,7.9,9,9
			c0,0.1,0,0.2,0.1,0.3s0.2,0.1,0.3,0c1-0.6,2.5-1.4,2.5-1.4s1.5,0.8,2.5,1.4c0.1,0,0.2,0,0.3,0c0.1-0.1,0.1-0.2,0.1-0.3
			c-0.2-1.1-0.6-2.8-0.6-2.8s1.3-1.1,2.1-1.9c0.1-0.1,0.1-0.2,0.1-0.3c0-0.1-0.1-0.2-0.2-0.2c-1.1-0.1-2.8-0.3-2.8-0.3
			S12.6,2,12.1,0.9c0-0.1-0.1-0.2-0.2-0.2c-0.1,0.1-0.2,0.1-0.3,0.2C11.3,2,10.5,3.5,10.5,3.5z"/>
	</g>
</g>
<g>
	<g>
		<path class="st2" d="M17.6,7.6c0,0-1,0.1-1.6,0.2c-0.1,0-0.1,0-0.1,0.1s0,0.1,0,0.2c0.5,0.4,1.2,1.1,1.2,1.1s-0.2,1-0.3,1.6
			c0,0.1,0,0.1,0.1,0.2c0.1,0,0.1,0,0.2,0c0.6-0.3,1.4-0.8,1.4-0.8s0.9,0.5,1.4,0.8c0.1,0,0.1,0,0.2,0s0.1-0.1,0.1-0.2
			C20.1,10.2,20,9.2,20,9.2s0.7-0.7,1.2-1.1c0,0,0.1-0.1,0-0.2s-0.1-0.1-0.1-0.1c-0.7-0.1-1.6-0.2-1.6-0.2s-0.4-0.9-0.7-1.5
			C18.8,6,18.6,6,18.6,6c-0.1,0-0.1,0-0.1,0.1C18,6.7,17.6,7.6,17.6,7.6z"/>
	</g>
</g>
<g>
	<g>
		<path class="st2" d="M4.7,7.6c0,0-1,0.1-1.6,0.2C3,7.8,3,7.8,3,7.9S3,8,3,8.1c0.5,0.4,1.2,1.1,1.2,1.1s-0.2,1-0.3,1.6
			c0,0.1,0,0.1,0.1,0.2c0.1,0,0.1,0,0.2,0c0.5-0.4,1.4-0.9,1.4-0.9s0.9,0.5,1.4,0.8c0.1,0,0.1,0,0.2,0s0.1-0.1,0.1-0.2
			c-0.2-0.6-0.4-1.6-0.4-1.6S7.6,8.5,8.1,8c0,0,0.1-0.1,0-0.2C8.1,7.7,8,7.7,8,7.7c-0.6,0-1.6-0.1-1.6-0.1S6,6.7,5.7,6.1
			C5.7,6,5.6,6,5.6,6C5.5,6,5.5,6,5.5,6.1C5.2,6.7,4.7,7.6,4.7,7.6z"/>
	</g>
</g>
</svg>
