<?xml version="1.0" encoding="utf-8"?>
<!-- Generator: Adobe Illustrator 24.0.1, SVG Export Plug-In . SVG Version: 6.00 Build 0)  -->
<svg version="1.1" id="Layer_1" xmlns="http://www.w3.org/2000/svg" xmlns:xlink="http://www.w3.org/1999/xlink" x="0px" y="0px"
	 viewBox="0 0 24 24" style="enable-background:new 0 0 24 24;" xml:space="preserve">
<style type="text/css">
	.st0{fill:#FF0000;}
	.st1{fill:#FFFFFF;}
</style>
<path class="st0" d="M19.4,10.8h-0.1c0-0.1,0-0.1,0-0.2c0-4.4-3.3-7.9-7.2-7.9s-7.2,3.5-7.2,7.8c0,0.1,0,0.1,0,0.2
	c-0.1,0-0.1,0-0.2,0c-0.6,0.2-0.8,1.1-0.5,2.1c0.3,1,1,1.6,1.6,1.5c0.2,0.4,0.4,0.8,0.7,1.1c0.5,2.9,2.8,5.8,5.6,5.8s5.1-3,5.6-5.8
	c0.3-0.3,0.5-0.7,0.7-1.1c0.6,0.1,1.2-0.5,1.5-1.5C20.2,11.9,20,10.9,19.4,10.8z"/>
<path class="st1" d="M14.4,16.6c0,1.3-1,0-2.3,0s-2.3,1.3-2.3,0s1-2.3,2.3-2.3S14.4,15.3,14.4,16.6z"/>
<rect x="8.6" y="8.5" transform="matrix(0.7071 -0.7071 0.7071 0.7071 -5.0048 9.484)" class="st1" width="0.7" height="4.5"/>
<rect x="6.7" y="10.4" transform="matrix(0.7071 -0.7071 0.7071 0.7071 -4.9938 9.4851)" class="st1" width="4.5" height="0.7"/>
<rect x="14.6" y="8.5" transform="matrix(0.7071 -0.7071 0.7071 0.7071 -3.2476 13.7266)" class="st1" width="0.7" height="4.5"/>
<rect x="12.7" y="10.4" transform="matrix(0.7071 -0.7071 0.7071 0.7071 -3.2365 13.7277)" class="st1" width="4.5" height="0.7"/>
</svg>
