<?xml version="1.0" encoding="utf-8"?>
<!-- Generator: Adobe Illustrator 24.0.1, SVG Export Plug-In . SVG Version: 6.00 Build 0)  -->
<svg version="1.1" id="Layer_1" xmlns="http://www.w3.org/2000/svg" xmlns:xlink="http://www.w3.org/1999/xlink" x="0px" y="0px"
	 viewBox="0 0 24 24" style="enable-background:new 0 0 24 24;" xml:space="preserve">
<style type="text/css">
	.st0{fill:#252525;}
	.st1{fill:#FFFFFF;}
</style>
<g>
	<g>
		<circle class="st0" cx="12" cy="12" r="9.3"/>
	</g>
	<g>
		<path class="st1" d="M12,6.6c3,0,5.4,2.4,5.4,5.4S15,17.4,12,17.4S6.6,15,6.6,12S9,6.6,12,6.6 M12,5.6c-3.6,0-6.4,2.9-6.4,6.4
			s2.9,6.4,6.4,6.4c3.6,0,6.4-2.9,6.4-6.4S15.6,5.6,12,5.6L12,5.6z"/>
	</g>
	<g>
		<path class="st1" d="M11.6,13.2h6.9c0-0.2,0-0.3,0-0.5c0-4-3-7.3-6.8-7.3h-0.1v7.3V13.2z"/>
	</g>
</g>
</svg>
