<?xml version="1.0" encoding="utf-8"?>
<!-- Generator: Adobe Illustrator 24.0.1, SVG Export Plug-In . SVG Version: 6.00 Build 0)  -->
<svg version="1.1" id="Layer_1" xmlns="http://www.w3.org/2000/svg" xmlns:xlink="http://www.w3.org/1999/xlink" x="0px" y="0px"
	 viewBox="0 0 24 24" style="enable-background:new 0 0 24 24;" xml:space="preserve">
<style type="text/css">
	.st0{fill:#252525;}
	.st1{fill:#FFFFFF;}
</style>
<rect x="4.9" y="4.9" transform="matrix(0.7071 -0.7071 0.7071 0.7071 -4.9706 12)" class="st0" width="14.3" height="14.3"/>
<g>
	<path class="st1" d="M14.4,12.8L14.4,12.8c0,0.8-0.2,1.4-0.5,1.8c-0.4,0.4-0.9,0.6-1.7,0.6c-0.7,0-1.3-0.2-1.8-0.7
		C10,14,9.7,13.4,9.7,12.6v-2.1c0-0.8,0.2-1.5,0.6-1.9c0.4-0.5,1-0.7,1.7-0.7c0.8,0,1.3,0.2,1.7,0.6s0.6,1,0.6,1.8l0,0H13
		c0-0.5,0-0.8-0.2-1S12.4,9,12,9c-0.3,0-0.6,0.1-0.7,0.4c-0.2,0.2-0.2,0.6-0.2,1.1v2.1c0,0.5,0.1,0.9,0.3,1.1
		c0.2,0.2,0.4,0.4,0.8,0.4c0.3,0,0.6-0.1,0.7-0.3c0.1-0.2,0.2-0.5,0.2-1H14.4z"/>
</g>
</svg>
