<?xml version="1.0" encoding="utf-8"?>
<!-- Generator: Adobe Illustrator 24.0.1, SVG Export Plug-In . SVG Version: 6.00 Build 0)  -->
<svg version="1.1" id="Layer_1" xmlns="http://www.w3.org/2000/svg" xmlns:xlink="http://www.w3.org/1999/xlink" x="0px" y="0px"
	 viewBox="0 0 24 24" style="enable-background:new 0 0 24 24;" xml:space="preserve">
<style type="text/css">
	.st0{fill:#262324;}
	.st1{fill:#FFFFFF;}
</style>
<g>
	<polygon class="st0" points="11,19.5 3.4,20.5 8.6,17.1 3,13.5 8.7,13.5 2.8,3.5 10.5,8.4 9.2,4.6 12.2,6.5 14.2,3.9 16.6,7.3 
		19,4.2 17.6,18 	"/>
	<g>
		<path class="st0" d="M16,20c-1.6,0-3.2-0.6-3.6-1.4c-0.2-0.2-1.8-0.7-2.5-0.7c-0.1,0-0.2,0-0.3,0c-0.4,0-0.8-0.3-0.8-0.7
			c-0.1-0.4,0.1-1,0.7-1.3c0.3-0.1,0.8-0.2,1.4-0.2c0.8,0,1.6,0.1,2,0.2c0.1,0,0.2,0,0.2,0s0,0,0.1,0v-0.1c-0.1-0.3-0.5-1.1-1-1.9
			c-1.9-3.4-2.2-4.2-1.8-4.6C10.5,9.1,10.8,9,11,9c0.9,0,2.1,1.3,2.6,2.2c0.2,0.4,0.5,0.7,0.7,0.9c-0.2-0.8-0.6-1.9-0.8-2.5
			c-0.1-0.4-0.3-0.7-0.3-0.9c-0.1-0.5-0.1-0.9,0.2-1.2C13.7,7.2,14.1,7,14.5,7c0.7,0,1,0.9,1.6,3.4c0-0.1,0-0.3,0-0.5
			c0-1.3,0.5-2,1.2-2c0.2,0,0.4,0.1,0.6,0.3c0.6,0.7,0.3,3.4,0.3,3.5s0,0.1,0,0.2c0.6-0.9,1.5-1.8,2.2-1.8c0.3,0,0.6,0.2,0.7,0.5
			c0.2,0.4,0,1.1-1.6,3.7c-0.1,0.1-0.1,0.2-0.2,0.3c0,0.1,0,0.8,0,1.3c0,0.8,0,1.7-0.1,2.3C18.6,19.6,16.3,19.9,16,20L16,20L16,20z"
			/>
		<path class="st1" d="M14.3,7.5c0.6,0,1.4,5,1.7,5l0,0c0.3,0,0.4-1.9,0.4-2.5s0.1-1.5,0.7-1.5l0,0c0.6,0,0.4,2.7,0.3,3.1
			c0,0.3,0,1.3,0.3,1.3c0.1,0,0.2-0.1,0.4-0.4c0.5-1,1.5-1.9,2-1.9c0.1,0,0.2,0,0.2,0.1c0.2,0.5-1.6,3.3-1.8,3.6s0,2.7-0.2,3.8
			s-2.4,1.4-2.4,1.4c-1.5,0-2.8-0.6-3.1-1.1s-2.2-1-3-1c-0.1,0-0.1,0-0.2,0H9.5c-0.4,0-0.6-0.7,0.1-1c0.3-0.1,0.7-0.2,1.1-0.2
			c0.7,0,1.5,0.1,1.8,0.2c0.1,0,0.3,0.1,0.4,0.1c0.4,0,0.7-0.2,0.5-0.8c-0.3-0.8-3.2-5.6-2.9-6c0.1-0.1,0.1-0.1,0.2-0.1
			c0.5,0,1.6,0.9,2.1,1.9c0.6,1,1.3,1.7,1.6,1.7c0.1,0,0.1,0,0.1-0.1c0.2-0.3-1.1-3.9-1.3-4.5C13.2,7.9,13.6,7.5,14.3,7.5 M14.3,6.5
			c-0.6,0-1.2,0.3-1.5,0.7c-0.3,0.5-0.4,1.1-0.3,1.7c0,0.1,0.1,0.4,0.2,0.7c-0.6-0.6-1.2-1-1.9-1c-0.4,0-0.8,0.2-1,0.5
			c-0.5,0.7-0.2,1.6,1.8,5.2c0.2,0.4,0.4,0.8,0.6,1.1c-0.4-0.1-1-0.1-1.4-0.1c-0.7,0-1.2,0.1-1.6,0.2c-0.8,0.3-1.2,1.1-1,1.8
			c0.1,0.6,0.7,1.1,1.3,1.1c0.1,0,0.2,0,0.3,0c0.5,0,1.8,0.3,2.1,0.5c0.6,0.9,2.2,1.6,3.9,1.6h0.1H16c0.5-0.1,2.9-0.4,3.3-2.2
			c0.1-0.7,0.1-1.6,0.1-2.4c0-0.4,0-0.9,0-1.1c0,0,0.1-0.1,0.1-0.2c1.7-2.8,1.9-3.5,1.7-4.2C21,9.9,20.6,9.6,20,9.6
			c-0.5,0-1.1,0.3-1.6,0.8c0-0.9,0-2-0.5-2.5c-0.2-0.3-0.6-0.4-0.9-0.4l0,0l0,0c-0.4,0-0.9,0.1-1.3,0.7C15.4,7.1,15,6.5,14.3,6.5
			L14.3,6.5z"/>
	</g>
</g>
</svg>
