<?xml version="1.0" encoding="utf-8"?>
<!-- Generator: Adobe Illustrator 24.0.1, SVG Export Plug-In . SVG Version: 6.00 Build 0)  -->
<svg version="1.1" id="Layer_1" xmlns="http://www.w3.org/2000/svg" xmlns:xlink="http://www.w3.org/1999/xlink" x="0px" y="0px"
	 viewBox="0 0 24 24" style="enable-background:new 0 0 24 24;" xml:space="preserve">
<style type="text/css">
	.st0{fill:#242528;}
	.st1{fill:#FFFFFF;}
</style>
<path class="st0" d="M8.9,4.6H7.1c-0.7,0-1.2,0.6-1.2,1.2v12.4c0,0.7,0.5,1.2,1.2,1.2h10.2c0.4,0,0.8-0.3,0.8-0.8c0-0.4-0.3-1-0.8-1
	H8c-0.3,0-0.6,0-0.6-0.3s0.3-1,0.6-1h8.8c0.7,0,1.2-0.6,1.2-1.2V5.9c0-0.7-0.5-1.2-1.2-1.2h-4.2l0,0L8.9,4.6"/>
<g>
	<path class="st1" d="M10.2,6.8c0.5-0.1,1.1-0.1,1.9-0.1c1,0,1.6,0.2,2.1,0.5c0.4,0.3,0.6,0.8,0.6,1.3c0,0.9-0.6,1.5-1.2,1.7l0,0
		c0.5,0.2,0.8,0.7,0.9,1.3c0.2,0.8,0.4,1.6,0.5,1.9h-1.3c-0.1-0.2-0.3-0.8-0.5-1.6c-0.2-0.9-0.5-1.2-1.2-1.2h-0.6v2.8h-1.2V6.8z
		 M11.5,9.8h0.7c0.8,0,1.3-0.4,1.3-1.1c0-0.7-0.5-1.1-1.3-1.1c-0.4,0-0.6,0-0.8,0.1v2.1C11.4,9.8,11.5,9.8,11.5,9.8z"/>
</g>
</svg>
