<?xml version="1.0" encoding="utf-8"?>
<!-- Generator: Adobe Illustrator 24.0.1, SVG Export Plug-In . SVG Version: 6.00 Build 0)  -->
<svg version="1.1" id="Layer_1" xmlns="http://www.w3.org/2000/svg" xmlns:xlink="http://www.w3.org/1999/xlink" x="0px" y="0px"
	 viewBox="0 0 24 24" style="enable-background:new 0 0 24 24;" xml:space="preserve">
<style type="text/css">
	.st0{fill:#242528;}
</style>
<g>
	<path class="st0" d="M3.8,2.6c0,0,6.1,5.8,12.2,11.5l1.4-2.2l1.8,1.3l-2.9,2.5l3.7,4.6l-1,1L15.3,17l-2.8,2.5l-1.3-1l2-1.6
		C13.2,16.8,6,8.1,3.8,2.6z"/>
	<path class="st0" d="M14.8,10.9C14.8,11,14.7,10.9,14.8,10.9c2-2.7,4.3-5.8,5.3-8.4c0,0-3.8,2.4-7.8,6.1
		C12.8,9.2,14.2,10.4,14.8,10.9z"/>
	<path class="st0" d="M8.3,13.6C8.1,13.4,6.8,12,6.8,12l-1.6,1l2.4,2.6l-3.7,4.6l1,1l3.7-4.3l1.1,1c0.4-0.5,0.8-0.9,1.2-1.4
		c0.1-0.1,0.1-0.1,0.2-0.2C10.1,15.4,9.2,14.5,8.3,13.6z"/>
</g>
</svg>
