<?xml version="1.0" encoding="utf-8"?>
<!-- Generator: Adobe Illustrator 24.0.1, SVG Export Plug-In . SVG Version: 6.00 Build 0)  -->
<svg version="1.1" id="Layer_1" xmlns="http://www.w3.org/2000/svg" xmlns:xlink="http://www.w3.org/1999/xlink" x="0px" y="0px"
	 viewBox="0 0 24 24" style="enable-background:new 0 0 24 24;" xml:space="preserve">
<style type="text/css">
	.st0{fill:#242528;}
</style>
<g>
	<path class="st0" d="M17.1,17.2l-0.8-1.5C16,14.8,16,14.1,16,14.1h-1c0,0.1,0.1,3.2,2.5,4.8l0.5-0.8C17.7,17.8,17.5,17.5,17.1,17.2
		z"/>
	<path class="st0" d="M17.4,11.6l0.1,1c0,0,1.7-0.2,3.5,0.8l0.5-0.9C19.4,11.3,17.5,11.6,17.4,11.6z"/>
	<path class="st0" d="M20.1,3.7C20.5,3.5,20.6,3.3,21,3c0.3-0.3,0.3-0.8,0-1.1c-0.3-0.3-0.8-0.3-1.1,0c-1.8,2-3.5,1.6-5.3,1.1
		c-1.3-0.3-2.6-0.7-3.7,0.1C9.2,4.3,9.2,6.7,9.4,8.3L5.9,6l1.6-1.1L2.5,4.3l2.7,4.9l0.2-2.4L8.8,9c-1.5,0.4-3.7,1.4-4.2,3.4
		c-0.3,1.3,0.5,2.4,1.3,3.5c1.1,1.5,2.2,2.9,1,5.3c-0.2,0.4,0,0.8,0.4,1c0.1,0,0.2,0.1,0.3,0.1c0.3,0,0.6-0.2,0.7-0.4
		c0.2-0.4,0.3-0.7,0.4-1.1l5.5-8.2l4.9,3.2l0.5-0.8l-4.9-3.1L20.1,3.7z M11.7,4.4C12.2,4,13,4.2,14.1,4.5c1.4,0.4,3.1,0.8,4.9-0.1
		l-4.8,7.1l-3.3-2.1c0,0,0,0,0-0.1C10.7,8.3,10.4,5.4,11.7,4.4z M8.9,19.6c0.1-2-1-3.4-1.8-4.6c-0.7-1-1.2-1.6-1-2.2
		c0.4-1.6,3.1-2.3,4.2-2.5h0.1c0.1,0,0.1,0,0.2,0l0,0l3.2,2.1L8.9,19.6z"/>
</g>
</svg>
