<?xml version="1.0" encoding="utf-8"?>
<!-- Generator: Adobe Illustrator 24.0.1, SVG Export Plug-In . SVG Version: 6.00 Build 0)  -->
<svg version="1.1" id="Layer_1" xmlns="http://www.w3.org/2000/svg" xmlns:xlink="http://www.w3.org/1999/xlink" x="0px" y="0px"
	 viewBox="0 0 24 24" style="enable-background:new 0 0 24 24;" xml:space="preserve">
<style type="text/css">
	.st0{fill:#242528;}
</style>
<g>
	<g>
		<path class="st0" d="M13.3,11.2L4.5,2.6c0,0,0.8,7.3,5.8,10.5L13.3,11.2z"/>
		<polygon class="st0" points="14.2,12.1 18.6,17.3 16.9,18.1 12.9,13.1 		"/>
	</g>
	<g>
		<path class="st0" d="M19.2,11.3c0,0-1.1-3.9-4.3-8c0,0-1.2,3.3,2.1,8.4L19.2,11.3z"/>
		<path class="st0" d="M19.7,12.2c0.2,0.2,1.4,4.1,1.4,4.1l-1.2,0.9l-1.5-4.6L19.7,12.2z"/>
	</g>
	<polygon class="st0" points="18.3,20.3 13.6,17.3 12.5,18.6 17.2,21.4 	"/>
	<path class="st0" d="M12.5,16.9l-9.6-3.4c0,0,3.1,5.1,7.7,5.7L12.5,16.9z"/>
</g>
</svg>
